<?xml version="1.0" encoding="UTF-8" standalone="no"?>
<!-- Created with Inkscape (http://www.inkscape.org/) -->

<svg
   xmlns:dc="http://purl.org/dc/elements/1.1/"
   xmlns:cc="http://creativecommons.org/ns#"
   xmlns:rdf="http://www.w3.org/1999/02/22-rdf-syntax-ns#"
   xmlns:svg="http://www.w3.org/2000/svg"
   xmlns="http://www.w3.org/2000/svg"
   xmlns:sodipodi="http://sodipodi.sourceforge.net/DTD/sodipodi-0.dtd"
   xmlns:inkscape="http://www.inkscape.org/namespaces/inkscape"
   id="svg2"
   version="1.1"
   inkscape:version="0.91 r13725"
   xml:space="preserve"
   width="1052.3625"
   height="744.09998"
   viewBox="0 0 1052.3625 744.09998"
   sodipodi:docname="VALORTECH-Logo.svg"
   inkscape:export-filename="C:\Users\malibal\Documents\GitHub\goldcoinc.github.io\valortechlogo.png"
   inkscape:export-xdpi="55.674728"
   inkscape:export-ydpi="55.674728"><metadata
     id="metadata8"><rdf:RDF><cc:Work
         rdf:about=""><dc:format>image/svg+xml</dc:format><dc:type
           rdf:resource="http://purl.org/dc/dcmitype/StillImage" /><dc:title /></cc:Work></rdf:RDF></metadata><defs
     id="defs6"><clipPath
       clipPathUnits="userSpaceOnUse"
       id="clipPath32"><path
         d="m 0,595.28 841.89,0 L 841.89,0 0,0 0,595.28 Z"
         id="path34"
         inkscape:connector-curvature="0" /></clipPath><clipPath
       clipPathUnits="userSpaceOnUse"
       id="clipPath76"><path
         d="m 0,595.28 841.89,0 L 841.89,0 0,0 0,595.28 Z"
         id="path78"
         inkscape:connector-curvature="0" /></clipPath></defs><sodipodi:namedview
     pagecolor="#ffffff"
     bordercolor="#666666"
     borderopacity="1"
     objecttolerance="10"
     gridtolerance="10"
     guidetolerance="10"
     inkscape:pageopacity="0"
     inkscape:pageshadow="2"
     inkscape:window-width="1920"
     inkscape:window-height="1018"
     id="namedview4"
     showgrid="false"
     inkscape:zoom="0.63432336"
     inkscape:cx="231.9774"
     inkscape:cy="529.69829"
     inkscape:window-x="-8"
     inkscape:window-y="-8"
     inkscape:window-maximized="1"
     inkscape:current-layer="g10"
     showguides="false" /><g
     id="g10"
     inkscape:groupmode="layer"
     inkscape:label="Excalibur Studio Logo Template"
     transform="matrix(1.25,0,0,-1.25,0,744.1)"><text
       transform="scale(0.9277072,-1.0779263)"
       style="font-variant:normal;font-weight:bold;font-stretch:normal;font-size:29.44497108px;font-family:'Trajan Pro';-inkscape-font-specification:TrajanPro-Bold;writing-mode:lr-tb;fill:#1a1a1a;fill-opacity:1;fill-rule:nonzero;stroke:none"
       id="text16"
       x="160.44052"
       y="-118.00709"
       inkscape:export-filename="C:\Users\malibal\Desktop\valortechlogo-full.png"
       inkscape:export-xdpi="599.99255"
       inkscape:export-ydpi="599.99255"><tspan
         sodipodi:role="line"
         id="tspan18"
         x="160.44052"
         y="-118.00709"
         style="font-style:normal;font-variant:normal;font-weight:300;font-stretch:normal;font-family:Roboto;-inkscape-font-specification:'Roboto Light';letter-spacing:0.43852687px;fill:#1a1a1a">Blockchain Innovation Development Company</tspan></text>
<g
       id="g28"
       transform="matrix(1.3761466,0,0,1.3761466,-147.28138,-230.08577)"
       inkscape:export-filename="C:\Users\malibal\Desktop\valortechlogo-full.png"
       inkscape:export-xdpi="599.99255"
       inkscape:export-ydpi="599.99255"><g
         id="g30"
         clip-path="url(#clipPath32)"><g
           id="g36"
           transform="translate(439.0586,515.5229)"><path
             d="m 0,0 c -1.721,0 -3.204,-1.001 -3.907,-2.452 l -5.299,0 c -8.083,0 -9.984,8.071 -10.395,10.824 -0.038,0.296 -0.073,0.597 -0.109,0.903 l 0,0.008 c -0.928,8.172 -0.864,18.464 -0.759,23.461 1.296,0.843 2.156,2.302 2.156,3.965 0,2.611 -2.115,4.729 -4.728,4.729 -2.609,0 -4.728,-2.118 -4.728,-4.729 0,-1.663 0.862,-3.122 2.157,-3.965 0.11,-5.191 0.176,-16.097 -0.87,-24.402 -0.42,-2.78 -2.338,-10.794 -10.392,-10.794 l -5.298,0 C -42.875,-1.001 -44.357,0 -46.079,0 c -2.4,0 -4.344,-1.945 -4.344,-4.345 0,-2.4 1.944,-4.346 4.344,-4.346 1.629,0 3.043,0.895 3.788,2.219 l 4.122,0 c 2.674,-0.129 5.895,-0.543 7.619,-1.713 0,0 3.015,-2.395 7.509,-2.395 4.497,0 7.512,2.395 7.512,2.395 1.724,1.17 4.947,1.584 7.621,1.713 l 4.122,0 c 0.744,-1.324 2.159,-2.219 3.786,-2.219 2.399,0 4.344,1.946 4.344,4.346 C 4.344,-1.945 2.399,0 0,0"
             style="fill:#855e49;fill-opacity:1;fill-rule:nonzero;stroke:none"
             id="path38"
             inkscape:connector-curvature="0" /></g><g
           id="g40"
           transform="translate(525.7969,367.2583)"><path
             d="m 0,0 -5.909,11.812 -24.22,1.184 -0.005,0.01 -13.72,1.269 -19.498,-6.878 18.703,12.571 10.097,0.73 -3.552,6.179 -11.011,3.776 c -0.009,0.003 -0.019,0.008 -0.031,0.013 l -3.59,1.229 c -9.327,4.521 -17.18,14.616 -17.18,14.616 l -12.059,14.643 -27.799,10.549 -39.809,-16.578 -6.521,-16.187 22.852,6.141 13.354,-18.957 -14.938,12.101 -23.139,-6.675 -0.002,0 -13.626,-4.671 -7.972,-13.881 -24.22,-1.184 -5.909,-11.812 -32.49,-12.011 82.7,0 18.902,0 35.739,0 35.739,0 18.902,0 82.702,0 L 0,0 Z"
             style="fill:#707072;fill-opacity:1;fill-rule:nonzero;stroke:none"
             id="path42"
             inkscape:connector-curvature="0" /></g><g
           id="g44"
           transform="translate(431.0811,440.9336)"><path
             d="m 0,0 17.128,-6.357 13.439,-16.322 c 0.06,-0.078 6.746,-8.548 14.23,-12.344 l 16.782,-5.754 7.357,-12.801 2.435,-0.118 c 1.055,5.466 1.612,11.107 1.612,16.881 C 72.983,6.311 42.192,42.239 1.4,50.2 L 0,0 Z"
             style="fill:#fece3d;fill-opacity:1;fill-rule:nonzero;stroke:none"
             id="path46"
             inkscape:connector-curvature="0" /></g><g
           id="g48"
           transform="translate(341.8755,387.3574)"><path
             d="m 0,0 7.352,12.799 11.782,4.039 9.561,23.733 30.393,12.858 -1.407,50.585 c -41.41,-7.472 -72.82,-43.694 -72.82,-87.253 0,-5.962 0.592,-11.786 1.716,-17.418 L 0,0 Z"
             style="fill:#fece3d;fill-opacity:1;fill-rule:nonzero;stroke:none"
             id="path50"
             inkscape:connector-curvature="0" /></g><g
           id="g52"
           transform="translate(434.2471,370.2651)"><path
             d="m 0,0 c 0,11.239 -8.843,28.8 -8.843,28.8 -7.83,14.167 1.09,25.826 1.09,25.826 l 17.192,3.57 -27.663,10.5 -39.809,-16.578 -6.522,-16.187 22.853,6.141 13.354,-18.957 -14.938,12.101 -23.139,-6.675 -0.002,0 -13.626,-4.67 -7.972,-13.882 -24.22,-1.184 -5.909,-11.812 -32.49,-12.011 82.7,0 18.902,0 35.739,0 35.739,0 9.782,0 C 0.093,-15.018 0,0 0,0"
             style="fill:#555554;fill-opacity:1;fill-rule:nonzero;stroke:none"
             id="path54"
             inkscape:connector-curvature="0" /></g><g
           id="g56"
           transform="translate(416.0181,446.6162)"><path
             d="M 0,0 0,5.644 -1.768,9.689 -2.161,53.77 c -3.817,0.527 -6.403,2.292 -7.054,2.781 -0.019,0.013 -0.04,0.028 -0.067,0.039 L -7.617,-3.172 0,0 Z"
             style="fill:#9b9b9b;fill-opacity:1;fill-rule:nonzero;stroke:none"
             id="path58"
             inkscape:connector-curvature="0" /></g><g
           id="g60"
           transform="translate(425.3037,503.209)"><path
             d="m 0,0 c -0.023,-0.013 -0.05,-0.028 -0.069,-0.042 -0.652,-0.489 -3.234,-2.251 -7.046,-2.781 l -0.396,-44.08 -1.77,-4.054 0,-5.634 7.626,-2.893 L 0,0 Z"
             style="fill:#c2c2c2;fill-opacity:1;fill-rule:nonzero;stroke:none"
             id="path62"
             inkscape:connector-curvature="0" /></g></g></g><text
       transform="scale(0.96676129,-1.0343815)"
       style="font-variant:normal;font-weight:bold;font-stretch:normal;font-size:115.43148041px;font-family:'Trajan Pro';-inkscape-font-specification:TrajanPro-Bold;writing-mode:lr-tb;fill:#000000;fill-opacity:1;fill-rule:nonzero;stroke:none"
       id="text12"
       x="120.12346"
       y="-158.5145"
       inkscape:export-filename="C:\Users\malibal\Desktop\valortechlogo-full.png"
       inkscape:export-xdpi="599.99255"
       inkscape:export-ydpi="599.99255"><tspan
         x="120.12346"
         sodipodi:role="line"
         y="-158.5145"
         style="font-style:normal;font-variant:normal;font-weight:500;font-stretch:normal;font-family:Roboto;-inkscape-font-specification:'Roboto Medium';fill:#000000"
         id="tspan12685">VALORTECH</tspan></text>
<g
       id="g8086"
       transform="translate(138.75988,136.3152)"><path
         d="M 0,0 -15.99,0.647 0,1.291 1.518,0.647 0,0 Z"
         style="fill:#707072;fill-opacity:1;fill-rule:nonzero;stroke:none"
         id="path8088"
         inkscape:connector-curvature="0" /></g><g
       id="g8090"
       transform="translate(726.28565,135.12892)"><path
         d="M 0,0 15.987,0.647 0,1.291 -1.518,0.647 0,0 Z"
         style="fill:#707072;fill-opacity:1;fill-rule:nonzero;stroke:none"
         id="path8092"
         inkscape:connector-curvature="0" /></g><text
       xml:space="preserve"
       style="font-style:normal;font-weight:normal;font-size:10px;line-height:125%;font-family:sans-serif;letter-spacing:0px;word-spacing:0px;fill:#000000;fill-opacity:1;stroke:none;stroke-width:1px;stroke-linecap:butt;stroke-linejoin:miter;stroke-opacity:1"
       x="737.41565"
       y="-242.82545"
       id="text12725"
       sodipodi:linespacing="125%"
       transform="scale(1,-1)"><tspan
         sodipodi:role="line"
         id="tspan12727"
         x="737.41565"
         y="-242.82545">TM</tspan></text>
</g></svg>