<?xml version="1.0" encoding="UTF-8" standalone="no"?>
<!-- Created with Inkscape (http://www.inkscape.org/) -->

<svg
   xmlns:dc="http://purl.org/dc/elements/1.1/"
   xmlns:cc="http://creativecommons.org/ns#"
   xmlns:rdf="http://www.w3.org/1999/02/22-rdf-syntax-ns#"
   xmlns:svg="http://www.w3.org/2000/svg"
   xmlns="http://www.w3.org/2000/svg"
   xmlns:sodipodi="http://sodipodi.sourceforge.net/DTD/sodipodi-0.dtd"
   xmlns:inkscape="http://www.inkscape.org/namespaces/inkscape"
   id="svg2"
   version="1.1"
   inkscape:version="0.91 r13725"
   xml:space="preserve"
   width="1097.1"
   height="789.29999"
   viewBox="0 0 1097.1 789.29999"
   sodipodi:docname="brand-book-viva-p4.svg"
   inkscape:export-filename="C:\Users\alec\Documents\GitHub\goldcoinc.github.io\vivacoin-id\brand-book-free-01\brand-book-viva-p4.png"
   inkscape:export-xdpi="300.00018"
   inkscape:export-ydpi="300.00018"><metadata
     id="metadata8"><rdf:RDF><cc:Work
         rdf:about=""><dc:format>image/svg+xml</dc:format><dc:type
           rdf:resource="http://purl.org/dc/dcmitype/StillImage" /><dc:title /></cc:Work></rdf:RDF></metadata><defs
     id="defs6"><clipPath
       clipPathUnits="userSpaceOnUse"
       id="clipPath20"><path
         d="m 0,631.44 877.68,0 L 877.68,0 0,0 0,631.44 Z"
         id="path22"
         inkscape:connector-curvature="0" /></clipPath><clipPath
       clipPathUnits="userSpaceOnUse"
       id="clipPath36"><path
         d="m 0,631.44 877.68,0 L 877.68,0 0,0 0,631.44 Z"
         id="path38"
         inkscape:connector-curvature="0" /></clipPath><clipPath
       clipPathUnits="userSpaceOnUse"
       id="clipPath52"><path
         d="m 0,631.44 877.68,0 L 877.68,0 0,0 0,631.44 Z"
         id="path54"
         inkscape:connector-curvature="0" /></clipPath><clipPath
       clipPathUnits="userSpaceOnUse"
       id="clipPath68"><path
         d="m 0,631.44 877.68,0 L 877.68,0 0,0 0,631.44 Z"
         id="path70"
         inkscape:connector-curvature="0" /></clipPath><clipPath
       clipPathUnits="userSpaceOnUse"
       id="clipPath84"><path
         d="m 0,631.44 877.68,0 L 877.68,0 0,0 0,631.44 Z"
         id="path86"
         inkscape:connector-curvature="0" /></clipPath><clipPath
       clipPathUnits="userSpaceOnUse"
       id="clipPath100"><path
         d="m 0,631.44 877.68,0 L 877.68,0 0,0 0,631.44 Z"
         id="path102"
         inkscape:connector-curvature="0" /></clipPath><clipPath
       clipPathUnits="userSpaceOnUse"
       id="clipPath116"><path
         d="m 0,631.44 877.68,0 L 877.68,0 0,0 0,631.44 Z"
         id="path118"
         inkscape:connector-curvature="0" /></clipPath><clipPath
       clipPathUnits="userSpaceOnUse"
       id="clipPath132"><path
         d="m 0,631.44 877.68,0 L 877.68,0 0,0 0,631.44 Z"
         id="path134"
         inkscape:connector-curvature="0" /></clipPath><clipPath
       clipPathUnits="userSpaceOnUse"
       id="clipPath172"><path
         d="m 0,631.44 877.68,0 L 877.68,0 0,0 0,631.44 Z"
         id="path174"
         inkscape:connector-curvature="0" /></clipPath><mask
       id="mask3617"><g
         id="g3619"><g
           clip-path="url(#clipPath3593)"
           id="g3621"><g
             id="g3623"><g
               id="g3625" /><g
               mask="url(#mask3601)"
               id="g3627"><g
                 id="g3629" /><g
                 id="g3631"><g
                   clip-path="url(#clipPath3607)"
                   id="g3633"><path
                     inkscape:connector-curvature="0"
                     d="m 329.16602,164.71191 c -16.98438,12.27051 -31.35694,25.11426 -11.82032,43.35987 1.47266,3.20019 -1.08398,6.06543 1.08789,9.31933 1.90039,1.25342 3.92774,0.92285 5.92383,0.9458 -6.90039,6.35987 1.98047,10.44141 6.99414,16.26319 2.10352,6.75635 -8.34961,12.64355 -3.82422,18.61767 2.38086,3.13037 12.86329,3.15918 18.96875,5.22998 9.88477,3.33741 17.0918,7.17725 24.48633,16.75489 4.60547,7.36132 28.24024,36.02441 68.73047,48.18701 -14.38672,-35.15088 -69.42383,-188.95899 -77.0918,-211.28369 -5.58203,18.99609 -15.5625,39.69189 -33.45507,52.60595 z"
                     id="path3635"
                     style="fill:url(#radialGradient3611);fill-opacity:1;fill-rule:evenodd;stroke:none" /></g></g></g></g></g></g></mask><clipPath
       id="clipPath3593"><path
         inkscape:connector-curvature="0"
         d="m 308.02246,112.10596 131.69043,0 0,211.28369 -131.69043,0 0,-211.28369 z"
         id="path3595" /></clipPath><mask
       id="mask3601"><g
         id="g3603"><g
           clip-path="url(#clipPath3597)"
           id="g3605" /></g></mask><clipPath
       id="clipPath3597"><path
         inkscape:connector-curvature="0"
         d="m 8497,24399 -32766,0 0,-32766 32766,0 0,32766 z"
         id="path3599" /></clipPath><clipPath
       id="clipPath3607"><path
         inkscape:connector-curvature="0"
         d="m 308.02246,112.10596 131.69043,0 0,211.28369 -131.69043,0 0,-211.28369 z"
         id="path3609" /></clipPath><radialGradient
       cx="573.92383"
       cy="133"
       r="277.04648"
       fx="573.92383"
       fy="133"
       id="radialGradient3611"
       gradientUnits="userSpaceOnUse"
       spreadMethod="pad"><stop
         id="stop3613"
         style="stop-color:#000000;stop-opacity:1"
         offset="0" /><stop
         id="stop3615"
         style="stop-color:#b3b3b3;stop-opacity:1"
         offset="1" /></radialGradient><clipPath
       id="clipPath3641"><path
         inkscape:connector-curvature="0"
         d="m 308.02246,112.10596 131.69043,0 0,211.28369 -131.69043,0 0,-211.28369 z"
         id="path3643" /></clipPath><linearGradient
       x1="407.74023"
       y1="214.81494"
       x2="335.86383"
       y2="246.88181"
       id="linearGradient3645"
       gradientUnits="userSpaceOnUse"
       spreadMethod="pad"><stop
         id="stop3647"
         style="stop-color:#ffffff;stop-opacity:1"
         offset="0" /><stop
         id="stop3649"
         style="stop-color:#bdbcbc;stop-opacity:1"
         offset="1" /></linearGradient><mask
       id="mask3511"><g
         id="g3513"><g
           clip-path="url(#clipPath3487)"
           id="g3515"><g
             id="g3517"><g
               id="g3519" /><g
               mask="url(#mask3495)"
               id="g3521"><g
                 id="g3523" /><g
                 id="g3525"><g
                   clip-path="url(#clipPath3501)"
                   id="g3527"><path
                     inkscape:connector-curvature="0"
                     d="m 102.37744,-73.13623 c 0.62158,0.81934 2.19531,1.0791 4.01758,1.37988 0.99268,0.16455 2.01758,0.33447 2.79687,0.59864 3.34766,1.12988 5.77686,2.4165 8.27637,5.64794 1.9624,3.12403 9.43067,11.63477 21.57764,16.07618 -0.29541,0.002 -0.59766,0.0034 -0.90527,0.0034 -3.75635,0 -7.86377,-0.18115 -10.7168,-0.47314 -15.32959,-1.55908 -22.2959,-5.729 -35.44971,-17.47119 -1.81396,-1.61768 -3.18457,-2.33887 -4.44482,-2.33887 -1.99805,0 -3.47364,1.81592 -5.50049,5.16699 -3.37451,5.56641 -7.1792,11.0503 -13.25537,11.62598 -0.20117,0.01953 -0.40723,0.02881 -0.61328,0.02881 -4.06348,4.9e-4 -8.23438,-3.70899 -10.62452,-7.38916 2.0503,-0.146 3.89356,-1.05762 5.75782,-2.83887 2.10156,-2.01221 3.45898,-6.98437 4.02929,-10.96631 0.43116,-3.00927 0.84913,-5.92822 1.31836,-8.74414 12.20118,1.42041 23.50879,3.9126 33.44629,7.25879 -0.29101,0.78272 -0.33984,1.604 0.29004,2.43506 z"
                     id="path3529"
                     style="fill:url(#linearGradient3505);fill-opacity:1;fill-rule:nonzero;stroke:none" /></g></g></g></g></g></g></mask><clipPath
       id="clipPath3487"><path
         inkscape:connector-curvature="0"
         d="m 57.53564,-82.83008 81.51026,0 0,33.3999 -81.51026,0 0,-33.3999 z"
         id="path3489" /></clipPath><mask
       id="mask3495"><g
         id="g3497"><g
           clip-path="url(#clipPath3491)"
           id="g3499" /></g></mask><clipPath
       id="clipPath3491"><path
         inkscape:connector-curvature="0"
         d="m 8497,24399 -32766,0 0,-32766 32766,0 0,32766 z"
         id="path3493" /></clipPath><clipPath
       id="clipPath3501"><path
         inkscape:connector-curvature="0"
         d="m 57.53564,-82.83008 81.51026,0 0,33.3999 -81.51026,0 0,-33.3999 z"
         id="path3503" /></clipPath><linearGradient
       x1="103.95703"
       y1="-83.849609"
       x2="97.292763"
       y2="-49.754559"
       id="linearGradient3505"
       gradientUnits="userSpaceOnUse"
       spreadMethod="pad"><stop
         id="stop3507"
         style="stop-color:#ffffff;stop-opacity:1"
         offset="0" /><stop
         id="stop3509"
         style="stop-color:#000000;stop-opacity:1"
         offset="1" /></linearGradient><clipPath
       id="clipPath3535"><path
         inkscape:connector-curvature="0"
         d="m 57.53564,-82.83008 81.51026,0 0,33.3999 -81.51026,0 0,-33.3999 z"
         id="path3537" /></clipPath><linearGradient
       x1="103.95703"
       y1="-83.849609"
       x2="97.292763"
       y2="-49.754559"
       id="linearGradient3539"
       gradientUnits="userSpaceOnUse"
       spreadMethod="pad"><stop
         id="stop3541"
         style="stop-color:#ffffff;stop-opacity:1"
         offset="0" /><stop
         id="stop3543"
         style="stop-color:#ffffff;stop-opacity:1"
         offset="1" /></linearGradient><mask
       id="mask3425"><g
         id="g3427"><g
           clip-path="url(#clipPath3401)"
           id="g3429"><g
             id="g3431"><g
               id="g3433" /><g
               mask="url(#mask3409)"
               id="g3435"><g
                 id="g3437" /><g
                 id="g3439"><g
                   clip-path="url(#clipPath3415)"
                   id="g3441"><path
                     inkscape:connector-curvature="0"
                     d="m 246.73975,-73.13623 c 0.62207,0.81934 2.19629,1.0791 4.01806,1.37988 0.99268,0.16455 2.01758,0.33447 2.79737,0.59864 3.34716,1.12988 5.77587,2.4165 8.27539,5.64794 1.96338,3.12403 9.43164,11.63477 21.57812,16.07618 -0.29541,0.002 -0.59765,0.0034 -0.90576,0.0034 -3.75635,0 -7.86328,-0.18115 -10.7168,-0.47314 -15.3291,-1.55908 -22.2959,-5.729 -35.44922,-17.47119 -1.81396,-1.61768 -3.18505,-2.33887 -4.44482,-2.33887 -1.99854,0 -3.47363,1.81592 -5.50049,5.16699 -3.375,5.56641 -7.1792,11.0503 -13.25537,11.62598 -0.20117,0.01953 -0.40723,0.02881 -0.61328,0.02881 -4.06397,4.9e-4 -8.23389,-3.70899 -10.625,-7.38916 2.05078,-0.146 3.89355,-1.05762 5.7583,-2.83887 2.10156,-2.01221 3.45947,-6.98437 4.02881,-10.96631 0.43115,-3.00927 0.84912,-5.92822 1.31933,-8.74414 12.2002,1.42041 23.50831,3.9126 33.44581,7.25879 -0.29102,0.78272 -0.33985,1.604 0.28955,2.43506 z"
                     id="path3443"
                     style="fill:url(#linearGradient3419);fill-opacity:1;fill-rule:nonzero;stroke:none" /></g></g></g></g></g></g></mask><clipPath
       id="clipPath3401"><path
         inkscape:connector-curvature="0"
         d="m 201.89795,-82.83008 81.51074,0 0,33.3999 -81.51074,0 0,-33.3999 z"
         id="path3403" /></clipPath><mask
       id="mask3409"><g
         id="g3411"><g
           clip-path="url(#clipPath3405)"
           id="g3413" /></g></mask><clipPath
       id="clipPath3405"><path
         inkscape:connector-curvature="0"
         d="m 8497,24399 -32766,0 0,-32766 32766,0 0,32766 z"
         id="path3407" /></clipPath><clipPath
       id="clipPath3415"><path
         inkscape:connector-curvature="0"
         d="m 201.89795,-82.83008 81.51074,0 0,33.3999 -81.51074,0 0,-33.3999 z"
         id="path3417" /></clipPath><linearGradient
       x1="248.31934"
       y1="-83.849609"
       x2="241.65506"
       y2="-49.754559"
       id="linearGradient3419"
       gradientUnits="userSpaceOnUse"
       spreadMethod="pad"><stop
         id="stop3421"
         style="stop-color:#ffffff;stop-opacity:1"
         offset="0" /><stop
         id="stop3423"
         style="stop-color:#000000;stop-opacity:1"
         offset="1" /></linearGradient><clipPath
       id="clipPath3449"><path
         inkscape:connector-curvature="0"
         d="m 201.89795,-82.83008 81.51074,0 0,33.3999 -81.51074,0 0,-33.3999 z"
         id="path3451" /></clipPath><linearGradient
       x1="248.31934"
       y1="-83.849609"
       x2="241.65506"
       y2="-49.754559"
       id="linearGradient3453"
       gradientUnits="userSpaceOnUse"
       spreadMethod="pad"><stop
         id="stop3455"
         style="stop-color:#ffffff;stop-opacity:1"
         offset="0" /><stop
         id="stop3457"
         style="stop-color:#ffffff;stop-opacity:1"
         offset="1" /></linearGradient><mask
       id="mask3339"><g
         id="g3341"><g
           clip-path="url(#clipPath3315)"
           id="g3343"><g
             id="g3345"><g
               id="g3347" /><g
               mask="url(#mask3323)"
               id="g3349"><g
                 id="g3351" /><g
                 id="g3353"><g
                   clip-path="url(#clipPath3329)"
                   id="g3355"><path
                     inkscape:connector-curvature="0"
                     d="m 391.10254,-73.13623 c 0.62207,0.81934 2.19629,1.0791 4.01855,1.37988 0.99219,0.16455 2.01758,0.33447 2.7959,0.59864 3.34766,1.12988 5.77637,2.4165 8.27637,5.64794 1.96289,3.12403 9.43164,11.63477 21.57812,16.07618 -0.29589,0.002 -0.59765,0.0034 -0.90527,0.0034 -3.75586,0 -7.86328,-0.18115 -10.71777,-0.47314 -15.32813,-1.55908 -22.2959,-5.729 -35.44922,-17.47119 -1.81348,-1.61768 -3.18457,-2.33887 -4.44531,-2.33887 -1.99707,0 -3.47364,1.81592 -5.5,5.16699 -3.375,5.56641 -7.17871,11.0503 -13.25489,11.62598 -0.20117,0.01953 -0.40722,0.02881 -0.61328,0.02881 -4.06347,4.9e-4 -8.23437,-3.70899 -10.625,-7.38916 2.05078,-0.146 3.89453,-1.05762 5.75879,-2.83887 2.10059,-2.01221 3.45801,-6.98437 4.02832,-10.96631 0.43067,-3.00927 0.84961,-5.92822 1.31836,-8.74414 12.20117,1.42041 23.50977,3.9126 33.44727,7.25879 -0.292,0.78272 -0.34082,1.604 0.28906,2.43506 z"
                     id="path3357"
                     style="fill:url(#linearGradient3333);fill-opacity:1;fill-rule:nonzero;stroke:none" /></g></g></g></g></g></g></mask><clipPath
       id="clipPath3315"><path
         inkscape:connector-curvature="0"
         d="m 346.26074,-82.83008 81.51074,0 0,33.3999 -81.51074,0 0,-33.3999 z"
         id="path3317" /></clipPath><mask
       id="mask3323"><g
         id="g3325"><g
           clip-path="url(#clipPath3319)"
           id="g3327" /></g></mask><clipPath
       id="clipPath3319"><path
         inkscape:connector-curvature="0"
         d="m 8497,24399 -32766,0 0,-32766 32766,0 0,32766 z"
         id="path3321" /></clipPath><clipPath
       id="clipPath3329"><path
         inkscape:connector-curvature="0"
         d="m 346.26074,-82.83008 81.51074,0 0,33.3999 -81.51074,0 0,-33.3999 z"
         id="path3331" /></clipPath><linearGradient
       x1="392.68262"
       y1="-83.849121"
       x2="386.01855"
       y2="-49.755192"
       id="linearGradient3333"
       gradientUnits="userSpaceOnUse"
       spreadMethod="pad"><stop
         id="stop3335"
         style="stop-color:#ffffff;stop-opacity:1"
         offset="0" /><stop
         id="stop3337"
         style="stop-color:#000000;stop-opacity:1"
         offset="1" /></linearGradient><clipPath
       id="clipPath3363"><path
         inkscape:connector-curvature="0"
         d="m 346.26074,-82.83008 81.51074,0 0,33.3999 -81.51074,0 0,-33.3999 z"
         id="path3365" /></clipPath><linearGradient
       x1="392.68262"
       y1="-83.849121"
       x2="386.01855"
       y2="-49.755192"
       id="linearGradient3367"
       gradientUnits="userSpaceOnUse"
       spreadMethod="pad"><stop
         id="stop3369"
         style="stop-color:#ffffff;stop-opacity:1"
         offset="0" /><stop
         id="stop3371"
         style="stop-color:#ffffff;stop-opacity:1"
         offset="1" /></linearGradient><mask
       id="mask3253"><g
         id="g3255"><g
           clip-path="url(#clipPath3229)"
           id="g3257"><g
             id="g3259"><g
               id="g3261" /><g
               mask="url(#mask3237)"
               id="g3263"><g
                 id="g3265" /><g
                 id="g3267"><g
                   clip-path="url(#clipPath3243)"
                   id="g3269"><path
                     inkscape:connector-curvature="0"
                     d="m 535.46582,-73.13623 c 0.62109,0.81934 2.19531,1.0791 4.01758,1.37988 0.99219,0.16455 2.01758,0.33447 2.7959,0.59864 3.34765,1.12988 5.77734,2.4165 8.27636,5.64794 1.96289,3.12403 9.43164,11.63477 21.57813,16.07618 -0.29492,0.002 -0.59766,0.0034 -0.90527,0.0034 -3.75586,0 -7.86329,-0.18115 -10.7168,-0.47314 -15.3291,-1.55908 -22.2959,-5.729 -35.44922,-17.47119 -1.81445,-1.61768 -3.18457,-2.33887 -4.44434,-2.33887 -1.99902,0 -3.47461,1.81592 -5.50097,5.16699 -3.375,5.56641 -7.17969,11.0503 -13.25586,11.62598 -0.20117,0.01953 -0.40723,0.02881 -0.61328,0.02881 -4.06348,4.9e-4 -8.23438,-3.70899 -10.625,-7.38916 2.05078,-0.146 3.89453,-1.05762 5.75879,-2.83887 2.10058,-2.01221 3.458,-6.98437 4.02929,-10.96631 0.43067,-3.00927 0.84864,-5.92822 1.31836,-8.74414 12.20117,1.42041 23.50879,3.9126 33.44629,7.25879 -0.29199,0.78272 -0.33984,1.604 0.29004,2.43506 z"
                     id="path3271"
                     style="fill:url(#linearGradient3247);fill-opacity:1;fill-rule:nonzero;stroke:none" /></g></g></g></g></g></g></mask><clipPath
       id="clipPath3229"><path
         inkscape:connector-curvature="0"
         d="m 490.62305,-82.83008 81.51074,0 0,33.3999 -81.51074,0 0,-33.3999 z"
         id="path3231" /></clipPath><mask
       id="mask3237"><g
         id="g3239"><g
           clip-path="url(#clipPath3233)"
           id="g3241" /></g></mask><clipPath
       id="clipPath3233"><path
         inkscape:connector-curvature="0"
         d="m 8497,24399 -32766,0 0,-32766 32766,0 0,32766 z"
         id="path3235" /></clipPath><clipPath
       id="clipPath3243"><path
         inkscape:connector-curvature="0"
         d="m 490.62305,-82.83008 81.51074,0 0,33.3999 -81.51074,0 0,-33.3999 z"
         id="path3245" /></clipPath><linearGradient
       x1="537.04492"
       y1="-83.850098"
       x2="530.38068"
       y2="-49.755051"
       id="linearGradient3247"
       gradientUnits="userSpaceOnUse"
       spreadMethod="pad"><stop
         id="stop3249"
         style="stop-color:#ffffff;stop-opacity:1"
         offset="0" /><stop
         id="stop3251"
         style="stop-color:#000000;stop-opacity:1"
         offset="1" /></linearGradient><clipPath
       id="clipPath3277"><path
         inkscape:connector-curvature="0"
         d="m 490.62305,-82.83008 81.51074,0 0,33.3999 -81.51074,0 0,-33.3999 z"
         id="path3279" /></clipPath><linearGradient
       x1="537.04492"
       y1="-83.850098"
       x2="530.38068"
       y2="-49.755051"
       id="linearGradient3281"
       gradientUnits="userSpaceOnUse"
       spreadMethod="pad"><stop
         id="stop3283"
         style="stop-color:#ffffff;stop-opacity:1"
         offset="0" /><stop
         id="stop3285"
         style="stop-color:#ffffff;stop-opacity:1"
         offset="1" /></linearGradient><linearGradient
       gradientTransform="matrix(0.61043787,0,0,0.61043787,450.03001,678.17681)"
       x1="370.24902"
       y1="-610.67285"
       x2="233.36674"
       y2="-610.67163"
       id="linearGradient3143"
       gradientUnits="userSpaceOnUse"
       spreadMethod="pad"><stop
         id="stop3145"
         style="stop-color:#b6b5b5;stop-opacity:1"
         offset="0" /><stop
         id="stop3147"
         style="stop-color:#231f20;stop-opacity:1"
         offset="0.87273002" /><stop
         id="stop3149"
         style="stop-color:#231f20;stop-opacity:1"
         offset="0.87273002" /><stop
         id="stop3151"
         style="stop-color:#231f20;stop-opacity:1"
         offset="1" /></linearGradient><clipPath
       id="clipPath3033"><path
         inkscape:connector-curvature="0"
         d="m 31.89209,-166.72363 550.21533,0 0,8.67578 -550.21533,0 0,-8.67578 z"
         id="path3035" /></clipPath><clipPath
       id="clipPath2999"><path
         inkscape:connector-curvature="0"
         d="m 31.89209,-487.41211 550.21533,0 0,8.67578 -550.21533,0 0,-8.67578 z"
         id="path3001" /></clipPath></defs><sodipodi:namedview
     pagecolor="#ffffff"
     bordercolor="#666666"
     borderopacity="1"
     objecttolerance="10"
     gridtolerance="10"
     guidetolerance="10"
     inkscape:pageopacity="0"
     inkscape:pageshadow="2"
     inkscape:window-width="1920"
     inkscape:window-height="1018"
     id="namedview4"
     showgrid="false"
     inkscape:zoom="0.84569721"
     inkscape:cx="334.74313"
     inkscape:cy="394.64999"
     inkscape:window-x="-8"
     inkscape:window-y="-8"
     inkscape:window-maximized="1"
     inkscape:current-layer="g10" /><g
     id="g10"
     inkscape:groupmode="layer"
     inkscape:label="brand-book-free-02"
     transform="matrix(1.25,0,0,-1.25,0,789.3)"><g
       id="g12"
       transform="translate(18.0009,631.44)"><path
         d="M 0,0 0,-17.999 0,0 Z"
         style="fill:#3a4146;fill-opacity:1;fill-rule:nonzero;stroke:none"
         id="path14"
         inkscape:connector-curvature="0" /></g><g
       id="g16"><g
         id="g18"
         clip-path="url(#clipPath20)"><g
           id="g24"
           transform="translate(18.0005,631.4409)"><path
             d="M 0,0 0,-18"
             style="fill:none;stroke:#292929;stroke-width:0.30000001;stroke-linecap:butt;stroke-linejoin:miter;stroke-miterlimit:10;stroke-dasharray:none;stroke-opacity:1"
             id="path26"
             inkscape:connector-curvature="0" /></g></g></g><g
       id="g28"
       transform="translate(9e-4,613.4409)"><path
         d="M 0,0 18,0 0,0 Z"
         style="fill:#3a4146;fill-opacity:1;fill-rule:nonzero;stroke:none"
         id="path30"
         inkscape:connector-curvature="0" /></g><g
       id="g32"><g
         id="g34"
         clip-path="url(#clipPath36)"><g
           id="g40"
           transform="translate(5e-4,613.4409)"><path
             d="M 0,0 18,0"
             style="fill:none;stroke:#292929;stroke-width:0.30000001;stroke-linecap:butt;stroke-linejoin:miter;stroke-miterlimit:10;stroke-dasharray:none;stroke-opacity:1"
             id="path42"
             inkscape:connector-curvature="0" /></g></g></g><g
       id="g44"
       transform="translate(859.68,613.4409)"><path
         d="M 0,0 18,0 0,0 Z"
         style="fill:#3a4146;fill-opacity:1;fill-rule:nonzero;stroke:none"
         id="path46"
         inkscape:connector-curvature="0" /></g><g
       id="g48"><g
         id="g50"
         clip-path="url(#clipPath52)"><g
           id="g56"
           transform="translate(877.6802,613.4409)"><path
             d="M 0,0 -18,0"
             style="fill:none;stroke:#292929;stroke-width:0.30000001;stroke-linecap:butt;stroke-linejoin:miter;stroke-miterlimit:10;stroke-dasharray:none;stroke-opacity:1"
             id="path58"
             inkscape:connector-curvature="0" /></g></g></g><g
       id="g60"
       transform="translate(859.68,631.44)"><path
         d="M 0,0 0,-17.999 0,0 Z"
         style="fill:#3a4146;fill-opacity:1;fill-rule:nonzero;stroke:none"
         id="path62"
         inkscape:connector-curvature="0" /></g><g
       id="g64"><g
         id="g66"
         clip-path="url(#clipPath68)"><g
           id="g72"
           transform="translate(859.6802,631.4409)"><path
             d="M 0,0 0,-18"
             style="fill:none;stroke:#292929;stroke-width:0.30000001;stroke-linecap:butt;stroke-linejoin:miter;stroke-miterlimit:10;stroke-dasharray:none;stroke-opacity:1"
             id="path74"
             inkscape:connector-curvature="0" /></g></g></g><g
       id="g76"
       transform="translate(859.68,0)"><path
         d="M 0,0 0,17.999 0,0 Z"
         style="fill:#3a4146;fill-opacity:1;fill-rule:nonzero;stroke:none"
         id="path78"
         inkscape:connector-curvature="0" /></g><g
       id="g80"><g
         id="g82"
         clip-path="url(#clipPath84)"><g
           id="g88"
           transform="translate(859.6802,-5e-4)"><path
             d="M 0,0 0,18"
             style="fill:none;stroke:#292929;stroke-width:0.30000001;stroke-linecap:butt;stroke-linejoin:miter;stroke-miterlimit:10;stroke-dasharray:none;stroke-opacity:1"
             id="path90"
             inkscape:connector-curvature="0" /></g></g></g><g
       id="g92"
       transform="translate(859.68,17.9991)"><path
         d="M 0,0 18,0 0,0 Z"
         style="fill:#3a4146;fill-opacity:1;fill-rule:nonzero;stroke:none"
         id="path94"
         inkscape:connector-curvature="0" /></g><g
       id="g96"><g
         id="g98"
         clip-path="url(#clipPath100)"><g
           id="g104"
           transform="translate(877.6802,17.9995)"><path
             d="M 0,0 -18,0"
             style="fill:none;stroke:#292929;stroke-width:0.30000001;stroke-linecap:butt;stroke-linejoin:miter;stroke-miterlimit:10;stroke-dasharray:none;stroke-opacity:1"
             id="path106"
             inkscape:connector-curvature="0" /></g></g></g><g
       id="g108"
       transform="translate(9e-4,17.9991)"><path
         d="M 0,0 18,0 0,0 Z"
         style="fill:#3a4146;fill-opacity:1;fill-rule:nonzero;stroke:none"
         id="path110"
         inkscape:connector-curvature="0" /></g><g
       id="g112"><g
         id="g114"
         clip-path="url(#clipPath116)"><g
           id="g120"
           transform="translate(5e-4,17.9995)"><path
             d="M 0,0 18,0"
             style="fill:none;stroke:#292929;stroke-width:0.30000001;stroke-linecap:butt;stroke-linejoin:miter;stroke-miterlimit:10;stroke-dasharray:none;stroke-opacity:1"
             id="path122"
             inkscape:connector-curvature="0" /></g></g></g><g
       id="g124"
       transform="translate(18.0009,0)"><path
         d="M 0,0 0,17.999 0,0 Z"
         style="fill:#3a4146;fill-opacity:1;fill-rule:nonzero;stroke:none"
         id="path126"
         inkscape:connector-curvature="0" /></g><g
       id="g128"><g
         id="g130"
         clip-path="url(#clipPath132)"><g
           id="g136"
           transform="translate(18.0005,-5e-4)"><path
             d="M 0,0 0,18"
             style="fill:none;stroke:#292929;stroke-width:0.30000001;stroke-linecap:butt;stroke-linejoin:miter;stroke-miterlimit:10;stroke-dasharray:none;stroke-opacity:1"
             id="path138"
             inkscape:connector-curvature="0" /></g></g></g><g
       id="g140"
       transform="translate(8.9995,622.4404)"><path
         d="m 0,0 0,-613.44 859.68,0 0,613.438 L 0,0 Z"
         style="fill:#afc3d9;fill-opacity:1;fill-rule:nonzero;stroke:none"
         id="path142"
         inkscape:connector-curvature="0" /></g><g
       id="g144"
       transform="translate(9.0005,443.9365)"><path
         d="m 0,0 0,-256.434 859.68,0 0,256.433 L 0,0 Z"
         style="fill:#ffffff;fill-opacity:1;fill-rule:nonzero;stroke:none"
         id="path146"
         inkscape:connector-curvature="0" /></g><g
       id="g148"
       transform="translate(822.3052,443.9375)"><path
         d="M 0,0 0,-110.929 17.84,-128.833 0,-146.736 l 0,-109.699 46.374,0 L 46.374,0 0,0 Z"
         style="fill:#eb663c;fill-opacity:1;fill-rule:nonzero;stroke:none"
         id="path150"
         inkscape:connector-curvature="0" /></g><path
       d="m 25.607,187.503 -16.607,0 0,256.435 16.607,0 0,-256.435 z"
       style="fill:#eb663c;fill-opacity:1;fill-rule:nonzero;stroke:none"
       id="path152"
       inkscape:connector-curvature="0" /><text
       transform="matrix(0.99647522,0,0,-1,821.9092,311.5576)"
       style="font-variant:normal;font-weight:normal;font-stretch:normal;font-size:9.9296999px;font-family:'Century Gothic';-inkscape-font-specification:CenturyGothic;writing-mode:lr-tb;fill:#3f5283;fill-opacity:1;fill-rule:nonzero;stroke:none"
       id="text154"><tspan
         x="0 5.5010538"
         y="0"
         sodipodi:role="line"
         id="tspan156">04</tspan></text>
<text
       transform="matrix(0.99649284,0,0,-1,100.2935,413.4082)"
       style="font-variant:normal;font-weight:bold;font-stretch:normal;font-size:17.02230072px;font-family:'Century Gothic';-inkscape-font-specification:CenturyGothic-Bold;writing-mode:lr-tb;fill:#3f5283;fill-opacity:1;fill-rule:nonzero;stroke:none"
       id="text158"><tspan
         x="0 7.4898119 18.384085 29.618801 40.513073 45.27932 58.556713 69.450981 73.536339 84.430611 89.877747 94.64399 106.5596 117.79432 123.24146 127.32681 138.56152 143.66821 147.75357 158.64784 168.86122"
         y="0"
         sodipodi:role="line"
         id="tspan160">Logo Color Variations</tspan></text>
<g
       transform="matrix(0.61043787,0,0,0.61043787,450.03001,678.17681)"
       id="g2995"><g
         id="g2997" /><g
         id="g3003"><g
           clip-path="url(#clipPath2999)"
           id="g3005"><path
             inkscape:connector-curvature="0"
             d="m 270.00635,-483.29688 0.81592,0 0,-3.708 c -0.15235,-0.0635 -0.4502,-0.14551 -0.89405,-0.24512 -0.44384,-0.10059 -0.99023,-0.15039 -1.63818,-0.15039 -0.54395,0 -1.04785,0.0957 -1.51172,0.28809 -0.46436,0.1914 -0.86621,0.46972 -1.20605,0.83398 -0.34034,0.36426 -0.60596,0.81543 -0.79786,1.35547 -0.19238,0.54004 -0.28808,1.1582 -0.28808,1.85449 0,0.69629 0.10351,1.31348 0.31201,1.85352 0.20801,0.54004 0.48975,0.99218 0.8457,1.35644 0.35596,0.36426 0.77002,0.6416 1.24219,0.83399 0.47168,0.19238 0.97607,0.28808 1.51172,0.28808 0.61621,0 1.12402,-0.0664 1.52441,-0.19824 0.39991,-0.13184 0.6919,-0.25781 0.87598,-0.37793 l -0.27637,-0.69629 c -0.22363,0.16016 -0.52783,0.29004 -0.91162,0.39063 -0.38428,0.0996 -0.80029,0.14941 -1.24805,0.14941 -0.41601,0 -0.8081,-0.0762 -1.17626,-0.22754 -0.36768,-0.15234 -0.68799,-0.37988 -0.95997,-0.68457 -0.27197,-0.30371 -0.48584,-0.67969 -0.64209,-1.12793 -0.15576,-0.44824 -0.23388,-0.96777 -0.23388,-1.55957 0,-0.55176 0.064,-1.0498 0.19189,-1.49414 0.12793,-0.44434 0.32227,-0.82422 0.58203,-1.13965 0.26026,-0.3164 0.58203,-0.55859 0.96631,-0.72656 0.38379,-0.16797 0.82764,-0.25195 1.33203,-0.25195 0.40772,0 0.75,0.0225 1.02588,0.0664 0.27588,0.0439 0.46192,0.0859 0.55811,0.12598 l 0,3.1914 z"
             id="path3007"
             style="fill:#918f90;fill-opacity:1;fill-rule:nonzero;stroke:none" /><path
             inkscape:connector-curvature="0"
             d="m 281.26221,-481.41211 c 0,-0.62402 -0.16407,-1.11621 -0.49219,-1.47656 -0.32813,-0.35938 -0.75977,-0.62012 -1.2959,-0.7793 0.12793,-0.16016 0.29395,-0.37695 0.49805,-0.64844 0.2041,-0.27246 0.41406,-0.57031 0.62988,-0.89355 0.21631,-0.32422 0.42822,-0.66211 0.63623,-1.01465 0.20801,-0.35156 0.38379,-0.6875 0.52783,-1.00781 l -0.87597,0 c -0.16797,0.32031 -0.3501,0.63965 -0.5459,0.95996 -0.19629,0.32031 -0.396,0.62988 -0.6001,0.92969 -0.2041,0.30078 -0.40185,0.57812 -0.59375,0.83398 -0.19238,0.25586 -0.36035,0.48047 -0.50439,0.67285 -0.25586,-0.0244 -0.51172,-0.0361 -0.76758,-0.0361 l -1.34424,0 0,-3.36035 -0.81592,0 0,8.16015 c 0.28809,0.0801 0.62598,0.1377 1.01416,0.17383 0.3877,0.0361 0.74561,0.0537 1.07373,0.0537 1.14405,0 2.00586,-0.21582 2.58594,-0.64746 0.58008,-0.43261 0.87012,-1.07226 0.87012,-1.91992 m -3.35987,1.85938 c -0.3042,0 -0.57031,-0.01 -0.79834,-0.0293 -0.22802,-0.0205 -0.41796,-0.0381 -0.56982,-0.0547 l 0,-3.54004 1.12793,0 c 0.37598,0 0.73193,0.0186 1.06787,0.0547 0.33643,0.0361 0.62793,0.11523 0.87598,0.23926 0.24804,0.12402 0.44433,0.30273 0.58838,0.53418 0.14404,0.23242 0.21582,0.54785 0.21582,0.94824 0,0.36816 -0.0718,0.67187 -0.21582,0.91211 -0.14405,0.24023 -0.33204,0.42969 -0.56397,0.57031 -0.23242,0.13965 -0.49805,0.23535 -0.79834,0.28711 -0.2998,0.0527 -0.60986,0.0781 -0.92969,0.0781 z"
             id="path3009"
             style="fill:#918f90;fill-opacity:1;fill-rule:nonzero;stroke:none" /><path
             inkscape:connector-curvature="0"
             d="m 292.07373,-487.23242 c -0.15869,0.4082 -0.30469,0.80078 -0.43799,1.17871 -0.1333,0.37695 -0.26025,0.74414 -0.38183,1.10156 l -4.0625,0 c -0.13868,-0.35937 -0.27491,-0.72754 -0.40772,-1.10547 -0.13281,-0.37695 -0.27344,-0.76855 -0.42139,-1.1748 l -0.85205,0 c 0.31543,0.86523 0.61377,1.67187 0.89502,2.41992 0.28077,0.74805 0.55616,1.45508 0.82618,2.12207 0.27001,0.66699 0.53857,1.30859 0.80468,1.92383 0.26612,0.61426 0.5459,1.23144 0.83985,1.85058 l 0.71923,0 c 0.29346,-0.61621 0.57178,-1.23242 0.83497,-1.84863 0.26318,-0.61621 0.53027,-1.25781 0.80127,-1.9248 0.27099,-0.66602 0.54589,-1.37403 0.82373,-2.12305 0.27832,-0.74902 0.58496,-1.55469 0.91894,-2.41992 l -0.90039,0 m -2.86182,7.37988 c -0.30078,-0.69043 -0.59375,-1.3916 -0.87939,-2.10254 -0.28516,-0.71094 -0.58008,-1.47851 -0.88525,-2.30176 l 3.54931,0 c -0.30713,0.82422 -0.60595,1.59278 -0.89697,2.30469 -0.29102,0.71192 -0.58691,1.41211 -0.8877,2.09961 z"
             id="path3011"
             style="fill:#918f90;fill-opacity:1;fill-rule:nonzero;stroke:none" /><path
             inkscape:connector-curvature="0"
             d="m 298.30225,-487.23242 0,3.41992 c -0.57032,0.87207 -1.09473,1.71387 -1.57227,2.52637 -0.47803,0.81152 -0.92187,1.60156 -1.33154,2.37011 l 0.94775,0 c 0.33692,-0.7041 0.70801,-1.41894 1.11279,-2.14257 0.40528,-0.72364 0.82813,-1.41407 1.26954,-2.07032 0.4248,0.65625 0.84179,1.34668 1.25097,2.07032 0.40918,0.72363 0.78565,1.43847 1.13086,2.14257 l 0.8877,0 c -0.42383,-0.76074 -0.8711,-1.55078 -1.34375,-2.37011 -0.47217,-0.82032 -0.98389,-1.6543 -1.53614,-2.50196 l 0,-3.44433 -0.81591,0 z"
             id="path3013"
             style="fill:#918f90;fill-opacity:1;fill-rule:nonzero;stroke:none" /><path
             inkscape:connector-curvature="0"
             d="m 307.97461,-486.7041 c 0.64746,0 1.15137,0.11816 1.51172,0.35449 0.35937,0.23633 0.53906,0.61914 0.53906,1.14844 0,0.30469 -0.0576,0.55957 -0.17383,0.76367 -0.11523,0.2041 -0.26953,0.37695 -0.46093,0.51758 -0.19336,0.13965 -0.41211,0.25976 -0.66016,0.35937 -0.24805,0.0996 -0.50879,0.20508 -0.78027,0.31641 -0.34473,0.13476 -0.65235,0.27344 -0.92481,0.41699 -0.27148,0.14356 -0.50391,0.30469 -0.69531,0.48438 -0.19141,0.18066 -0.33789,0.38574 -0.4375,0.61816 -0.10059,0.23242 -0.15039,0.50391 -0.15039,0.81641 0,0.71191 0.23633,1.25195 0.70801,1.62011 0.47168,0.36719 1.12793,0.55176 1.96777,0.55176 0.22363,0 0.44336,-0.0166 0.66016,-0.0478 0.21582,-0.0322 0.41796,-0.0742 0.60546,-0.12598 0.18848,-0.0527 0.36036,-0.11035 0.51661,-0.17382 0.15527,-0.0645 0.28613,-0.13282 0.38964,-0.20411 l -0.28808,-0.68457 c -0.23145,0.16016 -0.51465,0.28809 -0.84571,0.38379 -0.33203,0.0967 -0.69042,0.14453 -1.07421,0.14453 -0.26368,0 -0.50586,-0.0264 -0.72559,-0.0781 -0.2207,-0.0518 -0.41016,-0.13574 -0.57031,-0.25195 -0.16016,-0.11622 -0.28614,-0.26172 -0.37793,-0.43848 -0.0928,-0.17578 -0.1377,-0.3877 -0.1377,-0.63574 0,-0.25586 0.0478,-0.47168 0.14356,-0.64746 0.0967,-0.17676 0.22949,-0.32813 0.40136,-0.45606 0.17286,-0.12793 0.375,-0.24414 0.60743,-0.34863 0.23144,-0.10352 0.48339,-0.21192 0.75586,-0.32324 0.32714,-0.13672 0.63671,-0.27246 0.92968,-0.40821 0.29102,-0.13672 0.5459,-0.2959 0.76172,-0.48047 0.21582,-0.18359 0.38867,-0.4082 0.51563,-0.67187 0.1289,-0.26367 0.19238,-0.58789 0.19238,-0.97168 0,-0.75195 -0.2627,-1.31641 -0.78613,-1.69238 -0.52344,-0.37598 -1.23438,-0.56348 -2.12989,-0.56348 -0.31933,0 -0.6123,0.0195 -0.87597,0.0596 -0.26367,0.04 -0.5,0.0898 -0.70801,0.15039 -0.20801,0.0596 -0.38379,0.12207 -0.52832,0.18555 -0.14356,0.0644 -0.25586,0.12012 -0.33594,0.16797 l 0.26367,0.708 c 0.0801,-0.0479 0.18848,-0.10351 0.32422,-0.16796 0.13672,-0.0635 0.29688,-0.12598 0.48047,-0.18555 0.1836,-0.0605 0.3916,-0.11035 0.62402,-0.15039 0.23145,-0.04 0.48731,-0.0596 0.76856,-0.0596 z"
             id="path3015"
             style="fill:#918f90;fill-opacity:1;fill-rule:nonzero;stroke:none" /><path
             inkscape:connector-curvature="0"
             d="m 318.8457,-487.41211 c -0.53515,0 -1.0332,0.0957 -1.49414,0.28809 -0.45898,0.1914 -0.85937,0.47168 -1.19922,0.83984 -0.33984,0.36719 -0.60839,0.82129 -0.80468,1.36133 -0.19532,0.54004 -0.29297,1.1582 -0.29297,1.85449 0,0.69629 0.10547,1.31348 0.31738,1.85352 0.21191,0.54004 0.49316,0.99414 0.84668,1.3623 0.35156,0.36816 0.75977,0.64649 1.22266,0.83399 0.46484,0.18847 0.94922,0.28222 1.45312,0.28222 0.31152,0 0.5957,-0.0205 0.85156,-0.0605 0.25586,-0.04 0.48047,-0.0898 0.67188,-0.14941 0.19141,-0.0606 0.35547,-0.12012 0.49219,-0.17969 0.13574,-0.0605 0.24023,-0.11425 0.3125,-0.16211 l -0.26465,-0.708 c -0.2002,0.12011 -0.4541,0.2373 -0.76172,0.35351 -0.30762,0.11621 -0.69043,0.17383 -1.14551,0.17383 -0.52148,0 -0.97461,-0.0879 -1.36328,-0.26367 -0.3877,-0.17578 -0.71289,-0.42383 -0.97754,-0.74414 -0.26367,-0.32032 -0.46191,-0.7002 -0.59375,-1.13965 -0.13183,-0.44043 -0.19824,-0.92871 -0.19824,-1.46387 0,-0.55273 0.0664,-1.05078 0.19824,-1.49414 0.13184,-0.44433 0.3252,-0.82226 0.58203,-1.13379 0.25586,-0.3125 0.56934,-0.55273 0.94239,-0.7207 0.37109,-0.16797 0.79687,-0.25195 1.27734,-0.25195 0.52832,0 0.9707,0.0498 1.32617,0.15039 0.35547,0.0996 0.62598,0.20214 0.81055,0.30566 l 0.22754,-0.69629 c -0.0557,-0.04 -0.15235,-0.0859 -0.28809,-0.13769 -0.13672,-0.0518 -0.30859,-0.10547 -0.51562,-0.16211 -0.20899,-0.0557 -0.44922,-0.10157 -0.72071,-0.1377 -0.27148,-0.0361 -0.57617,-0.0537 -0.91211,-0.0537 z"
             id="path3017"
             style="fill:#918f90;fill-opacity:1;fill-rule:nonzero;stroke:none" /><path
             inkscape:connector-curvature="0"
             d="m 331.56543,-487.23242 c -0.15918,0.4082 -0.30469,0.80078 -0.43848,1.17871 -0.13281,0.37695 -0.25976,0.74414 -0.38086,1.10156 l -4.0625,0 c -0.13867,-0.35937 -0.27539,-0.72754 -0.4082,-1.10547 -0.13281,-0.37695 -0.27344,-0.76855 -0.42187,-1.1748 l -0.85157,0 c 0.31543,0.86523 0.61328,1.67187 0.89453,2.41992 0.28125,0.74805 0.55665,1.45508 0.82618,2.12207 0.2705,0.66699 0.53906,1.30859 0.80468,1.92383 0.26661,0.61426 0.54688,1.23144 0.83985,1.85058 l 0.71972,0 c 0.29395,-0.61621 0.57129,-1.23242 0.83497,-1.84863 0.26367,-0.61621 0.53027,-1.25781 0.80078,-1.9248 0.27148,-0.66602 0.54687,-1.37403 0.82422,-2.12305 0.27832,-0.74902 0.58496,-1.55469 0.91894,-2.41992 l -0.90039,0 m -2.8623,7.37988 c -0.30079,-0.69043 -0.59375,-1.3916 -0.87891,-2.10254 -0.28516,-0.71094 -0.58008,-1.47851 -0.88477,-2.30176 l 3.54883,0 c -0.30664,0.82422 -0.60547,1.59278 -0.89648,2.30469 -0.29102,0.71192 -0.58789,1.41211 -0.88867,2.09961 z"
             id="path3019"
             style="fill:#918f90;fill-opacity:1;fill-rule:nonzero;stroke:none" /><path
             inkscape:connector-curvature="0"
             d="m 341.38086,-486.52441 0,-0.70801 -4.72656,0 0,8.3164 0.8164,0 0,-7.60839 3.91016,0 z"
             id="path3021"
             style="fill:#918f90;fill-opacity:1;fill-rule:nonzero;stroke:none" /><path
             inkscape:connector-curvature="0"
             d="m 345.67773,-487.23242 0,8.3164 4.80079,0 0,-0.708 -3.98438,0 0,-2.89258 3.55274,0 0,-0.69629 -3.55274,0 0,-3.31152 4.29688,0 0,-0.70801 -5.11329,0 z"
             id="path3023"
             style="fill:#918f90;fill-opacity:1;fill-rule:nonzero;stroke:none" /><path
             inkscape:connector-curvature="0"
             d="m 260.39209,-483.09375 -228.5,0"
             id="path3025"
             style="fill:none;stroke:#918f90;stroke-width:0.5;stroke-linecap:butt;stroke-linejoin:miter;stroke-miterlimit:10;stroke-dasharray:none;stroke-opacity:1" /><path
             inkscape:connector-curvature="0"
             d="m 582.10742,-483.09375 -228.5,0"
             id="path3027"
             style="fill:none;stroke:#918f90;stroke-width:0.5;stroke-linecap:butt;stroke-linejoin:miter;stroke-miterlimit:10;stroke-dasharray:none;stroke-opacity:1" /></g></g></g><g
       transform="matrix(0.57672073,0,0,0.57672073,67.916464,477.59629)"
       id="g3029"><g
         id="g3031" /><g
         id="g3037"><g
           clip-path="url(#clipPath3033)"
           id="g3039"><path
             inkscape:connector-curvature="0"
             d="m 237.97266,-162.37988 c 0,-0.71192 -0.11231,-1.33203 -0.33594,-1.86035 -0.22412,-0.52735 -0.53858,-0.96778 -0.94238,-1.31934 -0.40381,-0.35254 -0.88575,-0.61621 -1.4458,-0.79199 -0.56006,-0.17676 -1.17627,-0.26465 -1.84815,-0.26465 -0.33594,0 -0.68799,0.0186 -1.05615,0.0547 -0.36768,0.0352 -0.6919,0.0898 -0.97168,0.16113 l 0,8.0166 c 0.27978,0.0801 0.604,0.1377 0.97168,0.17383 0.36816,0.0361 0.72021,0.0537 1.05615,0.0537 0.67188,0 1.28809,-0.0879 1.84815,-0.26367 0.56005,-0.17578 1.04199,-0.44043 1.4458,-0.79199 0.4038,-0.35254 0.71826,-0.792 0.94238,-1.32032 0.22363,-0.52734 0.33594,-1.14355 0.33594,-1.84765 m -5.78418,-3.44434 c 0.0479,-0.008 0.16992,-0.0234 0.36621,-0.0479 0.1958,-0.0234 0.50976,-0.0361 0.94189,-0.0361 0.6001,0 1.12354,0.082 1.57178,0.24609 0.44824,0.16406 0.82422,0.39844 1.12793,0.70215 0.3042,0.30371 0.53223,0.67383 0.68408,1.11035 0.15186,0.43555 0.22803,0.92578 0.22803,1.46973 0,0.54394 -0.0762,1.03222 -0.22803,1.46386 -0.15185,0.43164 -0.37988,0.79981 -0.68408,1.1045 -0.30371,0.30371 -0.67969,0.53711 -1.12793,0.70117 -0.44824,0.16406 -0.97168,0.24609 -1.57178,0.24609 -0.43213,0 -0.74609,-0.0117 -0.94189,-0.0361 -0.19629,-0.0234 -0.31836,-0.04 -0.36621,-0.0479 l 0,-6.87598 z"
             id="path3041"
             style="fill:#918f90;fill-opacity:1;fill-rule:nonzero;stroke:none" /><path
             inkscape:connector-curvature="0"
             d="m 248.3042,-166.54395 c -0.15869,0.40821 -0.30469,0.80079 -0.43799,1.17872 -0.1333,0.37695 -0.26025,0.74414 -0.38183,1.10156 l -4.0625,0 c -0.13868,-0.35938 -0.27491,-0.72754 -0.40772,-1.10547 -0.13281,-0.37695 -0.27344,-0.76856 -0.42139,-1.17481 l -0.85205,0 c 0.31543,0.86524 0.61377,1.67188 0.89502,2.41993 0.28076,0.74804 0.55615,1.45507 0.82617,2.12207 0.27002,0.66699 0.53858,1.30859 0.80469,1.92382 0.26611,0.61426 0.5459,1.23145 0.83985,1.85059 l 0.71923,0 c 0.29346,-0.61621 0.57178,-1.23242 0.83496,-1.84863 0.26319,-0.61621 0.53028,-1.25781 0.80127,-1.92481 0.271,-0.66601 0.5459,-1.37402 0.82373,-2.12304 0.27832,-0.74903 0.58497,-1.55469 0.91895,-2.41993 l -0.90039,0 m -2.86182,7.37989 c -0.30078,-0.69043 -0.59375,-1.3916 -0.87939,-2.10254 -0.28516,-0.71094 -0.58008,-1.47852 -0.88526,-2.30176 l 3.54932,0 c -0.30713,0.82422 -0.60596,1.59277 -0.89697,2.30469 -0.29102,0.71191 -0.58692,1.41211 -0.8877,2.09961 z"
             id="path3043"
             style="fill:#918f90;fill-opacity:1;fill-rule:nonzero;stroke:none" /><path
             inkscape:connector-curvature="0"
             d="m 258.93604,-160.72363 c 0,-0.62403 -0.16407,-1.11621 -0.49219,-1.47657 -0.32813,-0.35937 -0.75977,-0.62011 -1.2959,-0.77929 0.12793,-0.16016 0.29394,-0.37696 0.49805,-0.64844 0.2041,-0.27246 0.41406,-0.57031 0.62988,-0.89355 0.21631,-0.32422 0.42822,-0.66211 0.63623,-1.01465 0.20801,-0.35157 0.38379,-0.6875 0.52783,-1.00782 l -0.87598,0 c -0.16796,0.32032 -0.35009,0.63965 -0.54589,0.95997 -0.19629,0.32031 -0.396,0.62988 -0.6001,0.92968 -0.2041,0.30078 -0.40186,0.57813 -0.59375,0.83399 -0.19238,0.25586 -0.36035,0.48047 -0.5044,0.67285 -0.25586,-0.0244 -0.51171,-0.0361 -0.76757,-0.0361 l -1.34424,0 0,-3.36036 -0.81592,0 0,8.16016 c 0.28809,0.0801 0.62598,0.1377 1.01416,0.17383 0.3877,0.0361 0.74561,0.0537 1.07373,0.0537 1.14404,0 2.00586,-0.21582 2.58594,-0.64746 0.58008,-0.43262 0.87012,-1.07227 0.87012,-1.91992 m -3.35987,1.85937 c -0.3042,0 -0.57031,-0.01 -0.79834,-0.0293 -0.22803,-0.0205 -0.41797,-0.0381 -0.56982,-0.0547 l 0,-3.54004 1.12793,0 c 0.37597,0 0.73193,0.0186 1.06787,0.0547 0.33642,0.0361 0.62793,0.11523 0.87598,0.23925 0.24804,0.12403 0.44433,0.30274 0.58837,0.53418 0.14405,0.23243 0.21582,0.54786 0.21582,0.94825 0,0.36816 -0.0718,0.67187 -0.21582,0.91211 -0.14404,0.24023 -0.33203,0.42968 -0.56396,0.57031 -0.23242,0.13965 -0.49805,0.23535 -0.79834,0.28711 -0.29981,0.0527 -0.60986,0.0781 -0.92969,0.0781 z"
             id="path3045"
             style="fill:#918f90;fill-opacity:1;fill-rule:nonzero;stroke:none" /><path
             inkscape:connector-curvature="0"
             d="m 268.88379,-166.54395 c -0.27197,0.417 -0.57764,0.82911 -0.91797,1.23731 -0.33984,0.40918 -0.69775,0.79394 -1.07373,1.1543 -0.37598,0.36035 -0.7583,0.68847 -1.146,0.98535 -0.38818,0.2959 -0.7622,0.54492 -1.12207,0.74511 l 0,-4.12207 -0.81591,0 0,8.31641 0.81591,0 0,-3.87012 c 0.3042,0.27149 0.64258,0.58496 1.01465,0.94043 0.37207,0.35547 0.74072,0.71289 1.10498,1.07227 0.36426,0.35937 0.70655,0.70312 1.02686,1.03027 0.32031,0.32715 0.57617,0.60352 0.76855,0.82715 l 0.98389,0 c -0.23193,-0.24805 -0.51221,-0.54199 -0.84033,-0.88086 -0.32862,-0.33984 -0.67676,-0.68945 -1.04492,-1.04883 -0.36866,-0.35937 -0.73487,-0.71289 -1.09913,-1.06054 -0.36425,-0.34668 -0.69043,-0.65235 -0.97851,-0.91602 0.23193,-0.14453 0.48193,-0.32226 0.75,-0.53516 0.26807,-0.21191 0.54004,-0.44433 0.81592,-0.69628 0.27588,-0.25293 0.54785,-0.51758 0.81591,-0.79395 0.26807,-0.27637 0.52002,-0.55469 0.75635,-0.83496 0.23584,-0.28027 0.44776,-0.55274 0.63574,-0.81641 0.18799,-0.26465 0.34229,-0.50879 0.46192,-0.7334 l -0.91211,0 z"
             id="path3047"
             style="fill:#918f90;fill-opacity:1;fill-rule:nonzero;stroke:none" /><path
             inkscape:connector-curvature="0"
             d="m 281.72363,-166.61621 c -0.13574,0 -0.29394,0.006 -0.47363,0.0186 -0.18018,0.0117 -0.36426,0.0283 -0.55225,0.0479 -0.18798,0.0195 -0.36572,0.0439 -0.53369,0.0723 -0.16797,0.0273 -0.31201,0.0576 -0.43213,0.0898 l 0,8.00391 c 0.14405,0.04 0.30371,0.0732 0.47998,0.10156 0.17579,0.0283 0.35791,0.0518 0.5459,0.0723 0.18799,0.0195 0.37207,0.0342 0.55225,0.042 0.17969,0.008 0.3457,0.0117 0.49756,0.0117 0.44824,0 0.87402,-0.0361 1.27832,-0.10742 0.40381,-0.0723 0.75781,-0.19238 1.06201,-0.35938 0.30371,-0.16797 0.5459,-0.38965 0.72607,-0.66504 0.17969,-0.27539 0.27002,-0.61718 0.27002,-1.02441 0,-0.44727 -0.11425,-0.8291 -0.34228,-1.14453 -0.22803,-0.31543 -0.53369,-0.5332 -0.91797,-0.65332 0.24023,-0.0557 0.45996,-0.13574 0.66016,-0.24024 0.1997,-0.10351 0.37597,-0.23828 0.52783,-0.40234 0.15185,-0.16406 0.27002,-0.36426 0.354,-0.60059 0.084,-0.23632 0.12598,-0.51855 0.12598,-0.84765 0,-0.78418 -0.31201,-1.38379 -0.93604,-1.7959 -0.62402,-0.41309 -1.58789,-0.61914 -2.89209,-0.61914 m -1.17578,4.76465 1.58399,0 c 0.29589,0 0.57617,0.0215 0.83984,0.0654 0.26416,0.0439 0.49414,0.12304 0.68994,0.23925 0.19629,0.11524 0.3501,0.27051 0.4624,0.46583 0.11182,0.19531 0.16797,0.44433 0.16797,0.74707 0,0.2705 -0.0601,0.5 -0.18017,0.6875 -0.12012,0.18652 -0.29004,0.33984 -0.50977,0.45996 -0.22021,0.11914 -0.48242,0.20507 -0.78613,0.25683 -0.3042,0.0518 -0.64014,0.0781 -1.0083,0.0781 -0.2959,0 -0.5459,-0.009 -0.75,-0.0244 -0.20362,-0.0156 -0.37403,-0.0361 -0.50977,-0.0596 l 0,-2.91601 m 0,-0.69629 0,-3.28809 c 0.12012,-0.0166 0.29981,-0.0342 0.54004,-0.0537 0.23975,-0.0205 0.48389,-0.0303 0.73193,-0.0303 0.36768,0 0.72608,0.0244 1.07422,0.0723 0.34766,0.0479 0.65381,0.13672 0.91797,0.26465 0.26367,0.12891 0.47559,0.30567 0.63574,0.53028 0.16016,0.2246 0.24024,0.51367 0.24024,0.86718 0,0.32032 -0.0562,0.58789 -0.16797,0.80078 -0.11231,0.21289 -0.27246,0.38086 -0.47998,0.50586 -0.2085,0.12403 -0.4624,0.20996 -0.76221,0.25879 -0.2998,0.0478 -0.63428,0.0723 -1.00195,0.0723 l -1.72803,0 z"
             id="path3049"
             style="fill:#918f90;fill-opacity:1;fill-rule:nonzero;stroke:none" /><path
             inkscape:connector-curvature="0"
             d="m 295.896,-166.54395 c -0.1587,0.40821 -0.30469,0.80079 -0.43799,1.17872 -0.1333,0.37695 -0.26026,0.74414 -0.38184,1.10156 l -4.0625,0 c -0.13867,-0.35938 -0.2749,-0.72754 -0.40771,-1.10547 -0.13282,-0.37695 -0.27344,-0.76856 -0.42139,-1.17481 l -0.85205,0 c 0.31543,0.86524 0.61377,1.67188 0.89502,2.41993 0.28076,0.74804 0.55615,1.45507 0.82617,2.12207 0.27002,0.66699 0.53858,1.30859 0.80469,1.92382 0.26611,0.61426 0.5459,1.23145 0.83984,1.85059 l 0.71924,0 c 0.29346,-0.61621 0.57178,-1.23242 0.83496,-1.84863 0.26319,-0.61621 0.53027,-1.25781 0.80127,-1.92481 0.271,-0.66601 0.5459,-1.37402 0.82373,-2.12304 0.27832,-0.74903 0.58496,-1.55469 0.91895,-2.41993 l -0.90039,0 m -2.86182,7.37989 c -0.30078,-0.69043 -0.59375,-1.3916 -0.87939,-2.10254 -0.28516,-0.71094 -0.58008,-1.47852 -0.88526,-2.30176 l 3.54932,0 c -0.30713,0.82422 -0.60596,1.59277 -0.89697,2.30469 -0.29102,0.71191 -0.58692,1.41211 -0.8877,2.09961 z"
             id="path3051"
             style="fill:#918f90;fill-opacity:1;fill-rule:nonzero;stroke:none" /><path
             inkscape:connector-curvature="0"
             d="m 304.34375,-166.72363 c -0.53516,0 -1.0332,0.0957 -1.49414,0.28808 -0.45898,0.19141 -0.85938,0.47168 -1.19922,0.83985 -0.33984,0.36718 -0.6084,0.82129 -0.8042,1.36132 -0.19629,0.54004 -0.29394,1.15821 -0.29394,1.8545 0,0.69629 0.10595,1.31347 0.31787,1.85351 0.21191,0.54004 0.49316,0.99414 0.84668,1.36231 0.35156,0.36816 0.75976,0.64648 1.22265,0.83398 0.46485,0.18848 0.94922,0.28223 1.45313,0.28223 0.31152,0 0.5957,-0.0205 0.85156,-0.0605 0.25586,-0.04 0.48047,-0.0898 0.67188,-0.14941 0.1914,-0.0606 0.35546,-0.12012 0.49218,-0.17969 0.13575,-0.0606 0.24024,-0.11426 0.3125,-0.16211 l -0.26465,-0.70801 c -0.20019,0.12012 -0.4541,0.23731 -0.76171,0.35352 -0.30762,0.11621 -0.69043,0.17383 -1.14551,0.17383 -0.52149,0 -0.97461,-0.0879 -1.36328,-0.26368 -0.3877,-0.17578 -0.71289,-0.42382 -0.97754,-0.74414 -0.26367,-0.32031 -0.46192,-0.70019 -0.59375,-1.13964 -0.13184,-0.44043 -0.19824,-0.92872 -0.19824,-1.46387 0,-0.55274 0.0664,-1.05078 0.19824,-1.49414 0.13183,-0.44434 0.32519,-0.82227 0.58203,-1.13379 0.25586,-0.3125 0.56934,-0.55274 0.94238,-0.7207 0.3711,-0.16797 0.79688,-0.25196 1.27735,-0.25196 0.52832,0 0.9707,0.0498 1.32617,0.15039 0.35547,0.0996 0.62597,0.20215 0.81054,0.30567 l 0.22754,-0.69629 c -0.0557,-0.04 -0.15234,-0.0859 -0.28808,-0.1377 -0.13672,-0.0518 -0.3086,-0.10547 -0.51563,-0.16211 -0.20898,-0.0557 -0.44922,-0.10156 -0.7207,-0.13769 -0.27148,-0.0361 -0.57617,-0.0537 -0.91211,-0.0537 z"
             id="path3053"
             style="fill:#918f90;fill-opacity:1;fill-rule:nonzero;stroke:none" /><path
             inkscape:connector-curvature="0"
             d="m 316.27148,-166.54395 c -0.27148,0.417 -0.57714,0.82911 -0.91796,1.23731 -0.33985,0.40918 -0.69727,0.79394 -1.07325,1.1543 -0.37597,0.36035 -0.75879,0.68847 -1.1455,0.98535 -0.38868,0.2959 -0.7627,0.54492 -1.12305,0.74511 l 0,-4.12207 -0.81543,0 0,8.31641 0.81543,0 0,-3.87012 c 0.30469,0.27149 0.64258,0.58496 1.01562,0.94043 0.3711,0.35547 0.74024,0.71289 1.1045,1.07227 0.36425,0.35937 0.70605,0.70312 1.02636,1.03027 0.32032,0.32715 0.57618,0.60352 0.76953,0.82715 l 0.9834,0 c -0.23144,-0.24805 -0.51269,-0.54199 -0.84082,-0.88086 -0.32812,-0.33984 -0.67578,-0.68945 -1.04492,-1.04883 -0.36816,-0.35937 -0.73437,-0.71289 -1.09863,-1.06054 -0.36426,-0.34668 -0.69043,-0.65235 -0.97852,-0.91602 0.23145,-0.14453 0.48145,-0.32226 0.75,-0.53516 0.26856,-0.21191 0.54004,-0.44433 0.81543,-0.69628 0.27637,-0.25293 0.54883,-0.51758 0.81641,-0.79395 0.26758,-0.27637 0.51953,-0.55469 0.75586,-0.83496 0.23633,-0.28027 0.44824,-0.55274 0.63672,-0.81641 0.1875,-0.26465 0.34179,-0.50879 0.46093,-0.7334 l -0.91211,0 z"
             id="path3055"
             style="fill:#918f90;fill-opacity:1;fill-rule:nonzero;stroke:none" /><path
             inkscape:connector-curvature="0"
             d="m 326.28027,-162.6084 0.81543,0 0,-3.70801 c -0.15234,-0.0635 -0.44922,-0.1455 -0.89355,-0.24511 -0.44434,-0.10059 -0.99024,-0.15039 -1.6377,-0.15039 -0.54492,0 -1.04882,0.0957 -1.51172,0.28808 -0.46484,0.19141 -0.86718,0.46973 -1.20703,0.83399 -0.33984,0.36425 -0.60547,0.81543 -0.79687,1.35546 -0.19336,0.54004 -0.28906,1.15821 -0.28906,1.8545 0,0.69629 0.10351,1.31347 0.3125,1.85351 0.208,0.54004 0.49023,0.99219 0.8457,1.35645 0.35547,0.36426 0.76953,0.6416 1.24219,0.83398 0.47168,0.19239 0.97656,0.28809 1.51172,0.28809 0.61621,0 1.12402,-0.0664 1.52441,-0.19824 0.39941,-0.13184 0.69238,-0.25782 0.87598,-0.37793 l -0.27637,-0.69629 c -0.22363,0.16015 -0.52832,0.29004 -0.91113,0.39062 -0.38477,0.0996 -0.80079,0.14942 -1.24805,0.14942 -0.41602,0 -0.80859,-0.0762 -1.17676,-0.22754 -0.36816,-0.15235 -0.68848,-0.37989 -0.95996,-0.68457 -0.27148,-0.30371 -0.48633,-0.67969 -0.64258,-1.12793 -0.15527,-0.44824 -0.2334,-0.96778 -0.2334,-1.55957 0,-0.55176 0.0635,-1.04981 0.19239,-1.49414 0.12695,-0.44434 0.32226,-0.82422 0.58203,-1.13965 0.25976,-0.31641 0.58203,-0.5586 0.96582,-0.72656 0.38379,-0.16797 0.82715,-0.25196 1.33203,-0.25196 0.40723,0 0.75,0.0225 1.02637,0.0664 0.27539,0.0439 0.46093,0.0859 0.55761,0.12598 l 0,3.1914 z"
             id="path3057"
             style="fill:#918f90;fill-opacity:1;fill-rule:nonzero;stroke:none" /><path
             inkscape:connector-curvature="0"
             d="m 337.53711,-160.72363 c 0,-0.62403 -0.16406,-1.11621 -0.49219,-1.47657 -0.32812,-0.35937 -0.75976,-0.62011 -1.29687,-0.77929 0.1289,-0.16016 0.29492,-0.37696 0.49804,-0.64844 0.20508,-0.27246 0.41407,-0.57031 0.63086,-0.89355 0.21582,-0.32422 0.42774,-0.66211 0.63477,-1.01465 0.20898,-0.35157 0.38476,-0.6875 0.5293,-1.00782 l -0.87696,0 c -0.16797,0.32032 -0.34961,0.63965 -0.54492,0.95997 -0.19726,0.32031 -0.39648,0.62988 -0.60059,0.92968 -0.2041,0.30078 -0.40136,0.57813 -0.59375,0.83399 -0.19238,0.25586 -0.36035,0.48047 -0.50488,0.67285 -0.25586,-0.0244 -0.51172,-0.0361 -0.76758,-0.0361 l -1.34375,0 0,-3.36036 -0.8164,0 0,8.16016 c 0.28906,0.0801 0.62695,0.1377 1.01465,0.17383 0.38769,0.0361 0.74511,0.0537 1.07324,0.0537 1.14453,0 2.00586,-0.21582 2.58594,-0.64746 0.58007,-0.43262 0.87109,-1.07227 0.87109,-1.91992 m -3.36035,1.85937 c -0.30371,0 -0.57031,-0.01 -0.79785,-0.0293 -0.22852,-0.0205 -0.41797,-0.0381 -0.57032,-0.0547 l 0,-3.54004 1.12793,0 c 0.37598,0 0.73145,0.0186 1.06739,0.0547 0.33691,0.0361 0.6289,0.11523 0.87695,0.23925 0.24805,0.12403 0.44336,0.30274 0.58789,0.53418 0.14453,0.23243 0.21582,0.54786 0.21582,0.94825 0,0.36816 -0.0713,0.67187 -0.21582,0.91211 -0.14453,0.24023 -0.33203,0.42968 -0.56445,0.57031 -0.23242,0.13965 -0.49805,0.23535 -0.79785,0.28711 -0.29981,0.0527 -0.61036,0.0781 -0.92969,0.0781 z"
             id="path3059"
             style="fill:#918f90;fill-opacity:1;fill-rule:nonzero;stroke:none" /><path
             inkscape:connector-curvature="0"
             d="m 349.87305,-162.37988 c 0,-0.71192 -0.10547,-1.33985 -0.3125,-1.88379 -0.20899,-0.54395 -0.49024,-0.99805 -0.84571,-1.36231 -0.35546,-0.36425 -0.76953,-0.63769 -1.24218,-0.82226 -0.47266,-0.1836 -0.97266,-0.27539 -1.5,-0.27539 -0.52735,0 -1.02735,0.0918 -1.5,0.27539 -0.47266,0.18457 -0.88672,0.45801 -1.24219,0.82226 -0.35547,0.36426 -0.63867,0.81836 -0.8457,1.36231 -0.20899,0.54394 -0.3125,1.17187 -0.3125,1.88379 0,0.71191 0.10351,1.33789 0.3125,1.87793 0.20703,0.54004 0.49023,0.99218 0.8457,1.35644 0.35547,0.36328 0.76953,0.6377 1.24219,0.82129 0.47265,0.18457 0.97265,0.27637 1.5,0.27637 0.52734,0 1.02734,-0.0918 1.5,-0.27637 0.47265,-0.18359 0.88672,-0.45801 1.24218,-0.82129 0.35547,-0.36426 0.63672,-0.8164 0.84571,-1.35644 0.20703,-0.54004 0.3125,-1.16602 0.3125,-1.87793 m -0.86524,0 c 0,0.55957 -0.0703,1.06152 -0.21484,1.50586 -0.14453,0.44433 -0.34766,0.82226 -0.61328,1.13379 -0.26367,0.3125 -0.58203,0.5498 -0.95313,0.71386 -0.37109,0.16407 -0.79101,0.2461 -1.2539,0.2461 -0.46485,0 -0.88282,-0.082 -1.25391,-0.2461 -0.37305,-0.16406 -0.68945,-0.40136 -0.95508,-0.71386 -0.26367,-0.31153 -0.46679,-0.68946 -0.61133,-1.13379 -0.14453,-0.44434 -0.21484,-0.94629 -0.21484,-1.50586 0,-0.56055 0.0703,-1.0625 0.21484,-1.50586 0.14454,-0.44434 0.34766,-0.82227 0.61133,-1.13379 0.26563,-0.3125 0.58203,-0.55274 0.95508,-0.7207 0.37109,-0.16797 0.78906,-0.25196 1.25391,-0.25196 0.46289,0 0.88281,0.084 1.2539,0.25196 0.3711,0.16796 0.68946,0.4082 0.95313,0.7207 0.26562,0.31152 0.46875,0.68945 0.61328,1.13379 0.14453,0.44336 0.21484,0.94531 0.21484,1.50586 z"
             id="path3061"
             style="fill:#918f90;fill-opacity:1;fill-rule:nonzero;stroke:none" /><path
             inkscape:connector-curvature="0"
             d="m 357.69727,-166.72363 c -0.55274,0 -1.02344,0.084 -1.41016,0.25195 -0.38867,0.16797 -0.70313,0.39941 -0.94336,0.69531 -0.23828,0.2959 -0.41211,0.64258 -0.52148,1.03809 -0.10743,0.39648 -0.16211,0.82226 -0.16211,1.27832 l 0,5.23242 0.8164,0 0,-5.12402 c 0,-0.45606 0.0547,-0.85059 0.16211,-1.18262 0.10742,-0.33203 0.25781,-0.60547 0.44922,-0.82129 0.19336,-0.2168 0.42383,-0.37695 0.69727,-0.48047 0.27148,-0.10449 0.57617,-0.15625 0.91211,-0.15625 0.33593,0 0.63867,0.0518 0.91211,0.15625 0.27148,0.10352 0.5039,0.26367 0.69531,0.48047 0.1914,0.21582 0.34179,0.48926 0.44922,0.82129 0.10937,0.33203 0.16211,0.72656 0.16211,1.18262 l 0,5.12402 0.8164,0 0,-5.23242 c 0,-0.45606 -0.0547,-0.88184 -0.16211,-1.27832 -0.10742,-0.39551 -0.28125,-0.74219 -0.52148,-1.03809 -0.24024,-0.2959 -0.55469,-0.52734 -0.94141,-0.69531 -0.38867,-0.16797 -0.85937,-0.25195 -1.41015,-0.25195 z"
             id="path3063"
             style="fill:#918f90;fill-opacity:1;fill-rule:nonzero;stroke:none" /><path
             inkscape:connector-curvature="0"
             d="m 371.52148,-166.54395 c -0.15429,0.27832 -0.34765,0.60645 -0.58203,0.98438 -0.23242,0.37793 -0.49218,0.7793 -0.77734,1.2041 -0.2832,0.42481 -0.58203,0.86426 -0.89063,1.31738 -0.31054,0.45313 -0.61914,0.89454 -0.92578,1.32325 -0.30664,0.42871 -0.60742,0.83007 -0.90234,1.20507 -0.29297,0.37403 -0.55469,0.69825 -0.7832,0.97071 l 0,-7.00489 -0.80274,0 0,8.31641 0.64649,0 c 0.41015,-0.45605 0.84765,-0.98242 1.3125,-1.5791 0.46679,-0.59766 0.92382,-1.20606 1.37304,-1.82617 0.44922,-0.61914 0.86719,-1.22461 1.25586,-1.81641 0.38867,-0.5918 0.70703,-1.10742 0.95508,-1.54687 l 0,6.76855 0.80469,0 0,-8.31641 -0.6836,0 z"
             id="path3065"
             style="fill:#918f90;fill-opacity:1;fill-rule:nonzero;stroke:none" /><path
             inkscape:connector-curvature="0"
             d="m 383.96484,-162.37988 c 0,-0.71192 -0.11132,-1.33203 -0.33593,-1.86035 -0.22461,-0.52735 -0.53907,-0.96778 -0.94141,-1.31934 -0.4043,-0.35254 -0.88672,-0.61621 -1.44727,-0.79199 -0.56054,-0.17676 -1.17578,-0.26465 -1.84765,-0.26465 -0.33594,0 -0.6875,0.0186 -1.05664,0.0547 -0.36719,0.0352 -0.69141,0.0898 -0.97071,0.16113 l 0,8.0166 c 0.2793,0.0801 0.60352,0.1377 0.97071,0.17383 0.36914,0.0361 0.7207,0.0537 1.05664,0.0537 0.67187,0 1.28711,-0.0879 1.84765,-0.26367 0.56055,-0.17578 1.04297,-0.44043 1.44727,-0.79199 0.40234,-0.35254 0.7168,-0.792 0.94141,-1.32032 0.22461,-0.52734 0.33593,-1.14355 0.33593,-1.84765 m -5.7832,-3.44434 c 0.0469,-0.008 0.16797,-0.0234 0.36524,-0.0479 0.19531,-0.0234 0.50976,-0.0361 0.9414,-0.0361 0.59961,0 1.125,0.082 1.57227,0.24609 0.44726,0.16406 0.82422,0.39844 1.1289,0.70215 0.30274,0.30371 0.53125,0.67383 0.6836,1.11035 0.15234,0.43555 0.22851,0.92578 0.22851,1.46973 0,0.54394 -0.0762,1.03222 -0.22851,1.46386 -0.15235,0.43164 -0.38086,0.79981 -0.6836,1.1045 -0.30468,0.30371 -0.68164,0.53711 -1.1289,0.70117 -0.44727,0.16406 -0.97266,0.24609 -1.57227,0.24609 -0.43164,0 -0.74609,-0.0117 -0.9414,-0.0361 -0.19727,-0.0234 -0.31836,-0.04 -0.36524,-0.0479 l 0,-6.87598 z"
             id="path3067"
             style="fill:#918f90;fill-opacity:1;fill-rule:nonzero;stroke:none" /><path
             inkscape:connector-curvature="0"
             d="m 220.39209,-162.40527 -188.5,0"
             id="path3069"
             style="fill:none;stroke:#918f90;stroke-width:0.5;stroke-linecap:butt;stroke-linejoin:miter;stroke-miterlimit:10;stroke-dasharray:none;stroke-opacity:1" /><path
             inkscape:connector-curvature="0"
             d="m 582.10742,-162.40527 -188.5,0"
             id="path3071"
             style="fill:none;stroke:#918f90;stroke-width:0.5;stroke-linecap:butt;stroke-linejoin:miter;stroke-miterlimit:10;stroke-dasharray:none;stroke-opacity:1" /></g></g></g><path
       inkscape:connector-curvature="0"
       d="m 586.81253,255.49451 -99.80897,0 0,99.80894 99.80897,0 0,-99.80894 z"
       id="path3139"
       style="fill:#231f20;fill-opacity:1;fill-rule:nonzero;stroke:none" /><path
       inkscape:connector-curvature="0"
       d="m 785.42392,255.49451 -99.80897,0 0,99.80894 99.80897,0 0,-99.80894 z"
       id="path3141"
       style="fill:#ababab;fill-opacity:1;fill-rule:nonzero;stroke:none" /><path
       inkscape:connector-curvature="0"
       d="m 684.87693,353.92522 0,-97.05249 -97.20271,0 0,97.05249 97.20271,0 m 1.3031,1.37823 -99.80927,0 0,-99.80894 99.80927,0 0,99.80894 0,0 z"
       id="path3153"
       style="fill:url(#linearGradient3143);fill-opacity:1;fill-rule:nonzero;stroke:none" /><path
       inkscape:connector-curvature="0"
       d="m 412.46448,222.6311 -340.26523,0 0,144.437 340.26523,0 0,-144.437 z"
       id="path3185"
       style="fill:#1a1a1a;fill-opacity:1;fill-rule:nonzero;stroke:none" /><path
       inkscape:connector-curvature="0"
       d="m 720.62124,286.07964 c 6.34062,2.35815 11.91483,5.1039 7.38606,12.26287 -0.18497,1.09708 0.85559,1.76221 0.45715,2.93176 -0.48481,0.53714 -1.14542,0.60175 -1.76471,0.77179 2.69319,1.37725 0.27451,3.34642 -0.79064,5.5312 -0.0787,2.23279 3.68155,3.17619 2.78128,5.36761 -0.47425,1.14899 -3.73808,2.01269 -5.46306,3.14239 -2.79556,1.82447 -4.71258,3.58293 -6.1985,7.10779 -0.80645,2.62117 -5.72268,13.29192 -17.30067,20.30482 3.77709,-0.82472 9.29563,-2.4331 12.77763,-3.72948 13.72508,-5.10126 18.85593,-10.52629 27.69453,-23.81621 2.98089,-4.47734 4.89955,-3.55822 8.94633,0.22152 4.44154,4.13857 9.30899,8.16209 15.1142,7.20595 4.1464,-0.67798 7.52492,-5.44789 8.82357,-10.10529 -1.71142,0.49558 -3.64437,0.48733 -6.28556,-0.92308 -2.35671,-1.26092 -4.7492,-5.39275 -6.11426,-8.47395 -5.20716,-11.74483 -9.5655,-21.57253 -18.48315,-27.62783 -7.87855,-5.34793 -19.35949,-6.38582 -28.95062,-4.92912 -2.58783,0.39283 -5.09344,0.88182 -7.5466,1.43942 3.36137,5.33932 8.23902,10.83786 14.91696,13.31784 z"
       id="path3205-6-6-7"
       style="fill:#808080;fill-opacity:1;fill-rule:evenodd;stroke:none" /><path
       inkscape:connector-curvature="0"
       d="m 622.28941,286.6055 c 6.34068,2.3581 11.91489,5.1039 7.38611,12.26287 -0.18496,1.09703 0.85559,1.76216 0.45716,2.93176 -0.48481,0.53714 -1.14543,0.6017 -1.76471,0.77174 2.69319,1.37724 0.27451,3.34647 -0.79064,5.5312 -0.0787,2.23279 3.68155,3.17623 2.78127,5.36765 -0.47425,1.149 -3.73807,2.01269 -5.46305,3.14234 -2.79556,1.82448 -4.71258,3.58293 -6.19851,7.1078 -0.80645,2.62117 -5.72267,13.29196 -17.30066,20.30482 3.77708,-0.82468 9.29562,-2.43311 12.77762,-3.72943 13.72509,-5.10126 18.85594,-10.5263 27.69453,-23.81626 2.98089,-4.47734 4.89956,-3.55817 8.94627,0.22151 4.44161,4.13863 9.30906,8.16214 15.11426,7.206 4.1464,-0.67797 7.52493,-5.44794 8.82352,-10.10533 -1.71137,0.49562 -3.64432,0.48737 -6.2855,-0.92303 -2.35672,-1.26092 -4.74921,-5.39276 -6.11433,-8.474 -5.2071,-11.74478 -9.56544,-21.57254 -18.48308,-27.62779 -7.87856,-5.34792 -19.35949,-6.38581 -28.95063,-4.92911 -2.58783,0.39283 -5.09343,0.88181 -7.5466,1.43941 3.36132,5.33933 8.23902,10.83786 14.91697,13.31785 z"
       id="path3205-6-6-7-2"
       style="fill:#000000;fill-opacity:1;fill-rule:evenodd;stroke:none" /><path
       inkscape:connector-curvature="0"
       d="m 521.85431,288.70883 c 6.34062,2.35814 11.91483,5.10394 7.38605,12.26291 -0.18496,1.09703 0.85559,1.76216 0.45716,2.93176 -0.48475,0.53714 -1.14543,0.6017 -1.76465,0.77174 2.69313,1.37725 0.27445,3.34647 -0.7907,5.5312 -0.0787,2.23279 3.68155,3.17619 2.78133,5.36766 -0.47431,1.14899 -3.73813,2.01264 -5.46305,3.14234 -2.79562,1.82447 -4.71264,3.58293 -6.19857,7.10779 -0.80645,2.62117 -5.72267,13.29192 -17.30066,20.30482 3.77714,-0.82467 9.29562,-2.4331 12.77762,-3.72948 13.72509,-5.10126 18.85594,-10.52624 27.69453,-23.81621 2.98089,-4.47734 4.89956,-3.55822 8.94633,0.22152 4.44155,4.13862 9.30906,8.16214 15.1142,7.206 4.1464,-0.67798 7.52493,-5.44794 8.82358,-10.10534 -1.71143,0.49558 -3.64438,0.48733 -6.28556,-0.92303 -2.35666,-1.26097 -4.74921,-5.39275 -6.11427,-8.474 -5.20716,-11.74482 -9.5655,-21.57253 -18.48314,-27.62783 -7.8785,-5.34788 -19.35949,-6.38582 -28.95063,-4.92907 -2.58783,0.39278 -5.09343,0.88177 -7.5466,1.43941 3.36138,5.33928 8.23902,10.83782 14.91697,13.31781 z"
       id="path3205-6-6-7-28"
       style="fill:#ffffff;fill-opacity:1;fill-rule:evenodd;stroke:none" /><text
       x="147.85817"
       y="-292.73132"
       id="text3189-5-6"
       style="font-size:8.78439999px;fill:#0292b0;fill-opacity:1"
       inkscape:export-xdpi="300"
       inkscape:export-ydpi="300"
       transform="scale(1,-1)"><tspan
         x="147.85817"
         y="-292.73132"
         id="tspan3191-0-6"
         style="font-style:italic;font-variant:normal;font-weight:normal;font-stretch:normal;font-size:41.89280319px;font-family:GalanoGrotesque-HeavyItalic;-inkscape-font-specification:'GalanoGrotesque-HeavyItalic Italic';writing-mode:lr-tb;fill:#0292b0;fill-opacity:1;fill-rule:nonzero;stroke:none">VIVA</tspan></text>
<path
       d="m 265.30542,272.58914 c 7.48803,2.78484 14.07095,6.02748 8.72261,14.48192 -0.2184,1.29558 1.01042,2.08108 0.53993,3.46229 -0.57251,0.63433 -1.3527,0.71059 -2.08404,0.9114 3.1805,1.62648 0.32417,3.95203 -0.93371,6.53212 -0.0929,2.63683 4.34772,3.75097 3.2846,6.33894 -0.56017,1.35691 -4.41457,2.37688 -6.45166,3.711 -3.30144,2.15463 -5.56542,4.23128 -7.3202,8.394 -0.9524,3.09549 -6.75825,15.69719 -20.43132,23.97912 4.46059,-0.97392 10.97771,-2.8734 15.08979,-4.40433 16.20873,-6.02437 22.26805,-12.43109 32.70606,-28.12595 3.5203,-5.28755 5.78618,-4.20209 10.56524,0.2616 5.24527,4.88751 10.99356,9.63911 17.84921,8.50996 4.89677,-0.80067 8.88658,-6.43376 10.42025,-11.93396 -2.02112,0.58527 -4.30378,0.57554 -7.42297,-1.09007 -2.78314,-1.48912 -5.60861,-6.36862 -7.22072,-10.00742 -6.1494,-13.87011 -11.2964,-25.47623 -21.82772,-32.62726 -9.30424,-6.31565 -22.86277,-7.54137 -34.18945,-5.82106 -3.05616,0.4639 -6.01514,1.04138 -8.91224,1.69988 3.96963,6.30552 9.72991,12.79903 17.61628,15.72781 z"
       id="path3205-6-9"
       style="opacity:1;fill:#0292b0;fill-opacity:1;fill-rule:evenodd;stroke:none"
       inkscape:export-xdpi="300"
       inkscape:export-ydpi="300"
       inkscape:connector-curvature="0" /></g></svg>