<?xml version="1.0" encoding="UTF-8" standalone="no"?>
<!-- Created with Inkscape (http://www.inkscape.org/) -->

<svg
   xmlns:dc="http://purl.org/dc/elements/1.1/"
   xmlns:cc="http://creativecommons.org/ns#"
   xmlns:rdf="http://www.w3.org/1999/02/22-rdf-syntax-ns#"
   xmlns:svg="http://www.w3.org/2000/svg"
   xmlns="http://www.w3.org/2000/svg"
   xmlns:sodipodi="http://sodipodi.sourceforge.net/DTD/sodipodi-0.dtd"
   xmlns:inkscape="http://www.inkscape.org/namespaces/inkscape"
   id="svg2"
   version="1.1"
   inkscape:version="0.91 r13725"
   xml:space="preserve"
   width="1097.1"
   height="789.29999"
   viewBox="0 0 1097.1 789.29999"
   sodipodi:docname="brand-book-viva-p3.svg"
   inkscape:export-filename="C:\Users\alec\Documents\GitHub\goldcoinc.github.io\vivacoin-id\brand-book-free-01\brand-book-viva-p3.png"
   inkscape:export-xdpi="299.9971"
   inkscape:export-ydpi="299.9971"><metadata
     id="metadata8"><rdf:RDF><cc:Work
         rdf:about=""><dc:format>image/svg+xml</dc:format><dc:type
           rdf:resource="http://purl.org/dc/dcmitype/StillImage" /><dc:title /></cc:Work></rdf:RDF></metadata><defs
     id="defs6"><clipPath
       clipPathUnits="userSpaceOnUse"
       id="clipPath20"><path
         d="m 0,631.44 877.68,0 L 877.68,0 0,0 0,631.44 Z"
         id="path22"
         inkscape:connector-curvature="0" /></clipPath><clipPath
       clipPathUnits="userSpaceOnUse"
       id="clipPath36"><path
         d="m 0,631.44 877.68,0 L 877.68,0 0,0 0,631.44 Z"
         id="path38"
         inkscape:connector-curvature="0" /></clipPath><clipPath
       clipPathUnits="userSpaceOnUse"
       id="clipPath52"><path
         d="m 0,631.44 877.68,0 L 877.68,0 0,0 0,631.44 Z"
         id="path54"
         inkscape:connector-curvature="0" /></clipPath><clipPath
       clipPathUnits="userSpaceOnUse"
       id="clipPath68"><path
         d="m 0,631.44 877.68,0 L 877.68,0 0,0 0,631.44 Z"
         id="path70"
         inkscape:connector-curvature="0" /></clipPath><clipPath
       clipPathUnits="userSpaceOnUse"
       id="clipPath84"><path
         d="m 0,631.44 877.68,0 L 877.68,0 0,0 0,631.44 Z"
         id="path86"
         inkscape:connector-curvature="0" /></clipPath><clipPath
       clipPathUnits="userSpaceOnUse"
       id="clipPath100"><path
         d="m 0,631.44 877.68,0 L 877.68,0 0,0 0,631.44 Z"
         id="path102"
         inkscape:connector-curvature="0" /></clipPath><clipPath
       clipPathUnits="userSpaceOnUse"
       id="clipPath116"><path
         d="m 0,631.44 877.68,0 L 877.68,0 0,0 0,631.44 Z"
         id="path118"
         inkscape:connector-curvature="0" /></clipPath><clipPath
       clipPathUnits="userSpaceOnUse"
       id="clipPath132"><path
         d="m 0,631.44 877.68,0 L 877.68,0 0,0 0,631.44 Z"
         id="path134"
         inkscape:connector-curvature="0" /></clipPath><clipPath
       clipPathUnits="userSpaceOnUse"
       id="clipPath176"><path
         d="m 0,631.44 877.68,0 L 877.68,0 0,0 0,631.44 Z"
         id="path178"
         inkscape:connector-curvature="0" /></clipPath><mask
       id="mask3617"><g
         id="g3619"><g
           clip-path="url(#clipPath3593)"
           id="g3621"><g
             id="g3623"><g
               id="g3625" /><g
               mask="url(#mask3601)"
               id="g3627"><g
                 id="g3629" /><g
                 id="g3631"><g
                   clip-path="url(#clipPath3607)"
                   id="g3633"><path
                     inkscape:connector-curvature="0"
                     d="m 329.16602,164.71191 c -16.98438,12.27051 -31.35694,25.11426 -11.82032,43.35987 1.47266,3.20019 -1.08398,6.06543 1.08789,9.31933 1.90039,1.25342 3.92774,0.92285 5.92383,0.9458 -6.90039,6.35987 1.98047,10.44141 6.99414,16.26319 2.10352,6.75635 -8.34961,12.64355 -3.82422,18.61767 2.38086,3.13037 12.86329,3.15918 18.96875,5.22998 9.88477,3.33741 17.0918,7.17725 24.48633,16.75489 4.60547,7.36132 28.24024,36.02441 68.73047,48.18701 -14.38672,-35.15088 -69.42383,-188.95899 -77.0918,-211.28369 -5.58203,18.99609 -15.5625,39.69189 -33.45507,52.60595 z"
                     id="path3635"
                     style="fill:url(#radialGradient3611);fill-opacity:1;fill-rule:evenodd;stroke:none" /></g></g></g></g></g></g></mask><clipPath
       id="clipPath3593"><path
         inkscape:connector-curvature="0"
         d="m 308.02246,112.10596 131.69043,0 0,211.28369 -131.69043,0 0,-211.28369 z"
         id="path3595" /></clipPath><mask
       id="mask3601"><g
         id="g3603"><g
           clip-path="url(#clipPath3597)"
           id="g3605" /></g></mask><clipPath
       id="clipPath3597"><path
         inkscape:connector-curvature="0"
         d="m 8497,24399 -32766,0 0,-32766 32766,0 0,32766 z"
         id="path3599" /></clipPath><clipPath
       id="clipPath3607"><path
         inkscape:connector-curvature="0"
         d="m 308.02246,112.10596 131.69043,0 0,211.28369 -131.69043,0 0,-211.28369 z"
         id="path3609" /></clipPath><radialGradient
       cx="573.92383"
       cy="133"
       r="277.04648"
       fx="573.92383"
       fy="133"
       id="radialGradient3611"
       gradientUnits="userSpaceOnUse"
       spreadMethod="pad"><stop
         id="stop3613"
         style="stop-color:#000000;stop-opacity:1"
         offset="0" /><stop
         id="stop3615"
         style="stop-color:#b3b3b3;stop-opacity:1"
         offset="1" /></radialGradient><clipPath
       id="clipPath3641"><path
         inkscape:connector-curvature="0"
         d="m 308.02246,112.10596 131.69043,0 0,211.28369 -131.69043,0 0,-211.28369 z"
         id="path3643" /></clipPath><linearGradient
       x1="407.74023"
       y1="214.81494"
       x2="335.86383"
       y2="246.88181"
       id="linearGradient3645"
       gradientUnits="userSpaceOnUse"
       spreadMethod="pad"><stop
         id="stop3647"
         style="stop-color:#ffffff;stop-opacity:1"
         offset="0" /><stop
         id="stop3649"
         style="stop-color:#bdbcbc;stop-opacity:1"
         offset="1" /></linearGradient><mask
       id="mask3511"><g
         id="g3513"><g
           clip-path="url(#clipPath3487)"
           id="g3515"><g
             id="g3517"><g
               id="g3519" /><g
               mask="url(#mask3495)"
               id="g3521"><g
                 id="g3523" /><g
                 id="g3525"><g
                   clip-path="url(#clipPath3501)"
                   id="g3527"><path
                     inkscape:connector-curvature="0"
                     d="m 102.37744,-73.13623 c 0.62158,0.81934 2.19531,1.0791 4.01758,1.37988 0.99268,0.16455 2.01758,0.33447 2.79687,0.59864 3.34766,1.12988 5.77686,2.4165 8.27637,5.64794 1.9624,3.12403 9.43067,11.63477 21.57764,16.07618 -0.29541,0.002 -0.59766,0.0034 -0.90527,0.0034 -3.75635,0 -7.86377,-0.18115 -10.7168,-0.47314 -15.32959,-1.55908 -22.2959,-5.729 -35.44971,-17.47119 -1.81396,-1.61768 -3.18457,-2.33887 -4.44482,-2.33887 -1.99805,0 -3.47364,1.81592 -5.50049,5.16699 -3.37451,5.56641 -7.1792,11.0503 -13.25537,11.62598 -0.20117,0.01953 -0.40723,0.02881 -0.61328,0.02881 -4.06348,4.9e-4 -8.23438,-3.70899 -10.62452,-7.38916 2.0503,-0.146 3.89356,-1.05762 5.75782,-2.83887 2.10156,-2.01221 3.45898,-6.98437 4.02929,-10.96631 0.43116,-3.00927 0.84913,-5.92822 1.31836,-8.74414 12.20118,1.42041 23.50879,3.9126 33.44629,7.25879 -0.29101,0.78272 -0.33984,1.604 0.29004,2.43506 z"
                     id="path3529"
                     style="fill:url(#linearGradient3505);fill-opacity:1;fill-rule:nonzero;stroke:none" /></g></g></g></g></g></g></mask><clipPath
       id="clipPath3487"><path
         inkscape:connector-curvature="0"
         d="m 57.53564,-82.83008 81.51026,0 0,33.3999 -81.51026,0 0,-33.3999 z"
         id="path3489" /></clipPath><mask
       id="mask3495"><g
         id="g3497"><g
           clip-path="url(#clipPath3491)"
           id="g3499" /></g></mask><clipPath
       id="clipPath3491"><path
         inkscape:connector-curvature="0"
         d="m 8497,24399 -32766,0 0,-32766 32766,0 0,32766 z"
         id="path3493" /></clipPath><clipPath
       id="clipPath3501"><path
         inkscape:connector-curvature="0"
         d="m 57.53564,-82.83008 81.51026,0 0,33.3999 -81.51026,0 0,-33.3999 z"
         id="path3503" /></clipPath><linearGradient
       x1="103.95703"
       y1="-83.849609"
       x2="97.292763"
       y2="-49.754559"
       id="linearGradient3505"
       gradientUnits="userSpaceOnUse"
       spreadMethod="pad"><stop
         id="stop3507"
         style="stop-color:#ffffff;stop-opacity:1"
         offset="0" /><stop
         id="stop3509"
         style="stop-color:#000000;stop-opacity:1"
         offset="1" /></linearGradient><clipPath
       id="clipPath3535"><path
         inkscape:connector-curvature="0"
         d="m 57.53564,-82.83008 81.51026,0 0,33.3999 -81.51026,0 0,-33.3999 z"
         id="path3537" /></clipPath><linearGradient
       x1="103.95703"
       y1="-83.849609"
       x2="97.292763"
       y2="-49.754559"
       id="linearGradient3539"
       gradientUnits="userSpaceOnUse"
       spreadMethod="pad"><stop
         id="stop3541"
         style="stop-color:#ffffff;stop-opacity:1"
         offset="0" /><stop
         id="stop3543"
         style="stop-color:#ffffff;stop-opacity:1"
         offset="1" /></linearGradient><mask
       id="mask3425"><g
         id="g3427"><g
           clip-path="url(#clipPath3401)"
           id="g3429"><g
             id="g3431"><g
               id="g3433" /><g
               mask="url(#mask3409)"
               id="g3435"><g
                 id="g3437" /><g
                 id="g3439"><g
                   clip-path="url(#clipPath3415)"
                   id="g3441"><path
                     inkscape:connector-curvature="0"
                     d="m 246.73975,-73.13623 c 0.62207,0.81934 2.19629,1.0791 4.01806,1.37988 0.99268,0.16455 2.01758,0.33447 2.79737,0.59864 3.34716,1.12988 5.77587,2.4165 8.27539,5.64794 1.96338,3.12403 9.43164,11.63477 21.57812,16.07618 -0.29541,0.002 -0.59765,0.0034 -0.90576,0.0034 -3.75635,0 -7.86328,-0.18115 -10.7168,-0.47314 -15.3291,-1.55908 -22.2959,-5.729 -35.44922,-17.47119 -1.81396,-1.61768 -3.18505,-2.33887 -4.44482,-2.33887 -1.99854,0 -3.47363,1.81592 -5.50049,5.16699 -3.375,5.56641 -7.1792,11.0503 -13.25537,11.62598 -0.20117,0.01953 -0.40723,0.02881 -0.61328,0.02881 -4.06397,4.9e-4 -8.23389,-3.70899 -10.625,-7.38916 2.05078,-0.146 3.89355,-1.05762 5.7583,-2.83887 2.10156,-2.01221 3.45947,-6.98437 4.02881,-10.96631 0.43115,-3.00927 0.84912,-5.92822 1.31933,-8.74414 12.2002,1.42041 23.50831,3.9126 33.44581,7.25879 -0.29102,0.78272 -0.33985,1.604 0.28955,2.43506 z"
                     id="path3443"
                     style="fill:url(#linearGradient3419);fill-opacity:1;fill-rule:nonzero;stroke:none" /></g></g></g></g></g></g></mask><clipPath
       id="clipPath3401"><path
         inkscape:connector-curvature="0"
         d="m 201.89795,-82.83008 81.51074,0 0,33.3999 -81.51074,0 0,-33.3999 z"
         id="path3403" /></clipPath><mask
       id="mask3409"><g
         id="g3411"><g
           clip-path="url(#clipPath3405)"
           id="g3413" /></g></mask><clipPath
       id="clipPath3405"><path
         inkscape:connector-curvature="0"
         d="m 8497,24399 -32766,0 0,-32766 32766,0 0,32766 z"
         id="path3407" /></clipPath><clipPath
       id="clipPath3415"><path
         inkscape:connector-curvature="0"
         d="m 201.89795,-82.83008 81.51074,0 0,33.3999 -81.51074,0 0,-33.3999 z"
         id="path3417" /></clipPath><linearGradient
       x1="248.31934"
       y1="-83.849609"
       x2="241.65506"
       y2="-49.754559"
       id="linearGradient3419"
       gradientUnits="userSpaceOnUse"
       spreadMethod="pad"><stop
         id="stop3421"
         style="stop-color:#ffffff;stop-opacity:1"
         offset="0" /><stop
         id="stop3423"
         style="stop-color:#000000;stop-opacity:1"
         offset="1" /></linearGradient><clipPath
       id="clipPath3449"><path
         inkscape:connector-curvature="0"
         d="m 201.89795,-82.83008 81.51074,0 0,33.3999 -81.51074,0 0,-33.3999 z"
         id="path3451" /></clipPath><linearGradient
       x1="248.31934"
       y1="-83.849609"
       x2="241.65506"
       y2="-49.754559"
       id="linearGradient3453"
       gradientUnits="userSpaceOnUse"
       spreadMethod="pad"><stop
         id="stop3455"
         style="stop-color:#ffffff;stop-opacity:1"
         offset="0" /><stop
         id="stop3457"
         style="stop-color:#ffffff;stop-opacity:1"
         offset="1" /></linearGradient><mask
       id="mask3339"><g
         id="g3341"><g
           clip-path="url(#clipPath3315)"
           id="g3343"><g
             id="g3345"><g
               id="g3347" /><g
               mask="url(#mask3323)"
               id="g3349"><g
                 id="g3351" /><g
                 id="g3353"><g
                   clip-path="url(#clipPath3329)"
                   id="g3355"><path
                     inkscape:connector-curvature="0"
                     d="m 391.10254,-73.13623 c 0.62207,0.81934 2.19629,1.0791 4.01855,1.37988 0.99219,0.16455 2.01758,0.33447 2.7959,0.59864 3.34766,1.12988 5.77637,2.4165 8.27637,5.64794 1.96289,3.12403 9.43164,11.63477 21.57812,16.07618 -0.29589,0.002 -0.59765,0.0034 -0.90527,0.0034 -3.75586,0 -7.86328,-0.18115 -10.71777,-0.47314 -15.32813,-1.55908 -22.2959,-5.729 -35.44922,-17.47119 -1.81348,-1.61768 -3.18457,-2.33887 -4.44531,-2.33887 -1.99707,0 -3.47364,1.81592 -5.5,5.16699 -3.375,5.56641 -7.17871,11.0503 -13.25489,11.62598 -0.20117,0.01953 -0.40722,0.02881 -0.61328,0.02881 -4.06347,4.9e-4 -8.23437,-3.70899 -10.625,-7.38916 2.05078,-0.146 3.89453,-1.05762 5.75879,-2.83887 2.10059,-2.01221 3.45801,-6.98437 4.02832,-10.96631 0.43067,-3.00927 0.84961,-5.92822 1.31836,-8.74414 12.20117,1.42041 23.50977,3.9126 33.44727,7.25879 -0.292,0.78272 -0.34082,1.604 0.28906,2.43506 z"
                     id="path3357"
                     style="fill:url(#linearGradient3333);fill-opacity:1;fill-rule:nonzero;stroke:none" /></g></g></g></g></g></g></mask><clipPath
       id="clipPath3315"><path
         inkscape:connector-curvature="0"
         d="m 346.26074,-82.83008 81.51074,0 0,33.3999 -81.51074,0 0,-33.3999 z"
         id="path3317" /></clipPath><mask
       id="mask3323"><g
         id="g3325"><g
           clip-path="url(#clipPath3319)"
           id="g3327" /></g></mask><clipPath
       id="clipPath3319"><path
         inkscape:connector-curvature="0"
         d="m 8497,24399 -32766,0 0,-32766 32766,0 0,32766 z"
         id="path3321" /></clipPath><clipPath
       id="clipPath3329"><path
         inkscape:connector-curvature="0"
         d="m 346.26074,-82.83008 81.51074,0 0,33.3999 -81.51074,0 0,-33.3999 z"
         id="path3331" /></clipPath><linearGradient
       x1="392.68262"
       y1="-83.849121"
       x2="386.01855"
       y2="-49.755192"
       id="linearGradient3333"
       gradientUnits="userSpaceOnUse"
       spreadMethod="pad"><stop
         id="stop3335"
         style="stop-color:#ffffff;stop-opacity:1"
         offset="0" /><stop
         id="stop3337"
         style="stop-color:#000000;stop-opacity:1"
         offset="1" /></linearGradient><clipPath
       id="clipPath3363"><path
         inkscape:connector-curvature="0"
         d="m 346.26074,-82.83008 81.51074,0 0,33.3999 -81.51074,0 0,-33.3999 z"
         id="path3365" /></clipPath><linearGradient
       x1="392.68262"
       y1="-83.849121"
       x2="386.01855"
       y2="-49.755192"
       id="linearGradient3367"
       gradientUnits="userSpaceOnUse"
       spreadMethod="pad"><stop
         id="stop3369"
         style="stop-color:#ffffff;stop-opacity:1"
         offset="0" /><stop
         id="stop3371"
         style="stop-color:#ffffff;stop-opacity:1"
         offset="1" /></linearGradient><mask
       id="mask3253"><g
         id="g3255"><g
           clip-path="url(#clipPath3229)"
           id="g3257"><g
             id="g3259"><g
               id="g3261" /><g
               mask="url(#mask3237)"
               id="g3263"><g
                 id="g3265" /><g
                 id="g3267"><g
                   clip-path="url(#clipPath3243)"
                   id="g3269"><path
                     inkscape:connector-curvature="0"
                     d="m 535.46582,-73.13623 c 0.62109,0.81934 2.19531,1.0791 4.01758,1.37988 0.99219,0.16455 2.01758,0.33447 2.7959,0.59864 3.34765,1.12988 5.77734,2.4165 8.27636,5.64794 1.96289,3.12403 9.43164,11.63477 21.57813,16.07618 -0.29492,0.002 -0.59766,0.0034 -0.90527,0.0034 -3.75586,0 -7.86329,-0.18115 -10.7168,-0.47314 -15.3291,-1.55908 -22.2959,-5.729 -35.44922,-17.47119 -1.81445,-1.61768 -3.18457,-2.33887 -4.44434,-2.33887 -1.99902,0 -3.47461,1.81592 -5.50097,5.16699 -3.375,5.56641 -7.17969,11.0503 -13.25586,11.62598 -0.20117,0.01953 -0.40723,0.02881 -0.61328,0.02881 -4.06348,4.9e-4 -8.23438,-3.70899 -10.625,-7.38916 2.05078,-0.146 3.89453,-1.05762 5.75879,-2.83887 2.10058,-2.01221 3.458,-6.98437 4.02929,-10.96631 0.43067,-3.00927 0.84864,-5.92822 1.31836,-8.74414 12.20117,1.42041 23.50879,3.9126 33.44629,7.25879 -0.29199,0.78272 -0.33984,1.604 0.29004,2.43506 z"
                     id="path3271"
                     style="fill:url(#linearGradient3247);fill-opacity:1;fill-rule:nonzero;stroke:none" /></g></g></g></g></g></g></mask><clipPath
       id="clipPath3229"><path
         inkscape:connector-curvature="0"
         d="m 490.62305,-82.83008 81.51074,0 0,33.3999 -81.51074,0 0,-33.3999 z"
         id="path3231" /></clipPath><mask
       id="mask3237"><g
         id="g3239"><g
           clip-path="url(#clipPath3233)"
           id="g3241" /></g></mask><clipPath
       id="clipPath3233"><path
         inkscape:connector-curvature="0"
         d="m 8497,24399 -32766,0 0,-32766 32766,0 0,32766 z"
         id="path3235" /></clipPath><clipPath
       id="clipPath3243"><path
         inkscape:connector-curvature="0"
         d="m 490.62305,-82.83008 81.51074,0 0,33.3999 -81.51074,0 0,-33.3999 z"
         id="path3245" /></clipPath><linearGradient
       x1="537.04492"
       y1="-83.850098"
       x2="530.38068"
       y2="-49.755051"
       id="linearGradient3247"
       gradientUnits="userSpaceOnUse"
       spreadMethod="pad"><stop
         id="stop3249"
         style="stop-color:#ffffff;stop-opacity:1"
         offset="0" /><stop
         id="stop3251"
         style="stop-color:#000000;stop-opacity:1"
         offset="1" /></linearGradient><clipPath
       id="clipPath3277"><path
         inkscape:connector-curvature="0"
         d="m 490.62305,-82.83008 81.51074,0 0,33.3999 -81.51074,0 0,-33.3999 z"
         id="path3279" /></clipPath><linearGradient
       x1="537.04492"
       y1="-83.850098"
       x2="530.38068"
       y2="-49.755051"
       id="linearGradient3281"
       gradientUnits="userSpaceOnUse"
       spreadMethod="pad"><stop
         id="stop3283"
         style="stop-color:#ffffff;stop-opacity:1"
         offset="0" /><stop
         id="stop3285"
         style="stop-color:#ffffff;stop-opacity:1"
         offset="1" /></linearGradient><clipPath
       id="clipPath3115"><path
         inkscape:connector-curvature="0"
         d="m 31.89209,377.27637 550.21533,0 0,8.67578 -550.21533,0 0,-8.67578 z"
         id="path3117" /></clipPath></defs><sodipodi:namedview
     pagecolor="#ffffff"
     bordercolor="#666666"
     borderopacity="1"
     objecttolerance="10"
     gridtolerance="10"
     guidetolerance="10"
     inkscape:pageopacity="0"
     inkscape:pageshadow="2"
     inkscape:window-width="1920"
     inkscape:window-height="1018"
     id="namedview4"
     showgrid="false"
     inkscape:zoom="0.59799823"
     inkscape:cx="-82.795736"
     inkscape:cy="394.64999"
     inkscape:window-x="-8"
     inkscape:window-y="-8"
     inkscape:window-maximized="1"
     inkscape:current-layer="g10" /><g
     id="g10"
     inkscape:groupmode="layer"
     inkscape:label="brand-book-free-02"
     transform="matrix(1.25,0,0,-1.25,0,789.3)"><g
       id="g12"
       transform="translate(18.0009,631.44)"><path
         d="M 0,0 0,-17.999 0,0 Z"
         style="fill:#3a4146;fill-opacity:1;fill-rule:nonzero;stroke:none"
         id="path14"
         inkscape:connector-curvature="0" /></g><g
       id="g16"><g
         id="g18"
         clip-path="url(#clipPath20)"><g
           id="g24"
           transform="translate(18.0005,631.4409)"><path
             d="M 0,0 0,-18"
             style="fill:none;stroke:#292929;stroke-width:0.30000001;stroke-linecap:butt;stroke-linejoin:miter;stroke-miterlimit:10;stroke-dasharray:none;stroke-opacity:1"
             id="path26"
             inkscape:connector-curvature="0" /></g></g></g><g
       id="g28"
       transform="translate(9e-4,613.4409)"><path
         d="M 0,0 18,0 0,0 Z"
         style="fill:#3a4146;fill-opacity:1;fill-rule:nonzero;stroke:none"
         id="path30"
         inkscape:connector-curvature="0" /></g><g
       id="g32"><g
         id="g34"
         clip-path="url(#clipPath36)"><g
           id="g40"
           transform="translate(5e-4,613.4409)"><path
             d="M 0,0 18,0"
             style="fill:none;stroke:#292929;stroke-width:0.30000001;stroke-linecap:butt;stroke-linejoin:miter;stroke-miterlimit:10;stroke-dasharray:none;stroke-opacity:1"
             id="path42"
             inkscape:connector-curvature="0" /></g></g></g><g
       id="g44"
       transform="translate(859.68,613.4409)"><path
         d="M 0,0 18,0 0,0 Z"
         style="fill:#3a4146;fill-opacity:1;fill-rule:nonzero;stroke:none"
         id="path46"
         inkscape:connector-curvature="0" /></g><g
       id="g48"><g
         id="g50"
         clip-path="url(#clipPath52)"><g
           id="g56"
           transform="translate(877.6802,613.4409)"><path
             d="M 0,0 -18,0"
             style="fill:none;stroke:#292929;stroke-width:0.30000001;stroke-linecap:butt;stroke-linejoin:miter;stroke-miterlimit:10;stroke-dasharray:none;stroke-opacity:1"
             id="path58"
             inkscape:connector-curvature="0" /></g></g></g><g
       id="g60"
       transform="translate(859.68,631.44)"><path
         d="M 0,0 0,-17.999 0,0 Z"
         style="fill:#3a4146;fill-opacity:1;fill-rule:nonzero;stroke:none"
         id="path62"
         inkscape:connector-curvature="0" /></g><g
       id="g64"><g
         id="g66"
         clip-path="url(#clipPath68)"><g
           id="g72"
           transform="translate(859.6802,631.4409)"><path
             d="M 0,0 0,-18"
             style="fill:none;stroke:#292929;stroke-width:0.30000001;stroke-linecap:butt;stroke-linejoin:miter;stroke-miterlimit:10;stroke-dasharray:none;stroke-opacity:1"
             id="path74"
             inkscape:connector-curvature="0" /></g></g></g><g
       id="g76"
       transform="translate(859.68,0)"><path
         d="M 0,0 0,17.999 0,0 Z"
         style="fill:#3a4146;fill-opacity:1;fill-rule:nonzero;stroke:none"
         id="path78"
         inkscape:connector-curvature="0" /></g><g
       id="g80"><g
         id="g82"
         clip-path="url(#clipPath84)"><g
           id="g88"
           transform="translate(859.6802,-5e-4)"><path
             d="M 0,0 0,18"
             style="fill:none;stroke:#292929;stroke-width:0.30000001;stroke-linecap:butt;stroke-linejoin:miter;stroke-miterlimit:10;stroke-dasharray:none;stroke-opacity:1"
             id="path90"
             inkscape:connector-curvature="0" /></g></g></g><g
       id="g92"
       transform="translate(859.68,17.9991)"><path
         d="M 0,0 18,0 0,0 Z"
         style="fill:#3a4146;fill-opacity:1;fill-rule:nonzero;stroke:none"
         id="path94"
         inkscape:connector-curvature="0" /></g><g
       id="g96"><g
         id="g98"
         clip-path="url(#clipPath100)"><g
           id="g104"
           transform="translate(877.6802,17.9995)"><path
             d="M 0,0 -18,0"
             style="fill:none;stroke:#292929;stroke-width:0.30000001;stroke-linecap:butt;stroke-linejoin:miter;stroke-miterlimit:10;stroke-dasharray:none;stroke-opacity:1"
             id="path106"
             inkscape:connector-curvature="0" /></g></g></g><g
       id="g108"
       transform="translate(9e-4,17.9991)"><path
         d="M 0,0 18,0 0,0 Z"
         style="fill:#3a4146;fill-opacity:1;fill-rule:nonzero;stroke:none"
         id="path110"
         inkscape:connector-curvature="0" /></g><g
       id="g112"><g
         id="g114"
         clip-path="url(#clipPath116)"><g
           id="g120"
           transform="translate(5e-4,17.9995)"><path
             d="M 0,0 18,0"
             style="fill:none;stroke:#292929;stroke-width:0.30000001;stroke-linecap:butt;stroke-linejoin:miter;stroke-miterlimit:10;stroke-dasharray:none;stroke-opacity:1"
             id="path122"
             inkscape:connector-curvature="0" /></g></g></g><g
       id="g124"
       transform="translate(18.0009,0)"><path
         d="M 0,0 0,17.999 0,0 Z"
         style="fill:#3a4146;fill-opacity:1;fill-rule:nonzero;stroke:none"
         id="path126"
         inkscape:connector-curvature="0" /></g><g
       id="g128"><g
         id="g130"
         clip-path="url(#clipPath132)"><g
           id="g136"
           transform="translate(18.0005,-5e-4)"><path
             d="M 0,0 0,18"
             style="fill:none;stroke:#292929;stroke-width:0.30000001;stroke-linecap:butt;stroke-linejoin:miter;stroke-miterlimit:10;stroke-dasharray:none;stroke-opacity:1"
             id="path138"
             inkscape:connector-curvature="0" /></g></g></g><g
       id="g140"
       transform="translate(868.6792,622.4404)"><path
         d="m 0,0 0,-613.44 -859.68,0 0,613.437 L 0,0 Z"
         style="fill:#afc3d9;fill-opacity:1;fill-rule:nonzero;stroke:none"
         id="path142"
         inkscape:connector-curvature="0" /></g><g
       id="g144"
       transform="translate(9.0005,443.9375)"><path
         d="m 0,0 0,-256.435 859.68,0 0,256.434 L 0,0 Z"
         style="fill:#ffffff;fill-opacity:1;fill-rule:nonzero;stroke:none"
         id="path146"
         inkscape:connector-curvature="0" /></g><text
       transform="matrix(0.99648109,0,0,-1,99,443.9375)"
       style="font-variant:normal;font-weight:normal;font-stretch:normal;font-size:85.1115036px;font-family:Futuremoon;-inkscape-font-specification:Futuremoon;writing-mode:lr-tb;fill:#3f5283;fill-opacity:1;fill-rule:nonzero;stroke:none"
       id="text148"><tspan
         x="0 31.661478 96.516441 157.28606 247.2489 262.22855 312.189 348.02094 404.62006 444.53735 459.517 499.4343"
         y="0"
         sodipodi:role="line"
         id="tspan150">LOGOIDENTITY</tspan></text>
<g
       id="g152"
       transform="translate(55.3745,443.9375)"><path
         d="M 0,0 0,-110.929 -17.841,-128.834 0,-146.737 l 0,-109.698 -46.375,0 L -46.375,0 0,0 Z"
         style="fill:#eb663c;fill-opacity:1;fill-rule:nonzero;stroke:none"
         id="path154"
         inkscape:connector-curvature="0" /></g><path
       d="m 852.072,187.503 16.607,0 0,256.435 -16.607,0 0,-256.435 z"
       style="fill:#eb663c;fill-opacity:1;fill-rule:nonzero;stroke:none"
       id="path156"
       inkscape:connector-curvature="0" /><text
       transform="matrix(0.99647522,0,0,-1,44.7256,311.5591)"
       style="font-variant:normal;font-weight:normal;font-stretch:normal;font-size:9.9296999px;font-family:'Century Gothic';-inkscape-font-specification:CenturyGothic;writing-mode:lr-tb;fill:#4762a6;fill-opacity:1;fill-rule:nonzero;stroke:none"
       id="text158"><tspan
         x="0 5.5010538"
         y="0"
         sodipodi:role="line"
         id="tspan160">03</tspan></text>
<text
       transform="matrix(0.99649284,0,0,-1,100.2915,404.4092)"
       style="font-variant:normal;font-weight:bold;font-stretch:normal;font-size:17.02230072px;font-family:'Century Gothic';-inkscape-font-specification:CenturyGothic-Bold;writing-mode:lr-tb;fill:#3f5283;fill-opacity:1;fill-rule:nonzero;stroke:none"
       id="text162"><tspan
         x="0 8.1707039 12.256056 22.469437 33.704155 37.789505 42.555752 50.045563 60.939835 72.174553"
         y="0"
         sodipodi:role="line"
         id="tspan164">Final Logo</tspan></text>
<g
       transform="matrix(0.95672888,0,0,1,152.16403,107.39956)"
       id="g3073"><g
         id="g3075" /><g
         id="g3081"><text
           xml:space="preserve"
           style="font-style:normal;font-weight:normal;font-size:19.62938881px;line-height:125%;font-family:sans-serif;letter-spacing:0px;word-spacing:0px;fill:#808080;fill-opacity:1;stroke:none;stroke-width:1px;stroke-linecap:butt;stroke-linejoin:miter;stroke-opacity:1"
           x="123.54236"
           y="0.98992032"
           id="text4453"
           sodipodi:linespacing="125%"
           transform="scale(1.022364,-0.9781252)"><tspan
             sodipodi:role="line"
             x="123.54236"
             y="0.98992032"
             id="tspan4457">Font: GalanoGrotesque-HeavyItalic</tspan></text>
<text
           xml:space="preserve"
           style="font-style:normal;font-weight:normal;font-size:19.62938881px;line-height:125%;font-family:sans-serif;letter-spacing:0px;word-spacing:0px;fill:#0292b0;fill-opacity:1;stroke:none;stroke-width:1px;stroke-linecap:butt;stroke-linejoin:miter;stroke-opacity:1"
           x="161.93985"
           y="27.41021"
           id="text4459"
           sodipodi:linespacing="125%"
           transform="scale(1.022364,-0.9781252)"><tspan
             sodipodi:role="line"
             id="tspan4461"
             x="161.93985"
             y="27.41021"
             style="fill:#0292b0;fill-opacity:1">RGBA Colorcode: 0292b0ff</tspan></text>
</g></g><g
       transform="translate(195.85539,26.086075)"
       id="g3111"><g
         id="g3113" /><g
         id="g3119"><g
           clip-path="url(#clipPath3115)"
           id="g3121"><path
             inkscape:connector-curvature="0"
             d="m 282.26465,378.65625 c -0.0806,0.19922 -0.19531,0.46387 -0.34375,0.79199 -0.14844,0.32813 -0.31543,0.68555 -0.5,1.07422 -0.18506,0.3877 -0.37402,0.78711 -0.5669,1.19922 -0.19287,0.41211 -0.37744,0.79883 -0.5542,1.1582 -0.17675,0.36035 -0.33349,0.67578 -0.47021,0.94825 -0.13672,0.27148 -0.23682,0.46386 -0.30127,0.57617 -0.104,-1 -0.18603,-2.08594 -0.24609,-3.25782 -0.0596,-1.17285 -0.11377,-2.40234 -0.16162,-3.69043 l -0.8042,0 c 0.0723,1.51172 0.1538,2.95997 0.24609,4.34375 0.0918,1.38379 0.20557,2.70801 0.3418,3.97266 l 0.72021,0 c 0.24024,-0.40039 0.49658,-0.8623 0.76953,-1.38672 0.27246,-0.52344 0.54297,-1.06738 0.81153,-1.63183 0.26855,-0.56348 0.52881,-1.12012 0.78173,-1.66797 0.25196,-0.54785 0.47461,-1.04199 0.667,-1.48145 0.19238,0.43946 0.41504,0.9336 0.66748,1.48145 0.25244,0.54785 0.51318,1.10449 0.78125,1.66797 0.26855,0.56445 0.53906,1.10839 0.81201,1.63183 0.27246,0.52442 0.52881,0.98633 0.76953,1.38672 l 0.68408,0 c 0.13574,-1.26465 0.24951,-2.58887 0.3418,-3.97266 0.0918,-1.38378 0.17383,-2.83203 0.24609,-4.34375 l -0.82812,0 c -0.0478,1.28809 -0.10205,2.51758 -0.16211,3.69043 -0.0601,1.17188 -0.14209,2.25782 -0.2461,3.25782 -0.064,-0.11231 -0.16406,-0.30469 -0.2998,-0.57617 -0.13623,-0.27247 -0.29199,-0.5879 -0.46777,-0.94825 -0.17627,-0.35937 -0.36035,-0.74609 -0.55225,-1.1582 -0.19189,-0.41211 -0.37988,-0.81152 -0.56396,-1.19922 -0.18409,-0.38867 -0.3501,-0.74609 -0.49805,-1.07422 -0.14795,-0.32812 -0.26221,-0.59277 -0.3418,-0.79199 l -0.73193,0 z"
             id="path3123"
             style="fill:#918f90;fill-opacity:1;fill-rule:nonzero;stroke:none" /><path
             inkscape:connector-curvature="0"
             d="m 297.50391,377.45605 c -0.1587,0.40821 -0.30469,0.80079 -0.43799,1.17872 -0.1333,0.37695 -0.26026,0.74414 -0.38184,1.10156 l -4.0625,0 c -0.13867,-0.35938 -0.2749,-0.72754 -0.40771,-1.10547 -0.13282,-0.37695 -0.27344,-0.76856 -0.42139,-1.17481 l -0.85205,0 c 0.31543,0.86524 0.61377,1.67188 0.89502,2.41993 0.28076,0.74804 0.55615,1.45507 0.82617,2.12207 0.27002,0.66699 0.53858,1.30859 0.80469,1.92383 0.26611,0.61425 0.5459,1.23144 0.83984,1.85058 l 0.71924,0 c 0.29346,-0.61621 0.57178,-1.23242 0.83496,-1.84863 0.26319,-0.61621 0.53028,-1.25781 0.80127,-1.92481 0.271,-0.66601 0.5459,-1.37402 0.82373,-2.12304 0.27832,-0.74903 0.58496,-1.55469 0.91895,-2.41993 l -0.90039,0 m -2.86182,7.37989 c -0.30078,-0.69043 -0.59375,-1.3916 -0.87939,-2.10254 -0.28516,-0.71094 -0.58008,-1.47852 -0.88526,-2.30176 l 3.54932,0 c -0.30713,0.82422 -0.60596,1.59277 -0.89697,2.30469 -0.29102,0.71191 -0.58692,1.41211 -0.8877,2.09961 z"
             id="path3125"
             style="fill:#918f90;fill-opacity:1;fill-rule:nonzero;stroke:none" /><path
             inkscape:connector-curvature="0"
             d="m 304.57227,377.98438 c 0.64843,0 1.15234,0.11816 1.51171,0.35449 0.36036,0.23633 0.54004,0.61914 0.54004,1.14843 0,0.30469 -0.0576,0.55958 -0.17382,0.76368 -0.11622,0.2041 -0.27051,0.37695 -0.46192,0.51757 -0.19238,0.13965 -0.41211,0.25977 -0.66015,0.35938 -0.24805,0.0996 -0.50782,0.20508 -0.7793,0.31641 -0.34473,0.13476 -0.65235,0.27343 -0.92481,0.41699 -0.27246,0.14355 -0.5039,0.30469 -0.69629,0.48437 -0.1914,0.18067 -0.33789,0.38575 -0.4375,0.61817 -0.0996,0.23242 -0.15039,0.5039 -0.15039,0.8164 0,0.71192 0.23633,1.25196 0.70899,1.62012 0.4707,0.36719 1.12695,0.55176 1.9668,0.55176 0.2246,0 0.44433,-0.0166 0.66015,-0.0479 0.2168,-0.0322 0.41797,-0.0742 0.60645,-0.12598 0.18847,-0.0527 0.36035,-0.11035 0.5166,-0.17383 0.15527,-0.0645 0.28515,-0.13281 0.38867,-0.2041 l -0.28711,-0.68457 c -0.23242,0.16016 -0.51465,0.28809 -0.8457,0.38379 -0.33203,0.0967 -0.69043,0.14453 -1.07422,0.14453 -0.26367,0 -0.50586,-0.0264 -0.72656,-0.0781 -0.21973,-0.0518 -0.41016,-0.13575 -0.57032,-0.25196 -0.16015,-0.11621 -0.28515,-0.26172 -0.37695,-0.43847 -0.0928,-0.17579 -0.13867,-0.3877 -0.13867,-0.63575 0,-0.25586 0.0488,-0.47168 0.14453,-0.64746 0.0957,-0.17675 0.22949,-0.32812 0.40137,-0.45605 0.17285,-0.12793 0.37402,-0.24414 0.60644,-0.34863 0.23242,-0.10352 0.48438,-0.21192 0.75586,-0.32325 0.32813,-0.13672 0.6377,-0.27246 0.92969,-0.4082 0.29199,-0.13672 0.54687,-0.2959 0.76172,-0.48047 0.2168,-0.18359 0.38867,-0.4082 0.5166,-0.67187 0.12793,-0.26368 0.19238,-0.58789 0.19238,-0.97168 0,-0.75196 -0.26269,-1.31641 -0.78711,-1.69239 -0.52343,-0.37597 -1.2334,-0.56347 -2.1289,-0.56347 -0.32032,0 -0.61231,0.0195 -0.87696,0.0596 -0.26367,0.04 -0.5,0.0898 -0.70703,0.15039 -0.20898,0.0596 -0.38476,0.12207 -0.52832,0.18555 -0.14355,0.0645 -0.25683,0.12011 -0.33594,0.16796 l 0.26368,0.70801 c 0.0801,-0.0478 0.18847,-0.10351 0.32422,-0.16797 0.13574,-0.0635 0.29589,-0.12597 0.47949,-0.18554 0.18457,-0.0606 0.39258,-0.11036 0.625,-0.15039 0.23144,-0.04 0.4873,-0.0596 0.76758,-0.0596 z"
             id="path3127"
             style="fill:#918f90;fill-opacity:1;fill-rule:nonzero;stroke:none" /><path
             inkscape:connector-curvature="0"
             d="m 317.26758,385.77246 0,-0.70801 -2.66406,0 0,-7.6084 -0.81543,0 0,7.6084 -2.66407,0 0,0.70801 6.14356,0 z"
             id="path3129"
             style="fill:#918f90;fill-opacity:1;fill-rule:nonzero;stroke:none" /><path
             inkscape:connector-curvature="0"
             d="m 321.56445,377.45605 0,8.31641 4.79883,0 0,-0.70801 -3.9834,0 0,-2.89257 3.55176,0 0,-0.69629 -3.55176,0 0,-3.31153 4.2959,0 0,-0.70801 -5.11133,0 z"
             id="path3131"
             style="fill:#918f90;fill-opacity:1;fill-rule:nonzero;stroke:none" /><path
             inkscape:connector-curvature="0"
             d="m 336.76758,383.27637 c 0,-0.62403 -0.16406,-1.11621 -0.49219,-1.47657 -0.32812,-0.35937 -0.75976,-0.62011 -1.2959,-0.77929 0.12793,-0.16016 0.29395,-0.37696 0.49805,-0.64844 0.2041,-0.27246 0.41406,-0.57031 0.62988,-0.89355 0.2168,-0.32422 0.42774,-0.66211 0.63672,-1.01465 0.20703,-0.35157 0.38281,-0.6875 0.52734,-1.00782 l -0.87597,0 c -0.16797,0.32032 -0.35059,0.63965 -0.5459,0.95997 -0.19629,0.32031 -0.39648,0.62988 -0.59961,0.92968 -0.20508,0.30078 -0.40234,0.57813 -0.59375,0.83399 -0.19336,0.25586 -0.36133,0.48047 -0.50488,0.67285 -0.25586,-0.0244 -0.51172,-0.0361 -0.76758,-0.0361 l -1.34473,0 0,-3.36036 -0.81543,0 0,8.16016 c 0.28809,0.0801 0.62598,0.1377 1.01465,0.17383 0.38672,0.0361 0.74512,0.0537 1.07324,0.0537 1.14356,0 2.00586,-0.21582 2.58594,-0.64746 0.58008,-0.43262 0.87012,-1.07227 0.87012,-1.91992 m -3.35938,1.85937 c -0.30468,0 -0.57031,-0.01 -0.79882,-0.0293 -0.22852,-0.0205 -0.41797,-0.0381 -0.57032,-0.0547 l 0,-3.54004 1.12891,0 c 0.375,0 0.73144,0.0185 1.06738,0.0547 0.33692,0.0361 0.62793,0.11523 0.87598,0.23925 0.24805,0.12403 0.44433,0.30274 0.58789,0.53418 0.14453,0.23243 0.2168,0.54786 0.2168,0.94825 0,0.36816 -0.0723,0.67187 -0.2168,0.91211 -0.14356,0.24023 -0.33203,0.42968 -0.56348,0.57031 -0.23242,0.13965 -0.49804,0.23535 -0.79785,0.28711 -0.30078,0.0527 -0.61035,0.0781 -0.92969,0.0781 z"
             id="path3133"
             style="fill:#918f90;fill-opacity:1;fill-rule:nonzero;stroke:none" /><path
             inkscape:connector-curvature="0"
             d="m 260.39209,381.59473 -228.5,0"
             id="path3135"
             style="fill:none;stroke:#918f90;stroke-width:0.5;stroke-linecap:butt;stroke-linejoin:miter;stroke-miterlimit:10;stroke-dasharray:none;stroke-opacity:1" /><path
             inkscape:connector-curvature="0"
             d="m 582.10742,381.59473 -228.5,0"
             id="path3137"
             style="fill:none;stroke:#918f90;stroke-width:0.5;stroke-linecap:butt;stroke-linejoin:miter;stroke-miterlimit:10;stroke-dasharray:none;stroke-opacity:1" /></g></g></g><g
       transform="translate(316.41345,225.66839)"
       id="g3225"><g
         id="g3227" /><g
         mask="url(#mask3253)"
         id="g3273"><g
           id="g3275" /><g
           id="g3287"><g
             clip-path="url(#clipPath3277)"
             id="g3289"><path
               inkscape:connector-curvature="0"
               d="m 535.46582,-73.13623 c 0.62109,0.81934 2.19531,1.0791 4.01758,1.37988 0.99219,0.16455 2.01758,0.33447 2.7959,0.59864 3.34765,1.12988 5.77734,2.4165 8.27636,5.64794 1.96289,3.12403 9.43164,11.63477 21.57813,16.07618 -0.29492,0.002 -0.59766,0.0034 -0.90527,0.0034 -3.75586,0 -7.86329,-0.18115 -10.7168,-0.47314 -15.3291,-1.55908 -22.2959,-5.729 -35.44922,-17.47119 -1.81445,-1.61768 -3.18457,-2.33887 -4.44434,-2.33887 -1.99902,0 -3.47461,1.81592 -5.50097,5.16699 -3.375,5.56641 -7.17969,11.0503 -13.25586,11.62598 -0.20117,0.01953 -0.40723,0.02881 -0.61328,0.02881 -4.06348,4.9e-4 -8.23438,-3.70899 -10.625,-7.38916 2.05078,-0.146 3.89453,-1.05762 5.75879,-2.83887 2.10058,-2.01221 3.458,-6.98437 4.02929,-10.96631 0.43067,-3.00927 0.84864,-5.92822 1.31836,-8.74414 12.20117,1.42041 23.50879,3.9126 33.44629,7.25879 -0.29199,0.78272 -0.33984,1.604 0.29004,2.43506 z"
               id="path3291"
               style="fill:url(#linearGradient3281);fill-opacity:1;fill-rule:nonzero;stroke:none" /></g></g></g></g><g
       transform="translate(316.41345,225.66839)"
       id="g3311"><g
         id="g3313" /><g
         mask="url(#mask3339)"
         id="g3359"><g
           id="g3361" /><g
           id="g3373"><g
             clip-path="url(#clipPath3363)"
             id="g3375"><path
               inkscape:connector-curvature="0"
               d="m 391.10254,-73.13623 c 0.62207,0.81934 2.19629,1.0791 4.01855,1.37988 0.99219,0.16455 2.01758,0.33447 2.7959,0.59864 3.34766,1.12988 5.77637,2.4165 8.27637,5.64794 1.96289,3.12403 9.43164,11.63477 21.57812,16.07618 -0.29589,0.002 -0.59765,0.0034 -0.90527,0.0034 -3.75586,0 -7.86328,-0.18115 -10.71777,-0.47314 -15.32813,-1.55908 -22.2959,-5.729 -35.44922,-17.47119 -1.81348,-1.61768 -3.18457,-2.33887 -4.44531,-2.33887 -1.99707,0 -3.47364,1.81592 -5.5,5.16699 -3.375,5.56641 -7.17871,11.0503 -13.25489,11.62598 -0.20117,0.01953 -0.40722,0.02881 -0.61328,0.02881 -4.06347,4.9e-4 -8.23437,-3.70899 -10.625,-7.38916 2.05078,-0.146 3.89453,-1.05762 5.75879,-2.83887 2.10059,-2.01221 3.45801,-6.98437 4.02832,-10.96631 0.43067,-3.00927 0.84961,-5.92822 1.31836,-8.74414 12.20117,1.42041 23.50977,3.9126 33.44727,7.25879 -0.292,0.78272 -0.34082,1.604 0.28906,2.43506 z"
               id="path3377"
               style="fill:url(#linearGradient3367);fill-opacity:1;fill-rule:nonzero;stroke:none" /></g></g></g></g><g
       transform="translate(316.41345,225.66839)"
       id="g3397"><g
         id="g3399" /><g
         mask="url(#mask3425)"
         id="g3445"><g
           id="g3447" /><g
           id="g3459"><g
             clip-path="url(#clipPath3449)"
             id="g3461"><path
               inkscape:connector-curvature="0"
               d="m 246.73975,-73.13623 c 0.62207,0.81934 2.19629,1.0791 4.01806,1.37988 0.99268,0.16455 2.01758,0.33447 2.79737,0.59864 3.34716,1.12988 5.77587,2.4165 8.27539,5.64794 1.96338,3.12403 9.43164,11.63477 21.57812,16.07618 -0.29541,0.002 -0.59765,0.0034 -0.90576,0.0034 -3.75635,0 -7.86328,-0.18115 -10.7168,-0.47314 -15.3291,-1.55908 -22.2959,-5.729 -35.44922,-17.47119 -1.81396,-1.61768 -3.18505,-2.33887 -4.44482,-2.33887 -1.99854,0 -3.47363,1.81592 -5.50049,5.16699 -3.375,5.56641 -7.1792,11.0503 -13.25537,11.62598 -0.20117,0.01953 -0.40723,0.02881 -0.61328,0.02881 -4.06397,4.9e-4 -8.23389,-3.70899 -10.625,-7.38916 2.05078,-0.146 3.89355,-1.05762 5.7583,-2.83887 2.10156,-2.01221 3.45947,-6.98437 4.02881,-10.96631 0.43115,-3.00927 0.84912,-5.92822 1.31933,-8.74414 12.2002,1.42041 23.50831,3.9126 33.44581,7.25879 -0.29102,0.78272 -0.33985,1.604 0.28955,2.43506 z"
               id="path3463"
               style="fill:url(#linearGradient3453);fill-opacity:1;fill-rule:nonzero;stroke:none" /></g></g></g></g><g
       transform="translate(876.95022,170.81873)"
       id="g3483"><g
         id="g3485" /><g
         mask="url(#mask3511)"
         id="g3531"><g
           id="g3533" /><g
           id="g3545"><g
             clip-path="url(#clipPath3535)"
             id="g3547"><path
               inkscape:connector-curvature="0"
               d="m 102.37744,-73.13623 c 0.62158,0.81934 2.19531,1.0791 4.01758,1.37988 0.99268,0.16455 2.01758,0.33447 2.79687,0.59864 3.34766,1.12988 5.77686,2.4165 8.27637,5.64794 1.9624,3.12403 9.43067,11.63477 21.57764,16.07618 -0.29541,0.002 -0.59766,0.0034 -0.90527,0.0034 -3.75635,0 -7.86377,-0.18115 -10.7168,-0.47314 -15.32959,-1.55908 -22.2959,-5.729 -35.44971,-17.47119 -1.81396,-1.61768 -3.18457,-2.33887 -4.44482,-2.33887 -1.99805,0 -3.47364,1.81592 -5.50049,5.16699 -3.37451,5.56641 -7.1792,11.0503 -13.25537,11.62598 -0.20117,0.01953 -0.40723,0.02881 -0.61328,0.02881 -4.06348,4.9e-4 -8.23438,-3.70899 -10.62452,-7.38916 2.0503,-0.146 3.89356,-1.05762 5.75782,-2.83887 2.10156,-2.01221 3.45898,-6.98437 4.02929,-10.96631 0.43116,-3.00927 0.84913,-5.92822 1.31836,-8.74414 12.20118,1.42041 23.50879,3.9126 33.44629,7.25879 -0.29101,0.78272 -0.33984,1.604 0.29004,2.43506 z"
               id="path3549"
               style="fill:url(#linearGradient3539);fill-opacity:1;fill-rule:nonzero;stroke:none" /></g></g></g></g><g
       id="g3589"
       transform="translate(924.46081,168.9914)"><g
         id="g3591" /><g
         mask="url(#mask3617)"
         id="g3637"><g
           id="g3639" /><g
           id="g3651"><g
             clip-path="url(#clipPath3641)"
             id="g3653"><path
               d="m 329.16602,164.71191 c -16.98438,12.27051 -31.35694,25.11426 -11.82032,43.35987 1.47266,3.20019 -1.08398,6.06543 1.08789,9.31933 1.90039,1.25342 3.92774,0.92285 5.92383,0.9458 -6.90039,6.35987 1.98047,10.44141 6.99414,16.26319 2.10352,6.75635 -8.34961,12.64355 -3.82422,18.61767 2.38086,3.13037 12.86329,3.15918 18.96875,5.22998 9.88477,3.33741 17.0918,7.17725 24.48633,16.75489 4.60547,7.36132 28.24024,36.02441 68.73047,48.18701 -14.38672,-35.15088 -69.42383,-188.95899 -77.0918,-211.28369 -5.58203,18.99609 -15.5625,39.69189 -33.45507,52.60595 z"
               id="path3655"
               style="fill:url(#linearGradient3645);fill-opacity:1;fill-rule:evenodd;stroke:none"
               inkscape:connector-curvature="0" /></g></g></g></g><text
       x="125.92175"
       y="-284.2789"
       id="text3189-5"
       style="font-size:15.23163605px;fill:#0292b0;fill-opacity:1"
       inkscape:export-xdpi="58.034439"
       inkscape:export-ydpi="58.034439"
       inkscape:export-filename="E:\payqwik-gemspace\VIVA\logo120pxhigh.png"
       transform="scale(1,-1)"><tspan
         x="125.92175"
         y="-284.2789"
         id="tspan3191-0"
         style="font-style:italic;font-variant:normal;font-weight:normal;font-stretch:normal;font-size:72.63967133px;font-family:GalanoGrotesque-HeavyItalic;-inkscape-font-specification:'GalanoGrotesque-HeavyItalic Italic';writing-mode:lr-tb;fill:#0292b0;fill-opacity:1;fill-rule:nonzero;stroke:none">VIVA</tspan></text>
<path
       d="m 329.56856,249.35355 c 12.9838,4.82877 24.3982,10.45131 15.1245,25.11081 -0.3787,2.24646 1.752,3.60846 0.9362,6.00341 -0.9927,1.09989 -2.3455,1.23212 -3.6136,1.58032 5.5148,2.82021 0.5621,6.85259 -1.6191,11.32632 -0.161,4.57209 7.5388,6.50394 5.6954,10.99135 -0.9713,2.3528 -7.6546,4.12137 -11.1868,6.43465 -5.7246,3.736 -9.6501,7.3368 -12.6928,14.5547 -1.6514,5.36739 -11.7184,27.21802 -35.4267,41.57839 7.7344,-1.68872 19.0347,-4.98231 26.1648,-7.63685 28.105,-10.44591 38.6115,-21.55479 56.7104,-48.76875 6.104,-9.16831 10.0329,-7.28617 18.3195,0.4536 9.095,8.47466 19.0622,16.71366 30.9494,14.75576 8.4908,-1.38831 15.4089,-11.15574 18.0682,-20.69278 -3.5045,1.01483 -7.4626,0.99795 -12.871,-1.89011 -4.8258,-2.58204 -9.725,-11.04281 -12.5203,-17.35228 -10.6627,-24.04997 -19.5873,-44.1743 -37.848,-56.57376 -16.133,-10.95096 -39.6427,-13.07629 -59.2825,-10.09337 -5.2992,0.80436 -10.4299,1.80567 -15.4533,2.94749 6.8831,10.93338 16.8711,22.19276 30.5456,27.27109 z"
       id="path3205-6"
       style="opacity:1;fill:#0292b0;fill-opacity:1;fill-rule:evenodd;stroke:none"
       inkscape:export-xdpi="15.338291"
       inkscape:export-ydpi="15.338291"
       inkscape:connector-curvature="0"
       inkscape:export-filename="E:\payqwik-gemspace\VIVA\favicon.png" /><text
       x="207.86246"
       y="618.47681"
       id="text3189-5-1"
       style="font-size:14.25548363px;fill:#0292b0;fill-opacity:1"
       inkscape:export-xdpi="55.53109"
       inkscape:export-ydpi="55.53109"
       inkscape:export-filename="E:\payqwik-gemspace\VIVA\logo120pxhigh-alt.png"
       transform="matrix(0,1,1,0,0,0)"><tspan
         x="207.86246"
         y="618.47681"
         id="tspan3191-0-7"
         style="font-style:italic;font-variant:normal;font-weight:normal;font-stretch:normal;font-size:67.98440552px;font-family:GalanoGrotesque-HeavyItalic;-inkscape-font-specification:'GalanoGrotesque-HeavyItalic Italic';writing-mode:lr-tb;fill:#0292b0;fill-opacity:1;fill-rule:nonzero;stroke:none">VIVA</tspan></text>
<path
       d="m 665.16971,251.68316 c 12.9838,4.82877 24.3982,10.45132 15.1245,25.11081 -0.3787,2.24647 1.752,3.60847 0.9361,6.00342 -0.9926,1.09989 -2.3454,1.23212 -3.6135,1.58032 5.5148,2.82021 0.5621,6.85258 -1.6191,11.32632 -0.1611,4.57209 7.5387,6.50393 5.6953,10.99135 -0.9712,2.3528 -7.6545,4.12137 -11.1867,6.43465 -5.7246,3.736 -9.6501,7.3368 -12.6928,14.5547 -1.6514,5.36739 -11.7184,27.21802 -35.4267,41.57839 7.7344,-1.68872 19.0347,-4.98231 26.1648,-7.63685 28.105,-10.44591 38.6115,-21.55479 56.7104,-48.76875 6.104,-9.16832 10.0329,-7.28617 18.3194,0.4536 9.0951,8.47466 19.0622,16.71366 30.9495,14.75576 8.4907,-1.38831 15.4089,-11.15574 18.0682,-20.69278 -3.5045,1.01483 -7.4626,0.99795 -12.871,-1.89011 -4.8258,-2.58204 -9.725,-11.04282 -12.5203,-17.35228 -10.6627,-24.04998 -19.5874,-44.17431 -37.848,-56.57376 -16.133,-10.95096 -39.6427,-13.0763 -59.2825,-10.09338 -5.2992,0.80436 -10.4299,1.80567 -15.4533,2.9475 6.8831,10.93337 16.8711,22.19275 30.5456,27.27109 z"
       id="path3205-6-97"
       style="opacity:1;fill:#0292b0;fill-opacity:1;fill-rule:evenodd;stroke:none"
       inkscape:export-xdpi="55.53109"
       inkscape:export-ydpi="55.53109"
       inkscape:connector-curvature="0"
       inkscape:export-filename="E:\payqwik-gemspace\VIVA\logo120pxhigh-alt.png" /></g></svg>