<?xml version="1.0" encoding="UTF-8" standalone="no"?>
<!-- Created with Inkscape (http://www.inkscape.org/) -->

<svg
   xmlns:dc="http://purl.org/dc/elements/1.1/"
   xmlns:cc="http://creativecommons.org/ns#"
   xmlns:rdf="http://www.w3.org/1999/02/22-rdf-syntax-ns#"
   xmlns:svg="http://www.w3.org/2000/svg"
   xmlns="http://www.w3.org/2000/svg"
   xmlns:xlink="http://www.w3.org/1999/xlink"
   xmlns:sodipodi="http://sodipodi.sourceforge.net/DTD/sodipodi-0.dtd"
   xmlns:inkscape="http://www.inkscape.org/namespaces/inkscape"
   version="1.1"
   width="737.5"
   height="1437.5"
   id="svg2985"
   xml:space="preserve"
   inkscape:version="0.91 r13725"
   sodipodi:docname="VIVA-draft.svg"
   inkscape:export-filename="C:\Users\alec\Documents\GitHub\goldcoinc.github.io\vivacoin-id\brand-book-free-01\brand-book-viva-p2.png"
   inkscape:export-xdpi="600.04065"
   inkscape:export-ydpi="600.04065"><sodipodi:namedview
     pagecolor="#ffffff"
     bordercolor="#666666"
     borderopacity="1"
     objecttolerance="10"
     gridtolerance="10"
     guidetolerance="10"
     inkscape:pageopacity="0"
     inkscape:pageshadow="2"
     inkscape:window-width="1920"
     inkscape:window-height="1018"
     id="namedview318"
     showgrid="false"
     inkscape:zoom="1.3133913"
     inkscape:cx="196.34521"
     inkscape:cy="1112.9812"
     inkscape:window-x="-8"
     inkscape:window-y="-8"
     inkscape:window-maximized="1"
     inkscape:current-layer="g2993" /><metadata
     id="metadata2991"><rdf:RDF><cc:Work
         rdf:about=""><dc:format>image/svg+xml</dc:format><dc:type
           rdf:resource="http://purl.org/dc/dcmitype/StillImage" /><dc:title /></cc:Work></rdf:RDF></metadata><defs
     id="defs2989"><linearGradient
       id="linearGradient4493"><stop
         id="stop4495"
         style="stop-color:#52beff;stop-opacity:1"
         offset="0" /><stop
         id="stop4497"
         style="stop-color:#52beff;stop-opacity:0"
         offset="1" /></linearGradient><clipPath
       id="clipPath2999"><path
         d="m 31.89209,-487.41211 550.21533,0 0,8.67578 -550.21533,0 0,-8.67578 z"
         id="path3001" /></clipPath><clipPath
       id="clipPath3033"><path
         d="m 31.89209,-166.72363 550.21533,0 0,8.67578 -550.21533,0 0,-8.67578 z"
         id="path3035" /></clipPath><clipPath
       id="clipPath3077"><path
         d="m 31.89209,-10.72363 550.21533,0 0,8.67578 -550.21533,0 0,-8.67578 z"
         id="path3079" /></clipPath><clipPath
       id="clipPath3115"><path
         d="m 31.89209,377.27637 550.21533,0 0,8.67578 -550.21533,0 0,-8.67578 z"
         id="path3117" /></clipPath><linearGradient
       x1="370.24902"
       y1="-610.67285"
       x2="233.36674"
       y2="-610.67163"
       id="linearGradient3143"
       gradientUnits="userSpaceOnUse"
       spreadMethod="pad"><stop
         id="stop3145"
         style="stop-color:#b6b5b5;stop-opacity:1"
         offset="0" /><stop
         id="stop3147"
         style="stop-color:#231f20;stop-opacity:1"
         offset="0.87273002" /><stop
         id="stop3149"
         style="stop-color:#231f20;stop-opacity:1"
         offset="0.87273002" /><stop
         id="stop3151"
         style="stop-color:#231f20;stop-opacity:1"
         offset="1" /></linearGradient><linearGradient
       x1="532.31152"
       y1="-49.566891"
       x2="532.31128"
       y2="-105.52448"
       id="linearGradient3215"
       gradientUnits="userSpaceOnUse"
       gradientTransform="matrix(-0.92142756,0.42127899,0.41941943,0.9173603,614.12268,-235.46966)"
       spreadMethod="pad"><stop
         id="stop3217"
         style="stop-color:#75c92b;stop-opacity:1"
         offset="0" /><stop
         id="stop3219"
         style="stop-color:#3b8020;stop-opacity:1"
         offset="0.80606002" /><stop
         id="stop3221"
         style="stop-color:#3b8020;stop-opacity:1"
         offset="1" /></linearGradient><clipPath
       id="clipPath3229"><path
         d="m 490.62305,-82.83008 81.51074,0 0,33.3999 -81.51074,0 0,-33.3999 z"
         id="path3231" /></clipPath><clipPath
       id="clipPath3233"><path
         d="m 8497,24399 -32766,0 0,-32766 32766,0 0,32766 z"
         id="path3235" /></clipPath><mask
       id="mask3237"><g
         id="g3239"><g
           clip-path="url(#clipPath3233)"
           id="g3241" /></g></mask><clipPath
       id="clipPath3243"><path
         d="m 490.62305,-82.83008 81.51074,0 0,33.3999 -81.51074,0 0,-33.3999 z"
         id="path3245" /></clipPath><linearGradient
       x1="537.04492"
       y1="-83.850098"
       x2="530.38068"
       y2="-49.755051"
       id="linearGradient3247"
       gradientUnits="userSpaceOnUse"
       spreadMethod="pad"><stop
         id="stop3249"
         style="stop-color:#ffffff;stop-opacity:1"
         offset="0" /><stop
         id="stop3251"
         style="stop-color:#000000;stop-opacity:1"
         offset="1" /></linearGradient><mask
       id="mask3253"><g
         id="g3255"><g
           clip-path="url(#clipPath3229)"
           id="g3257"><g
             id="g3259"><g
               id="g3261" /><g
               mask="url(#mask3237)"
               id="g3263"><g
                 id="g3265" /><g
                 id="g3267"><g
                   clip-path="url(#clipPath3243)"
                   id="g3269"><path
                     d="m 535.46582,-73.13623 c 0.62109,0.81934 2.19531,1.0791 4.01758,1.37988 0.99219,0.16455 2.01758,0.33447 2.7959,0.59864 3.34765,1.12988 5.77734,2.4165 8.27636,5.64794 1.96289,3.12403 9.43164,11.63477 21.57813,16.07618 -0.29492,0.002 -0.59766,0.0034 -0.90527,0.0034 -3.75586,0 -7.86329,-0.18115 -10.7168,-0.47314 -15.3291,-1.55908 -22.2959,-5.729 -35.44922,-17.47119 -1.81445,-1.61768 -3.18457,-2.33887 -4.44434,-2.33887 -1.99902,0 -3.47461,1.81592 -5.50097,5.16699 -3.375,5.56641 -7.17969,11.0503 -13.25586,11.62598 -0.20117,0.01953 -0.40723,0.02881 -0.61328,0.02881 -4.06348,4.9e-4 -8.23438,-3.70899 -10.625,-7.38916 2.05078,-0.146 3.89453,-1.05762 5.75879,-2.83887 2.10058,-2.01221 3.458,-6.98437 4.02929,-10.96631 0.43067,-3.00927 0.84864,-5.92822 1.31836,-8.74414 12.20117,1.42041 23.50879,3.9126 33.44629,7.25879 -0.29199,0.78272 -0.33984,1.604 0.29004,2.43506 z"
                     id="path3271"
                     style="fill:url(#linearGradient3247);fill-opacity:1;fill-rule:nonzero;stroke:none" /></g></g></g></g></g></g></mask><clipPath
       id="clipPath3277"><path
         d="m 490.62305,-82.83008 81.51074,0 0,33.3999 -81.51074,0 0,-33.3999 z"
         id="path3279" /></clipPath><linearGradient
       x1="537.04492"
       y1="-83.850098"
       x2="530.38068"
       y2="-49.755051"
       id="linearGradient3281"
       gradientUnits="userSpaceOnUse"
       spreadMethod="pad"><stop
         id="stop3283"
         style="stop-color:#ffffff;stop-opacity:1"
         offset="0" /><stop
         id="stop3285"
         style="stop-color:#ffffff;stop-opacity:1"
         offset="1" /></linearGradient><linearGradient
       x1="387.94922"
       y1="-49.566891"
       x2="387.94897"
       y2="-105.52448"
       id="linearGradient3301"
       gradientUnits="userSpaceOnUse"
       gradientTransform="matrix(-0.91834281,0.42796171,0.42607265,0.91428917,626.73976,-177.50866)"
       spreadMethod="pad"><stop
         id="stop3303"
         style="stop-color:#e3028c;stop-opacity:1"
         offset="0" /><stop
         id="stop3305"
         style="stop-color:#39185a;stop-opacity:1"
         offset="0.80606002" /><stop
         id="stop3307"
         style="stop-color:#39185a;stop-opacity:1"
         offset="1" /></linearGradient><clipPath
       id="clipPath3315"><path
         d="m 346.26074,-82.83008 81.51074,0 0,33.3999 -81.51074,0 0,-33.3999 z"
         id="path3317" /></clipPath><clipPath
       id="clipPath3319"><path
         d="m 8497,24399 -32766,0 0,-32766 32766,0 0,32766 z"
         id="path3321" /></clipPath><mask
       id="mask3323"><g
         id="g3325"><g
           clip-path="url(#clipPath3319)"
           id="g3327" /></g></mask><clipPath
       id="clipPath3329"><path
         d="m 346.26074,-82.83008 81.51074,0 0,33.3999 -81.51074,0 0,-33.3999 z"
         id="path3331" /></clipPath><linearGradient
       x1="392.68262"
       y1="-83.849121"
       x2="386.01855"
       y2="-49.755192"
       id="linearGradient3333"
       gradientUnits="userSpaceOnUse"
       spreadMethod="pad"><stop
         id="stop3335"
         style="stop-color:#ffffff;stop-opacity:1"
         offset="0" /><stop
         id="stop3337"
         style="stop-color:#000000;stop-opacity:1"
         offset="1" /></linearGradient><mask
       id="mask3339"><g
         id="g3341"><g
           clip-path="url(#clipPath3315)"
           id="g3343"><g
             id="g3345"><g
               id="g3347" /><g
               mask="url(#mask3323)"
               id="g3349"><g
                 id="g3351" /><g
                 id="g3353"><g
                   clip-path="url(#clipPath3329)"
                   id="g3355"><path
                     d="m 391.10254,-73.13623 c 0.62207,0.81934 2.19629,1.0791 4.01855,1.37988 0.99219,0.16455 2.01758,0.33447 2.7959,0.59864 3.34766,1.12988 5.77637,2.4165 8.27637,5.64794 1.96289,3.12403 9.43164,11.63477 21.57812,16.07618 -0.29589,0.002 -0.59765,0.0034 -0.90527,0.0034 -3.75586,0 -7.86328,-0.18115 -10.71777,-0.47314 -15.32813,-1.55908 -22.2959,-5.729 -35.44922,-17.47119 -1.81348,-1.61768 -3.18457,-2.33887 -4.44531,-2.33887 -1.99707,0 -3.47364,1.81592 -5.5,5.16699 -3.375,5.56641 -7.17871,11.0503 -13.25489,11.62598 -0.20117,0.01953 -0.40722,0.02881 -0.61328,0.02881 -4.06347,4.9e-4 -8.23437,-3.70899 -10.625,-7.38916 2.05078,-0.146 3.89453,-1.05762 5.75879,-2.83887 2.10059,-2.01221 3.45801,-6.98437 4.02832,-10.96631 0.43067,-3.00927 0.84961,-5.92822 1.31836,-8.74414 12.20117,1.42041 23.50977,3.9126 33.44727,7.25879 -0.292,0.78272 -0.34082,1.604 0.28906,2.43506 z"
                     id="path3357"
                     style="fill:url(#linearGradient3333);fill-opacity:1;fill-rule:nonzero;stroke:none" /></g></g></g></g></g></g></mask><clipPath
       id="clipPath3363"><path
         d="m 346.26074,-82.83008 81.51074,0 0,33.3999 -81.51074,0 0,-33.3999 z"
         id="path3365" /></clipPath><linearGradient
       x1="392.68262"
       y1="-83.849121"
       x2="386.01855"
       y2="-49.755192"
       id="linearGradient3367"
       gradientUnits="userSpaceOnUse"
       spreadMethod="pad"><stop
         id="stop3369"
         style="stop-color:#ffffff;stop-opacity:1"
         offset="0" /><stop
         id="stop3371"
         style="stop-color:#ffffff;stop-opacity:1"
         offset="1" /></linearGradient><linearGradient
       x1="243.58643"
       y1="-49.566891"
       x2="243.58618"
       y2="-105.52448"
       id="linearGradient3387"
       gradientUnits="userSpaceOnUse"
       gradientTransform="matrix(-0.91806351,0.42856054,0.42666883,0.9140111,640.71933,-116.18257)"
       spreadMethod="pad"><stop
         id="stop3389"
         style="stop-color:#75d3f6;stop-opacity:1"
         offset="0" /><stop
         id="stop3391"
         style="stop-color:#0a93c1;stop-opacity:1"
         offset="0.80606002" /><stop
         id="stop3393"
         style="stop-color:#0a93c1;stop-opacity:1"
         offset="1" /></linearGradient><clipPath
       id="clipPath3401"><path
         d="m 201.89795,-82.83008 81.51074,0 0,33.3999 -81.51074,0 0,-33.3999 z"
         id="path3403" /></clipPath><clipPath
       id="clipPath3405"><path
         d="m 8497,24399 -32766,0 0,-32766 32766,0 0,32766 z"
         id="path3407" /></clipPath><mask
       id="mask3409"><g
         id="g3411"><g
           clip-path="url(#clipPath3405)"
           id="g3413" /></g></mask><clipPath
       id="clipPath3415"><path
         d="m 201.89795,-82.83008 81.51074,0 0,33.3999 -81.51074,0 0,-33.3999 z"
         id="path3417" /></clipPath><linearGradient
       x1="248.31934"
       y1="-83.849609"
       x2="241.65506"
       y2="-49.754559"
       id="linearGradient3419"
       gradientUnits="userSpaceOnUse"
       spreadMethod="pad"><stop
         id="stop3421"
         style="stop-color:#ffffff;stop-opacity:1"
         offset="0" /><stop
         id="stop3423"
         style="stop-color:#000000;stop-opacity:1"
         offset="1" /></linearGradient><mask
       id="mask3425"><g
         id="g3427"><g
           clip-path="url(#clipPath3401)"
           id="g3429"><g
             id="g3431"><g
               id="g3433" /><g
               mask="url(#mask3409)"
               id="g3435"><g
                 id="g3437" /><g
                 id="g3439"><g
                   clip-path="url(#clipPath3415)"
                   id="g3441"><path
                     d="m 246.73975,-73.13623 c 0.62207,0.81934 2.19629,1.0791 4.01806,1.37988 0.99268,0.16455 2.01758,0.33447 2.79737,0.59864 3.34716,1.12988 5.77587,2.4165 8.27539,5.64794 1.96338,3.12403 9.43164,11.63477 21.57812,16.07618 -0.29541,0.002 -0.59765,0.0034 -0.90576,0.0034 -3.75635,0 -7.86328,-0.18115 -10.7168,-0.47314 -15.3291,-1.55908 -22.2959,-5.729 -35.44922,-17.47119 -1.81396,-1.61768 -3.18505,-2.33887 -4.44482,-2.33887 -1.99854,0 -3.47363,1.81592 -5.50049,5.16699 -3.375,5.56641 -7.1792,11.0503 -13.25537,11.62598 -0.20117,0.01953 -0.40723,0.02881 -0.61328,0.02881 -4.06397,4.9e-4 -8.23389,-3.70899 -10.625,-7.38916 2.05078,-0.146 3.89355,-1.05762 5.7583,-2.83887 2.10156,-2.01221 3.45947,-6.98437 4.02881,-10.96631 0.43115,-3.00927 0.84912,-5.92822 1.31933,-8.74414 12.2002,1.42041 23.50831,3.9126 33.44581,7.25879 -0.29102,0.78272 -0.33985,1.604 0.28955,2.43506 z"
                     id="path3443"
                     style="fill:url(#linearGradient3419);fill-opacity:1;fill-rule:nonzero;stroke:none" /></g></g></g></g></g></g></mask><clipPath
       id="clipPath3449"><path
         d="m 201.89795,-82.83008 81.51074,0 0,33.3999 -81.51074,0 0,-33.3999 z"
         id="path3451" /></clipPath><linearGradient
       x1="248.31934"
       y1="-83.849609"
       x2="241.65506"
       y2="-49.754559"
       id="linearGradient3453"
       gradientUnits="userSpaceOnUse"
       spreadMethod="pad"><stop
         id="stop3455"
         style="stop-color:#ffffff;stop-opacity:1"
         offset="0" /><stop
         id="stop3457"
         style="stop-color:#ffffff;stop-opacity:1"
         offset="1" /></linearGradient><linearGradient
       x1="99.224121"
       y1="-49.566891"
       x2="99.223877"
       y2="-105.52448"
       id="linearGradient3473"
       gradientUnits="userSpaceOnUse"
       gradientTransform="matrix(-0.92301476,0.41779001,0.41594584,0.9189405,653.27583,-51.92969)"
       spreadMethod="pad"><stop
         id="stop3475"
         style="stop-color:#f9b00b;stop-opacity:1"
         offset="0" /><stop
         id="stop3477"
         style="stop-color:#ec3d1e;stop-opacity:1"
         offset="0.84241998" /><stop
         id="stop3479"
         style="stop-color:#ec3d1e;stop-opacity:1"
         offset="1" /></linearGradient><clipPath
       id="clipPath3487"><path
         d="m 57.53564,-82.83008 81.51026,0 0,33.3999 -81.51026,0 0,-33.3999 z"
         id="path3489" /></clipPath><clipPath
       id="clipPath3491"><path
         d="m 8497,24399 -32766,0 0,-32766 32766,0 0,32766 z"
         id="path3493" /></clipPath><mask
       id="mask3495"><g
         id="g3497"><g
           clip-path="url(#clipPath3491)"
           id="g3499" /></g></mask><clipPath
       id="clipPath3501"><path
         d="m 57.53564,-82.83008 81.51026,0 0,33.3999 -81.51026,0 0,-33.3999 z"
         id="path3503" /></clipPath><linearGradient
       x1="103.95703"
       y1="-83.849609"
       x2="97.292763"
       y2="-49.754559"
       id="linearGradient3505"
       gradientUnits="userSpaceOnUse"
       spreadMethod="pad"><stop
         id="stop3507"
         style="stop-color:#ffffff;stop-opacity:1"
         offset="0" /><stop
         id="stop3509"
         style="stop-color:#000000;stop-opacity:1"
         offset="1" /></linearGradient><mask
       id="mask3511"><g
         id="g3513"><g
           clip-path="url(#clipPath3487)"
           id="g3515"><g
             id="g3517"><g
               id="g3519" /><g
               mask="url(#mask3495)"
               id="g3521"><g
                 id="g3523" /><g
                 id="g3525"><g
                   clip-path="url(#clipPath3501)"
                   id="g3527"><path
                     d="m 102.37744,-73.13623 c 0.62158,0.81934 2.19531,1.0791 4.01758,1.37988 0.99268,0.16455 2.01758,0.33447 2.79687,0.59864 3.34766,1.12988 5.77686,2.4165 8.27637,5.64794 1.9624,3.12403 9.43067,11.63477 21.57764,16.07618 -0.29541,0.002 -0.59766,0.0034 -0.90527,0.0034 -3.75635,0 -7.86377,-0.18115 -10.7168,-0.47314 -15.32959,-1.55908 -22.2959,-5.729 -35.44971,-17.47119 -1.81396,-1.61768 -3.18457,-2.33887 -4.44482,-2.33887 -1.99805,0 -3.47364,1.81592 -5.50049,5.16699 -3.37451,5.56641 -7.1792,11.0503 -13.25537,11.62598 -0.20117,0.01953 -0.40723,0.02881 -0.61328,0.02881 -4.06348,4.9e-4 -8.23438,-3.70899 -10.62452,-7.38916 2.0503,-0.146 3.89356,-1.05762 5.75782,-2.83887 2.10156,-2.01221 3.45898,-6.98437 4.02929,-10.96631 0.43116,-3.00927 0.84913,-5.92822 1.31836,-8.74414 12.20118,1.42041 23.50879,3.9126 33.44629,7.25879 -0.29101,0.78272 -0.33984,1.604 0.29004,2.43506 z"
                     id="path3529"
                     style="fill:url(#linearGradient3505);fill-opacity:1;fill-rule:nonzero;stroke:none" /></g></g></g></g></g></g></mask><clipPath
       id="clipPath3535"><path
         d="m 57.53564,-82.83008 81.51026,0 0,33.3999 -81.51026,0 0,-33.3999 z"
         id="path3537" /></clipPath><linearGradient
       x1="103.95703"
       y1="-83.849609"
       x2="97.292763"
       y2="-49.754559"
       id="linearGradient3539"
       gradientUnits="userSpaceOnUse"
       spreadMethod="pad"><stop
         id="stop3541"
         style="stop-color:#ffffff;stop-opacity:1"
         offset="0" /><stop
         id="stop3543"
         style="stop-color:#ffffff;stop-opacity:1"
         offset="1" /></linearGradient><linearGradient
       x1="332.77051"
       y1="327.38916"
       x2="249.76999"
       y2="134.39108"
       id="linearGradient3579"
       gradientUnits="userSpaceOnUse"
       spreadMethod="pad"><stop
         id="stop3581"
         style="stop-color:#00adef;stop-opacity:1"
         offset="0" /><stop
         id="stop3583"
         style="stop-color:#0c5087;stop-opacity:1"
         offset="0.80606002" /><stop
         id="stop3585"
         style="stop-color:#0c5087;stop-opacity:1"
         offset="1" /></linearGradient><clipPath
       id="clipPath3593"><path
         d="m 308.02246,112.10596 131.69043,0 0,211.28369 -131.69043,0 0,-211.28369 z"
         id="path3595" /></clipPath><clipPath
       id="clipPath3597"><path
         d="m 8497,24399 -32766,0 0,-32766 32766,0 0,32766 z"
         id="path3599" /></clipPath><mask
       id="mask3601"><g
         id="g3603"><g
           clip-path="url(#clipPath3597)"
           id="g3605" /></g></mask><clipPath
       id="clipPath3607"><path
         d="m 308.02246,112.10596 131.69043,0 0,211.28369 -131.69043,0 0,-211.28369 z"
         id="path3609" /></clipPath><radialGradient
       cx="573.92383"
       cy="133"
       r="277.04648"
       fx="573.92383"
       fy="133"
       id="radialGradient3611"
       gradientUnits="userSpaceOnUse"
       spreadMethod="pad"><stop
         id="stop3613"
         style="stop-color:#000000;stop-opacity:1"
         offset="0" /><stop
         id="stop3615"
         style="stop-color:#b3b3b3;stop-opacity:1"
         offset="1" /></radialGradient><mask
       id="mask3617"><g
         id="g3619"><g
           clip-path="url(#clipPath3593)"
           id="g3621"><g
             id="g3623"><g
               id="g3625" /><g
               mask="url(#mask3601)"
               id="g3627"><g
                 id="g3629" /><g
                 id="g3631"><g
                   clip-path="url(#clipPath3607)"
                   id="g3633"><path
                     d="m 329.16602,164.71191 c -16.98438,12.27051 -31.35694,25.11426 -11.82032,43.35987 1.47266,3.20019 -1.08398,6.06543 1.08789,9.31933 1.90039,1.25342 3.92774,0.92285 5.92383,0.9458 -6.90039,6.35987 1.98047,10.44141 6.99414,16.26319 2.10352,6.75635 -8.34961,12.64355 -3.82422,18.61767 2.38086,3.13037 12.86329,3.15918 18.96875,5.22998 9.88477,3.33741 17.0918,7.17725 24.48633,16.75489 4.60547,7.36132 28.24024,36.02441 68.73047,48.18701 -14.38672,-35.15088 -69.42383,-188.95899 -77.0918,-211.28369 -5.58203,18.99609 -15.5625,39.69189 -33.45507,52.60595 z"
                     id="path3635"
                     style="fill:url(#radialGradient3611);fill-opacity:1;fill-rule:evenodd;stroke:none" /></g></g></g></g></g></g></mask><clipPath
       id="clipPath3641"><path
         d="m 308.02246,112.10596 131.69043,0 0,211.28369 -131.69043,0 0,-211.28369 z"
         id="path3643" /></clipPath><linearGradient
       x1="407.74023"
       y1="214.81494"
       x2="335.86383"
       y2="246.88181"
       id="linearGradient3645"
       gradientUnits="userSpaceOnUse"
       spreadMethod="pad"><stop
         id="stop3647"
         style="stop-color:#ffffff;stop-opacity:1"
         offset="0" /><stop
         id="stop3649"
         style="stop-color:#bdbcbc;stop-opacity:1"
         offset="1" /></linearGradient><clipPath
       id="clipPath3661"><path
         d="m 197.04297,226.27197 234.51367,0 0,96.09815 -234.51367,0 0,-96.09815 z"
         id="path3663" /></clipPath><clipPath
       id="clipPath3665"><path
         d="m 8497,24399 -32766,0 0,-32766 32766,0 0,32766 z"
         id="path3667" /></clipPath><mask
       id="mask3669"><g
         id="g3671"><g
           clip-path="url(#clipPath3665)"
           id="g3673" /></g></mask><clipPath
       id="clipPath3675"><path
         d="m 197.04297,226.27197 234.51367,0 0,96.09815 -234.51367,0 0,-96.09815 z"
         id="path3677" /></clipPath><linearGradient
       x1="330.62012"
       y1="223.25049"
       x2="311.36288"
       y2="321.77222"
       id="linearGradient3679"
       gradientUnits="userSpaceOnUse"
       spreadMethod="pad"><stop
         id="stop3681"
         style="stop-color:#ffffff;stop-opacity:1"
         offset="0" /><stop
         id="stop3683"
         style="stop-color:#000000;stop-opacity:1"
         offset="1" /></linearGradient><mask
       id="mask3685"><g
         id="g3687"><g
           clip-path="url(#clipPath3661)"
           id="g3689"><g
             id="g3691"><g
               id="g3693" /><g
               mask="url(#mask3669)"
               id="g3695"><g
                 id="g3697" /><g
                 id="g3699"><g
                   clip-path="url(#clipPath3675)"
                   id="g3701"><path
                     d="m 326.05469,254.16357 c 1.79101,2.35645 6.32031,3.10498 11.56445,3.97266 2.85352,0.47217 5.80469,0.95996 8.04297,1.71973 9.63281,3.25097 16.62109,6.95508 23.81641,16.25049 5.64648,8.98779 27.13086,33.47363 62.07812,46.25341 -0.84766,0.006 -1.71875,0.0103 -2.60351,0.0103 -10.81055,0 -22.625,-0.52198 -30.83399,-1.36231 -44.10547,-4.48388 -64.15039,-16.48437 -101.99365,-50.26562 -5.21875,-4.6543 -9.16211,-6.72998 -12.78809,-6.72998 -5.74756,0 -9.9956,5.22412 -15.82373,14.86425 -9.71191,16.01807 -20.65722,31.79542 -38.13818,33.45167 -0.57959,0.0557 -1.17285,0.0835 -1.76514,0.0845 -11.69336,4.9e-4 -23.69092,-10.67334 -30.56738,-21.2627 5.89648,-0.41845 11.20166,-3.04248 16.56445,-8.16601 6.04785,-5.79004 9.95264,-20.09522 11.59082,-31.55323 1.24121,-8.65771 2.4458,-17.05517 3.79737,-25.15869 35.10156,4.08643 67.63769,11.25879 96.22705,20.88623 -0.83594,2.25147 -0.97852,4.61573 0.83203,7.00537 z"
                     id="path3703"
                     style="fill:url(#linearGradient3679);fill-opacity:1;fill-rule:nonzero;stroke:none" /></g></g></g></g></g></g></mask><clipPath
       id="clipPath3709"><path
         d="m 197.04297,226.27197 234.51367,0 0,96.09815 -234.51367,0 0,-96.09815 z"
         id="path3711" /></clipPath><linearGradient
       x1="330.62012"
       y1="223.25049"
       x2="311.36288"
       y2="321.77222"
       id="linearGradient3713"
       gradientUnits="userSpaceOnUse"
       spreadMethod="pad"><stop
         id="stop3715"
         style="stop-color:#ffffff;stop-opacity:1"
         offset="0" /><stop
         id="stop3717"
         style="stop-color:#ffffff;stop-opacity:1"
         offset="1" /></linearGradient><linearGradient
       x1="318.21826"
       y1="307.09042"
       x2="378.64154"
       y2="307.09042"
       id="linearGradient4499"
       xlink:href="#linearGradient4493"
       gradientUnits="userSpaceOnUse" /></defs><g
     transform="matrix(1.25,0,0,-1.25,-12.5,500)"
     id="g2993"><g
       id="g2995"><g
         id="g2997" /><g
         id="g3003"><g
           clip-path="url(#clipPath2999)"
           id="g3005"><path
             d="m 270.00635,-483.29688 0.81592,0 0,-3.708 c -0.15235,-0.0635 -0.4502,-0.14551 -0.89405,-0.24512 -0.44384,-0.10059 -0.99023,-0.15039 -1.63818,-0.15039 -0.54395,0 -1.04785,0.0957 -1.51172,0.28809 -0.46436,0.1914 -0.86621,0.46972 -1.20605,0.83398 -0.34034,0.36426 -0.60596,0.81543 -0.79786,1.35547 -0.19238,0.54004 -0.28808,1.1582 -0.28808,1.85449 0,0.69629 0.10351,1.31348 0.31201,1.85352 0.20801,0.54004 0.48975,0.99218 0.8457,1.35644 0.35596,0.36426 0.77002,0.6416 1.24219,0.83399 0.47168,0.19238 0.97607,0.28808 1.51172,0.28808 0.61621,0 1.12402,-0.0664 1.52441,-0.19824 0.39991,-0.13184 0.6919,-0.25781 0.87598,-0.37793 l -0.27637,-0.69629 c -0.22363,0.16016 -0.52783,0.29004 -0.91162,0.39063 -0.38428,0.0996 -0.80029,0.14941 -1.24805,0.14941 -0.41601,0 -0.8081,-0.0762 -1.17626,-0.22754 -0.36768,-0.15234 -0.68799,-0.37988 -0.95997,-0.68457 -0.27197,-0.30371 -0.48584,-0.67969 -0.64209,-1.12793 -0.15576,-0.44824 -0.23388,-0.96777 -0.23388,-1.55957 0,-0.55176 0.064,-1.0498 0.19189,-1.49414 0.12793,-0.44434 0.32227,-0.82422 0.58203,-1.13965 0.26026,-0.3164 0.58203,-0.55859 0.96631,-0.72656 0.38379,-0.16797 0.82764,-0.25195 1.33203,-0.25195 0.40772,0 0.75,0.0225 1.02588,0.0664 0.27588,0.0439 0.46192,0.0859 0.55811,0.12598 l 0,3.1914 z"
             id="path3007"
             style="fill:#918f90;fill-opacity:1;fill-rule:nonzero;stroke:none" /><path
             d="m 281.26221,-481.41211 c 0,-0.62402 -0.16407,-1.11621 -0.49219,-1.47656 -0.32813,-0.35938 -0.75977,-0.62012 -1.2959,-0.7793 0.12793,-0.16016 0.29395,-0.37695 0.49805,-0.64844 0.2041,-0.27246 0.41406,-0.57031 0.62988,-0.89355 0.21631,-0.32422 0.42822,-0.66211 0.63623,-1.01465 0.20801,-0.35156 0.38379,-0.6875 0.52783,-1.00781 l -0.87597,0 c -0.16797,0.32031 -0.3501,0.63965 -0.5459,0.95996 -0.19629,0.32031 -0.396,0.62988 -0.6001,0.92969 -0.2041,0.30078 -0.40185,0.57812 -0.59375,0.83398 -0.19238,0.25586 -0.36035,0.48047 -0.50439,0.67285 -0.25586,-0.0244 -0.51172,-0.0361 -0.76758,-0.0361 l -1.34424,0 0,-3.36035 -0.81592,0 0,8.16015 c 0.28809,0.0801 0.62598,0.1377 1.01416,0.17383 0.3877,0.0361 0.74561,0.0537 1.07373,0.0537 1.14405,0 2.00586,-0.21582 2.58594,-0.64746 0.58008,-0.43261 0.87012,-1.07226 0.87012,-1.91992 m -3.35987,1.85938 c -0.3042,0 -0.57031,-0.01 -0.79834,-0.0293 -0.22802,-0.0205 -0.41796,-0.0381 -0.56982,-0.0547 l 0,-3.54004 1.12793,0 c 0.37598,0 0.73193,0.0186 1.06787,0.0547 0.33643,0.0361 0.62793,0.11523 0.87598,0.23926 0.24804,0.12402 0.44433,0.30273 0.58838,0.53418 0.14404,0.23242 0.21582,0.54785 0.21582,0.94824 0,0.36816 -0.0718,0.67187 -0.21582,0.91211 -0.14405,0.24023 -0.33204,0.42969 -0.56397,0.57031 -0.23242,0.13965 -0.49805,0.23535 -0.79834,0.28711 -0.2998,0.0527 -0.60986,0.0781 -0.92969,0.0781 z"
             id="path3009"
             style="fill:#918f90;fill-opacity:1;fill-rule:nonzero;stroke:none" /><path
             d="m 292.07373,-487.23242 c -0.15869,0.4082 -0.30469,0.80078 -0.43799,1.17871 -0.1333,0.37695 -0.26025,0.74414 -0.38183,1.10156 l -4.0625,0 c -0.13868,-0.35937 -0.27491,-0.72754 -0.40772,-1.10547 -0.13281,-0.37695 -0.27344,-0.76855 -0.42139,-1.1748 l -0.85205,0 c 0.31543,0.86523 0.61377,1.67187 0.89502,2.41992 0.28077,0.74805 0.55616,1.45508 0.82618,2.12207 0.27001,0.66699 0.53857,1.30859 0.80468,1.92383 0.26612,0.61426 0.5459,1.23144 0.83985,1.85058 l 0.71923,0 c 0.29346,-0.61621 0.57178,-1.23242 0.83497,-1.84863 0.26318,-0.61621 0.53027,-1.25781 0.80127,-1.9248 0.27099,-0.66602 0.54589,-1.37403 0.82373,-2.12305 0.27832,-0.74902 0.58496,-1.55469 0.91894,-2.41992 l -0.90039,0 m -2.86182,7.37988 c -0.30078,-0.69043 -0.59375,-1.3916 -0.87939,-2.10254 -0.28516,-0.71094 -0.58008,-1.47851 -0.88525,-2.30176 l 3.54931,0 c -0.30713,0.82422 -0.60595,1.59278 -0.89697,2.30469 -0.29102,0.71192 -0.58691,1.41211 -0.8877,2.09961 z"
             id="path3011"
             style="fill:#918f90;fill-opacity:1;fill-rule:nonzero;stroke:none" /><path
             d="m 298.30225,-487.23242 0,3.41992 c -0.57032,0.87207 -1.09473,1.71387 -1.57227,2.52637 -0.47803,0.81152 -0.92187,1.60156 -1.33154,2.37011 l 0.94775,0 c 0.33692,-0.7041 0.70801,-1.41894 1.11279,-2.14257 0.40528,-0.72364 0.82813,-1.41407 1.26954,-2.07032 0.4248,0.65625 0.84179,1.34668 1.25097,2.07032 0.40918,0.72363 0.78565,1.43847 1.13086,2.14257 l 0.8877,0 c -0.42383,-0.76074 -0.8711,-1.55078 -1.34375,-2.37011 -0.47217,-0.82032 -0.98389,-1.6543 -1.53614,-2.50196 l 0,-3.44433 -0.81591,0 z"
             id="path3013"
             style="fill:#918f90;fill-opacity:1;fill-rule:nonzero;stroke:none" /><path
             d="m 307.97461,-486.7041 c 0.64746,0 1.15137,0.11816 1.51172,0.35449 0.35937,0.23633 0.53906,0.61914 0.53906,1.14844 0,0.30469 -0.0576,0.55957 -0.17383,0.76367 -0.11523,0.2041 -0.26953,0.37695 -0.46093,0.51758 -0.19336,0.13965 -0.41211,0.25976 -0.66016,0.35937 -0.24805,0.0996 -0.50879,0.20508 -0.78027,0.31641 -0.34473,0.13476 -0.65235,0.27344 -0.92481,0.41699 -0.27148,0.14356 -0.50391,0.30469 -0.69531,0.48438 -0.19141,0.18066 -0.33789,0.38574 -0.4375,0.61816 -0.10059,0.23242 -0.15039,0.50391 -0.15039,0.81641 0,0.71191 0.23633,1.25195 0.70801,1.62011 0.47168,0.36719 1.12793,0.55176 1.96777,0.55176 0.22363,0 0.44336,-0.0166 0.66016,-0.0478 0.21582,-0.0322 0.41796,-0.0742 0.60546,-0.12598 0.18848,-0.0527 0.36036,-0.11035 0.51661,-0.17382 0.15527,-0.0645 0.28613,-0.13282 0.38964,-0.20411 l -0.28808,-0.68457 c -0.23145,0.16016 -0.51465,0.28809 -0.84571,0.38379 -0.33203,0.0967 -0.69042,0.14453 -1.07421,0.14453 -0.26368,0 -0.50586,-0.0264 -0.72559,-0.0781 -0.2207,-0.0518 -0.41016,-0.13574 -0.57031,-0.25195 -0.16016,-0.11622 -0.28614,-0.26172 -0.37793,-0.43848 -0.0928,-0.17578 -0.1377,-0.3877 -0.1377,-0.63574 0,-0.25586 0.0478,-0.47168 0.14356,-0.64746 0.0967,-0.17676 0.22949,-0.32813 0.40136,-0.45606 0.17286,-0.12793 0.375,-0.24414 0.60743,-0.34863 0.23144,-0.10352 0.48339,-0.21192 0.75586,-0.32324 0.32714,-0.13672 0.63671,-0.27246 0.92968,-0.40821 0.29102,-0.13672 0.5459,-0.2959 0.76172,-0.48047 0.21582,-0.18359 0.38867,-0.4082 0.51563,-0.67187 0.1289,-0.26367 0.19238,-0.58789 0.19238,-0.97168 0,-0.75195 -0.2627,-1.31641 -0.78613,-1.69238 -0.52344,-0.37598 -1.23438,-0.56348 -2.12989,-0.56348 -0.31933,0 -0.6123,0.0195 -0.87597,0.0596 -0.26367,0.04 -0.5,0.0898 -0.70801,0.15039 -0.20801,0.0596 -0.38379,0.12207 -0.52832,0.18555 -0.14356,0.0644 -0.25586,0.12012 -0.33594,0.16797 l 0.26367,0.708 c 0.0801,-0.0479 0.18848,-0.10351 0.32422,-0.16796 0.13672,-0.0635 0.29688,-0.12598 0.48047,-0.18555 0.1836,-0.0605 0.3916,-0.11035 0.62402,-0.15039 0.23145,-0.04 0.48731,-0.0596 0.76856,-0.0596 z"
             id="path3015"
             style="fill:#918f90;fill-opacity:1;fill-rule:nonzero;stroke:none" /><path
             d="m 318.8457,-487.41211 c -0.53515,0 -1.0332,0.0957 -1.49414,0.28809 -0.45898,0.1914 -0.85937,0.47168 -1.19922,0.83984 -0.33984,0.36719 -0.60839,0.82129 -0.80468,1.36133 -0.19532,0.54004 -0.29297,1.1582 -0.29297,1.85449 0,0.69629 0.10547,1.31348 0.31738,1.85352 0.21191,0.54004 0.49316,0.99414 0.84668,1.3623 0.35156,0.36816 0.75977,0.64649 1.22266,0.83399 0.46484,0.18847 0.94922,0.28222 1.45312,0.28222 0.31152,0 0.5957,-0.0205 0.85156,-0.0605 0.25586,-0.04 0.48047,-0.0898 0.67188,-0.14941 0.19141,-0.0606 0.35547,-0.12012 0.49219,-0.17969 0.13574,-0.0605 0.24023,-0.11425 0.3125,-0.16211 l -0.26465,-0.708 c -0.2002,0.12011 -0.4541,0.2373 -0.76172,0.35351 -0.30762,0.11621 -0.69043,0.17383 -1.14551,0.17383 -0.52148,0 -0.97461,-0.0879 -1.36328,-0.26367 -0.3877,-0.17578 -0.71289,-0.42383 -0.97754,-0.74414 -0.26367,-0.32032 -0.46191,-0.7002 -0.59375,-1.13965 -0.13183,-0.44043 -0.19824,-0.92871 -0.19824,-1.46387 0,-0.55273 0.0664,-1.05078 0.19824,-1.49414 0.13184,-0.44433 0.3252,-0.82226 0.58203,-1.13379 0.25586,-0.3125 0.56934,-0.55273 0.94239,-0.7207 0.37109,-0.16797 0.79687,-0.25195 1.27734,-0.25195 0.52832,0 0.9707,0.0498 1.32617,0.15039 0.35547,0.0996 0.62598,0.20214 0.81055,0.30566 l 0.22754,-0.69629 c -0.0557,-0.04 -0.15235,-0.0859 -0.28809,-0.13769 -0.13672,-0.0518 -0.30859,-0.10547 -0.51562,-0.16211 -0.20899,-0.0557 -0.44922,-0.10157 -0.72071,-0.1377 -0.27148,-0.0361 -0.57617,-0.0537 -0.91211,-0.0537 z"
             id="path3017"
             style="fill:#918f90;fill-opacity:1;fill-rule:nonzero;stroke:none" /><path
             d="m 331.56543,-487.23242 c -0.15918,0.4082 -0.30469,0.80078 -0.43848,1.17871 -0.13281,0.37695 -0.25976,0.74414 -0.38086,1.10156 l -4.0625,0 c -0.13867,-0.35937 -0.27539,-0.72754 -0.4082,-1.10547 -0.13281,-0.37695 -0.27344,-0.76855 -0.42187,-1.1748 l -0.85157,0 c 0.31543,0.86523 0.61328,1.67187 0.89453,2.41992 0.28125,0.74805 0.55665,1.45508 0.82618,2.12207 0.2705,0.66699 0.53906,1.30859 0.80468,1.92383 0.26661,0.61426 0.54688,1.23144 0.83985,1.85058 l 0.71972,0 c 0.29395,-0.61621 0.57129,-1.23242 0.83497,-1.84863 0.26367,-0.61621 0.53027,-1.25781 0.80078,-1.9248 0.27148,-0.66602 0.54687,-1.37403 0.82422,-2.12305 0.27832,-0.74902 0.58496,-1.55469 0.91894,-2.41992 l -0.90039,0 m -2.8623,7.37988 c -0.30079,-0.69043 -0.59375,-1.3916 -0.87891,-2.10254 -0.28516,-0.71094 -0.58008,-1.47851 -0.88477,-2.30176 l 3.54883,0 c -0.30664,0.82422 -0.60547,1.59278 -0.89648,2.30469 -0.29102,0.71192 -0.58789,1.41211 -0.88867,2.09961 z"
             id="path3019"
             style="fill:#918f90;fill-opacity:1;fill-rule:nonzero;stroke:none" /><path
             d="m 341.38086,-486.52441 0,-0.70801 -4.72656,0 0,8.3164 0.8164,0 0,-7.60839 3.91016,0 z"
             id="path3021"
             style="fill:#918f90;fill-opacity:1;fill-rule:nonzero;stroke:none" /><path
             d="m 345.67773,-487.23242 0,8.3164 4.80079,0 0,-0.708 -3.98438,0 0,-2.89258 3.55274,0 0,-0.69629 -3.55274,0 0,-3.31152 4.29688,0 0,-0.70801 -5.11329,0 z"
             id="path3023"
             style="fill:#918f90;fill-opacity:1;fill-rule:nonzero;stroke:none" /><path
             d="m 260.39209,-483.09375 -228.5,0"
             id="path3025"
             style="fill:none;stroke:#918f90;stroke-width:0.5;stroke-linecap:butt;stroke-linejoin:miter;stroke-miterlimit:10;stroke-opacity:1;stroke-dasharray:none" /><path
             d="m 582.10742,-483.09375 -228.5,0"
             id="path3027"
             style="fill:none;stroke:#918f90;stroke-width:0.5;stroke-linecap:butt;stroke-linejoin:miter;stroke-miterlimit:10;stroke-opacity:1;stroke-dasharray:none" /></g></g></g><g
       id="g3029"><g
         id="g3031" /><g
         id="g3037"><g
           clip-path="url(#clipPath3033)"
           id="g3039"><path
             d="m 237.97266,-162.37988 c 0,-0.71192 -0.11231,-1.33203 -0.33594,-1.86035 -0.22412,-0.52735 -0.53858,-0.96778 -0.94238,-1.31934 -0.40381,-0.35254 -0.88575,-0.61621 -1.4458,-0.79199 -0.56006,-0.17676 -1.17627,-0.26465 -1.84815,-0.26465 -0.33594,0 -0.68799,0.0186 -1.05615,0.0547 -0.36768,0.0352 -0.6919,0.0898 -0.97168,0.16113 l 0,8.0166 c 0.27978,0.0801 0.604,0.1377 0.97168,0.17383 0.36816,0.0361 0.72021,0.0537 1.05615,0.0537 0.67188,0 1.28809,-0.0879 1.84815,-0.26367 0.56005,-0.17578 1.04199,-0.44043 1.4458,-0.79199 0.4038,-0.35254 0.71826,-0.792 0.94238,-1.32032 0.22363,-0.52734 0.33594,-1.14355 0.33594,-1.84765 m -5.78418,-3.44434 c 0.0479,-0.008 0.16992,-0.0234 0.36621,-0.0479 0.1958,-0.0234 0.50976,-0.0361 0.94189,-0.0361 0.6001,0 1.12354,0.082 1.57178,0.24609 0.44824,0.16406 0.82422,0.39844 1.12793,0.70215 0.3042,0.30371 0.53223,0.67383 0.68408,1.11035 0.15186,0.43555 0.22803,0.92578 0.22803,1.46973 0,0.54394 -0.0762,1.03222 -0.22803,1.46386 -0.15185,0.43164 -0.37988,0.79981 -0.68408,1.1045 -0.30371,0.30371 -0.67969,0.53711 -1.12793,0.70117 -0.44824,0.16406 -0.97168,0.24609 -1.57178,0.24609 -0.43213,0 -0.74609,-0.0117 -0.94189,-0.0361 -0.19629,-0.0234 -0.31836,-0.04 -0.36621,-0.0479 l 0,-6.87598 z"
             id="path3041"
             style="fill:#918f90;fill-opacity:1;fill-rule:nonzero;stroke:none" /><path
             d="m 248.3042,-166.54395 c -0.15869,0.40821 -0.30469,0.80079 -0.43799,1.17872 -0.1333,0.37695 -0.26025,0.74414 -0.38183,1.10156 l -4.0625,0 c -0.13868,-0.35938 -0.27491,-0.72754 -0.40772,-1.10547 -0.13281,-0.37695 -0.27344,-0.76856 -0.42139,-1.17481 l -0.85205,0 c 0.31543,0.86524 0.61377,1.67188 0.89502,2.41993 0.28076,0.74804 0.55615,1.45507 0.82617,2.12207 0.27002,0.66699 0.53858,1.30859 0.80469,1.92382 0.26611,0.61426 0.5459,1.23145 0.83985,1.85059 l 0.71923,0 c 0.29346,-0.61621 0.57178,-1.23242 0.83496,-1.84863 0.26319,-0.61621 0.53028,-1.25781 0.80127,-1.92481 0.271,-0.66601 0.5459,-1.37402 0.82373,-2.12304 0.27832,-0.74903 0.58497,-1.55469 0.91895,-2.41993 l -0.90039,0 m -2.86182,7.37989 c -0.30078,-0.69043 -0.59375,-1.3916 -0.87939,-2.10254 -0.28516,-0.71094 -0.58008,-1.47852 -0.88526,-2.30176 l 3.54932,0 c -0.30713,0.82422 -0.60596,1.59277 -0.89697,2.30469 -0.29102,0.71191 -0.58692,1.41211 -0.8877,2.09961 z"
             id="path3043"
             style="fill:#918f90;fill-opacity:1;fill-rule:nonzero;stroke:none" /><path
             d="m 258.93604,-160.72363 c 0,-0.62403 -0.16407,-1.11621 -0.49219,-1.47657 -0.32813,-0.35937 -0.75977,-0.62011 -1.2959,-0.77929 0.12793,-0.16016 0.29394,-0.37696 0.49805,-0.64844 0.2041,-0.27246 0.41406,-0.57031 0.62988,-0.89355 0.21631,-0.32422 0.42822,-0.66211 0.63623,-1.01465 0.20801,-0.35157 0.38379,-0.6875 0.52783,-1.00782 l -0.87598,0 c -0.16796,0.32032 -0.35009,0.63965 -0.54589,0.95997 -0.19629,0.32031 -0.396,0.62988 -0.6001,0.92968 -0.2041,0.30078 -0.40186,0.57813 -0.59375,0.83399 -0.19238,0.25586 -0.36035,0.48047 -0.5044,0.67285 -0.25586,-0.0244 -0.51171,-0.0361 -0.76757,-0.0361 l -1.34424,0 0,-3.36036 -0.81592,0 0,8.16016 c 0.28809,0.0801 0.62598,0.1377 1.01416,0.17383 0.3877,0.0361 0.74561,0.0537 1.07373,0.0537 1.14404,0 2.00586,-0.21582 2.58594,-0.64746 0.58008,-0.43262 0.87012,-1.07227 0.87012,-1.91992 m -3.35987,1.85937 c -0.3042,0 -0.57031,-0.01 -0.79834,-0.0293 -0.22803,-0.0205 -0.41797,-0.0381 -0.56982,-0.0547 l 0,-3.54004 1.12793,0 c 0.37597,0 0.73193,0.0186 1.06787,0.0547 0.33642,0.0361 0.62793,0.11523 0.87598,0.23925 0.24804,0.12403 0.44433,0.30274 0.58837,0.53418 0.14405,0.23243 0.21582,0.54786 0.21582,0.94825 0,0.36816 -0.0718,0.67187 -0.21582,0.91211 -0.14404,0.24023 -0.33203,0.42968 -0.56396,0.57031 -0.23242,0.13965 -0.49805,0.23535 -0.79834,0.28711 -0.29981,0.0527 -0.60986,0.0781 -0.92969,0.0781 z"
             id="path3045"
             style="fill:#918f90;fill-opacity:1;fill-rule:nonzero;stroke:none" /><path
             d="m 268.88379,-166.54395 c -0.27197,0.417 -0.57764,0.82911 -0.91797,1.23731 -0.33984,0.40918 -0.69775,0.79394 -1.07373,1.1543 -0.37598,0.36035 -0.7583,0.68847 -1.146,0.98535 -0.38818,0.2959 -0.7622,0.54492 -1.12207,0.74511 l 0,-4.12207 -0.81591,0 0,8.31641 0.81591,0 0,-3.87012 c 0.3042,0.27149 0.64258,0.58496 1.01465,0.94043 0.37207,0.35547 0.74072,0.71289 1.10498,1.07227 0.36426,0.35937 0.70655,0.70312 1.02686,1.03027 0.32031,0.32715 0.57617,0.60352 0.76855,0.82715 l 0.98389,0 c -0.23193,-0.24805 -0.51221,-0.54199 -0.84033,-0.88086 -0.32862,-0.33984 -0.67676,-0.68945 -1.04492,-1.04883 -0.36866,-0.35937 -0.73487,-0.71289 -1.09913,-1.06054 -0.36425,-0.34668 -0.69043,-0.65235 -0.97851,-0.91602 0.23193,-0.14453 0.48193,-0.32226 0.75,-0.53516 0.26807,-0.21191 0.54004,-0.44433 0.81592,-0.69628 0.27588,-0.25293 0.54785,-0.51758 0.81591,-0.79395 0.26807,-0.27637 0.52002,-0.55469 0.75635,-0.83496 0.23584,-0.28027 0.44776,-0.55274 0.63574,-0.81641 0.18799,-0.26465 0.34229,-0.50879 0.46192,-0.7334 l -0.91211,0 z"
             id="path3047"
             style="fill:#918f90;fill-opacity:1;fill-rule:nonzero;stroke:none" /><path
             d="m 281.72363,-166.61621 c -0.13574,0 -0.29394,0.006 -0.47363,0.0186 -0.18018,0.0117 -0.36426,0.0283 -0.55225,0.0479 -0.18798,0.0195 -0.36572,0.0439 -0.53369,0.0723 -0.16797,0.0273 -0.31201,0.0576 -0.43213,0.0898 l 0,8.00391 c 0.14405,0.04 0.30371,0.0732 0.47998,0.10156 0.17579,0.0283 0.35791,0.0518 0.5459,0.0723 0.18799,0.0195 0.37207,0.0342 0.55225,0.042 0.17969,0.008 0.3457,0.0117 0.49756,0.0117 0.44824,0 0.87402,-0.0361 1.27832,-0.10742 0.40381,-0.0723 0.75781,-0.19238 1.06201,-0.35938 0.30371,-0.16797 0.5459,-0.38965 0.72607,-0.66504 0.17969,-0.27539 0.27002,-0.61718 0.27002,-1.02441 0,-0.44727 -0.11425,-0.8291 -0.34228,-1.14453 -0.22803,-0.31543 -0.53369,-0.5332 -0.91797,-0.65332 0.24023,-0.0557 0.45996,-0.13574 0.66016,-0.24024 0.1997,-0.10351 0.37597,-0.23828 0.52783,-0.40234 0.15185,-0.16406 0.27002,-0.36426 0.354,-0.60059 0.084,-0.23632 0.12598,-0.51855 0.12598,-0.84765 0,-0.78418 -0.31201,-1.38379 -0.93604,-1.7959 -0.62402,-0.41309 -1.58789,-0.61914 -2.89209,-0.61914 m -1.17578,4.76465 1.58399,0 c 0.29589,0 0.57617,0.0215 0.83984,0.0654 0.26416,0.0439 0.49414,0.12304 0.68994,0.23925 0.19629,0.11524 0.3501,0.27051 0.4624,0.46583 0.11182,0.19531 0.16797,0.44433 0.16797,0.74707 0,0.2705 -0.0601,0.5 -0.18017,0.6875 -0.12012,0.18652 -0.29004,0.33984 -0.50977,0.45996 -0.22021,0.11914 -0.48242,0.20507 -0.78613,0.25683 -0.3042,0.0518 -0.64014,0.0781 -1.0083,0.0781 -0.2959,0 -0.5459,-0.009 -0.75,-0.0244 -0.20362,-0.0156 -0.37403,-0.0361 -0.50977,-0.0596 l 0,-2.91601 m 0,-0.69629 0,-3.28809 c 0.12012,-0.0166 0.29981,-0.0342 0.54004,-0.0537 0.23975,-0.0205 0.48389,-0.0303 0.73193,-0.0303 0.36768,0 0.72608,0.0244 1.07422,0.0723 0.34766,0.0479 0.65381,0.13672 0.91797,0.26465 0.26367,0.12891 0.47559,0.30567 0.63574,0.53028 0.16016,0.2246 0.24024,0.51367 0.24024,0.86718 0,0.32032 -0.0562,0.58789 -0.16797,0.80078 -0.11231,0.21289 -0.27246,0.38086 -0.47998,0.50586 -0.2085,0.12403 -0.4624,0.20996 -0.76221,0.25879 -0.2998,0.0478 -0.63428,0.0723 -1.00195,0.0723 l -1.72803,0 z"
             id="path3049"
             style="fill:#918f90;fill-opacity:1;fill-rule:nonzero;stroke:none" /><path
             d="m 295.896,-166.54395 c -0.1587,0.40821 -0.30469,0.80079 -0.43799,1.17872 -0.1333,0.37695 -0.26026,0.74414 -0.38184,1.10156 l -4.0625,0 c -0.13867,-0.35938 -0.2749,-0.72754 -0.40771,-1.10547 -0.13282,-0.37695 -0.27344,-0.76856 -0.42139,-1.17481 l -0.85205,0 c 0.31543,0.86524 0.61377,1.67188 0.89502,2.41993 0.28076,0.74804 0.55615,1.45507 0.82617,2.12207 0.27002,0.66699 0.53858,1.30859 0.80469,1.92382 0.26611,0.61426 0.5459,1.23145 0.83984,1.85059 l 0.71924,0 c 0.29346,-0.61621 0.57178,-1.23242 0.83496,-1.84863 0.26319,-0.61621 0.53027,-1.25781 0.80127,-1.92481 0.271,-0.66601 0.5459,-1.37402 0.82373,-2.12304 0.27832,-0.74903 0.58496,-1.55469 0.91895,-2.41993 l -0.90039,0 m -2.86182,7.37989 c -0.30078,-0.69043 -0.59375,-1.3916 -0.87939,-2.10254 -0.28516,-0.71094 -0.58008,-1.47852 -0.88526,-2.30176 l 3.54932,0 c -0.30713,0.82422 -0.60596,1.59277 -0.89697,2.30469 -0.29102,0.71191 -0.58692,1.41211 -0.8877,2.09961 z"
             id="path3051"
             style="fill:#918f90;fill-opacity:1;fill-rule:nonzero;stroke:none" /><path
             d="m 304.34375,-166.72363 c -0.53516,0 -1.0332,0.0957 -1.49414,0.28808 -0.45898,0.19141 -0.85938,0.47168 -1.19922,0.83985 -0.33984,0.36718 -0.6084,0.82129 -0.8042,1.36132 -0.19629,0.54004 -0.29394,1.15821 -0.29394,1.8545 0,0.69629 0.10595,1.31347 0.31787,1.85351 0.21191,0.54004 0.49316,0.99414 0.84668,1.36231 0.35156,0.36816 0.75976,0.64648 1.22265,0.83398 0.46485,0.18848 0.94922,0.28223 1.45313,0.28223 0.31152,0 0.5957,-0.0205 0.85156,-0.0605 0.25586,-0.04 0.48047,-0.0898 0.67188,-0.14941 0.1914,-0.0606 0.35546,-0.12012 0.49218,-0.17969 0.13575,-0.0606 0.24024,-0.11426 0.3125,-0.16211 l -0.26465,-0.70801 c -0.20019,0.12012 -0.4541,0.23731 -0.76171,0.35352 -0.30762,0.11621 -0.69043,0.17383 -1.14551,0.17383 -0.52149,0 -0.97461,-0.0879 -1.36328,-0.26368 -0.3877,-0.17578 -0.71289,-0.42382 -0.97754,-0.74414 -0.26367,-0.32031 -0.46192,-0.70019 -0.59375,-1.13964 -0.13184,-0.44043 -0.19824,-0.92872 -0.19824,-1.46387 0,-0.55274 0.0664,-1.05078 0.19824,-1.49414 0.13183,-0.44434 0.32519,-0.82227 0.58203,-1.13379 0.25586,-0.3125 0.56934,-0.55274 0.94238,-0.7207 0.3711,-0.16797 0.79688,-0.25196 1.27735,-0.25196 0.52832,0 0.9707,0.0498 1.32617,0.15039 0.35547,0.0996 0.62597,0.20215 0.81054,0.30567 l 0.22754,-0.69629 c -0.0557,-0.04 -0.15234,-0.0859 -0.28808,-0.1377 -0.13672,-0.0518 -0.3086,-0.10547 -0.51563,-0.16211 -0.20898,-0.0557 -0.44922,-0.10156 -0.7207,-0.13769 -0.27148,-0.0361 -0.57617,-0.0537 -0.91211,-0.0537 z"
             id="path3053"
             style="fill:#918f90;fill-opacity:1;fill-rule:nonzero;stroke:none" /><path
             d="m 316.27148,-166.54395 c -0.27148,0.417 -0.57714,0.82911 -0.91796,1.23731 -0.33985,0.40918 -0.69727,0.79394 -1.07325,1.1543 -0.37597,0.36035 -0.75879,0.68847 -1.1455,0.98535 -0.38868,0.2959 -0.7627,0.54492 -1.12305,0.74511 l 0,-4.12207 -0.81543,0 0,8.31641 0.81543,0 0,-3.87012 c 0.30469,0.27149 0.64258,0.58496 1.01562,0.94043 0.3711,0.35547 0.74024,0.71289 1.1045,1.07227 0.36425,0.35937 0.70605,0.70312 1.02636,1.03027 0.32032,0.32715 0.57618,0.60352 0.76953,0.82715 l 0.9834,0 c -0.23144,-0.24805 -0.51269,-0.54199 -0.84082,-0.88086 -0.32812,-0.33984 -0.67578,-0.68945 -1.04492,-1.04883 -0.36816,-0.35937 -0.73437,-0.71289 -1.09863,-1.06054 -0.36426,-0.34668 -0.69043,-0.65235 -0.97852,-0.91602 0.23145,-0.14453 0.48145,-0.32226 0.75,-0.53516 0.26856,-0.21191 0.54004,-0.44433 0.81543,-0.69628 0.27637,-0.25293 0.54883,-0.51758 0.81641,-0.79395 0.26758,-0.27637 0.51953,-0.55469 0.75586,-0.83496 0.23633,-0.28027 0.44824,-0.55274 0.63672,-0.81641 0.1875,-0.26465 0.34179,-0.50879 0.46093,-0.7334 l -0.91211,0 z"
             id="path3055"
             style="fill:#918f90;fill-opacity:1;fill-rule:nonzero;stroke:none" /><path
             d="m 326.28027,-162.6084 0.81543,0 0,-3.70801 c -0.15234,-0.0635 -0.44922,-0.1455 -0.89355,-0.24511 -0.44434,-0.10059 -0.99024,-0.15039 -1.6377,-0.15039 -0.54492,0 -1.04882,0.0957 -1.51172,0.28808 -0.46484,0.19141 -0.86718,0.46973 -1.20703,0.83399 -0.33984,0.36425 -0.60547,0.81543 -0.79687,1.35546 -0.19336,0.54004 -0.28906,1.15821 -0.28906,1.8545 0,0.69629 0.10351,1.31347 0.3125,1.85351 0.208,0.54004 0.49023,0.99219 0.8457,1.35645 0.35547,0.36426 0.76953,0.6416 1.24219,0.83398 0.47168,0.19239 0.97656,0.28809 1.51172,0.28809 0.61621,0 1.12402,-0.0664 1.52441,-0.19824 0.39941,-0.13184 0.69238,-0.25782 0.87598,-0.37793 l -0.27637,-0.69629 c -0.22363,0.16015 -0.52832,0.29004 -0.91113,0.39062 -0.38477,0.0996 -0.80079,0.14942 -1.24805,0.14942 -0.41602,0 -0.80859,-0.0762 -1.17676,-0.22754 -0.36816,-0.15235 -0.68848,-0.37989 -0.95996,-0.68457 -0.27148,-0.30371 -0.48633,-0.67969 -0.64258,-1.12793 -0.15527,-0.44824 -0.2334,-0.96778 -0.2334,-1.55957 0,-0.55176 0.0635,-1.04981 0.19239,-1.49414 0.12695,-0.44434 0.32226,-0.82422 0.58203,-1.13965 0.25976,-0.31641 0.58203,-0.5586 0.96582,-0.72656 0.38379,-0.16797 0.82715,-0.25196 1.33203,-0.25196 0.40723,0 0.75,0.0225 1.02637,0.0664 0.27539,0.0439 0.46093,0.0859 0.55761,0.12598 l 0,3.1914 z"
             id="path3057"
             style="fill:#918f90;fill-opacity:1;fill-rule:nonzero;stroke:none" /><path
             d="m 337.53711,-160.72363 c 0,-0.62403 -0.16406,-1.11621 -0.49219,-1.47657 -0.32812,-0.35937 -0.75976,-0.62011 -1.29687,-0.77929 0.1289,-0.16016 0.29492,-0.37696 0.49804,-0.64844 0.20508,-0.27246 0.41407,-0.57031 0.63086,-0.89355 0.21582,-0.32422 0.42774,-0.66211 0.63477,-1.01465 0.20898,-0.35157 0.38476,-0.6875 0.5293,-1.00782 l -0.87696,0 c -0.16797,0.32032 -0.34961,0.63965 -0.54492,0.95997 -0.19726,0.32031 -0.39648,0.62988 -0.60059,0.92968 -0.2041,0.30078 -0.40136,0.57813 -0.59375,0.83399 -0.19238,0.25586 -0.36035,0.48047 -0.50488,0.67285 -0.25586,-0.0244 -0.51172,-0.0361 -0.76758,-0.0361 l -1.34375,0 0,-3.36036 -0.8164,0 0,8.16016 c 0.28906,0.0801 0.62695,0.1377 1.01465,0.17383 0.38769,0.0361 0.74511,0.0537 1.07324,0.0537 1.14453,0 2.00586,-0.21582 2.58594,-0.64746 0.58007,-0.43262 0.87109,-1.07227 0.87109,-1.91992 m -3.36035,1.85937 c -0.30371,0 -0.57031,-0.01 -0.79785,-0.0293 -0.22852,-0.0205 -0.41797,-0.0381 -0.57032,-0.0547 l 0,-3.54004 1.12793,0 c 0.37598,0 0.73145,0.0186 1.06739,0.0547 0.33691,0.0361 0.6289,0.11523 0.87695,0.23925 0.24805,0.12403 0.44336,0.30274 0.58789,0.53418 0.14453,0.23243 0.21582,0.54786 0.21582,0.94825 0,0.36816 -0.0713,0.67187 -0.21582,0.91211 -0.14453,0.24023 -0.33203,0.42968 -0.56445,0.57031 -0.23242,0.13965 -0.49805,0.23535 -0.79785,0.28711 -0.29981,0.0527 -0.61036,0.0781 -0.92969,0.0781 z"
             id="path3059"
             style="fill:#918f90;fill-opacity:1;fill-rule:nonzero;stroke:none" /><path
             d="m 349.87305,-162.37988 c 0,-0.71192 -0.10547,-1.33985 -0.3125,-1.88379 -0.20899,-0.54395 -0.49024,-0.99805 -0.84571,-1.36231 -0.35546,-0.36425 -0.76953,-0.63769 -1.24218,-0.82226 -0.47266,-0.1836 -0.97266,-0.27539 -1.5,-0.27539 -0.52735,0 -1.02735,0.0918 -1.5,0.27539 -0.47266,0.18457 -0.88672,0.45801 -1.24219,0.82226 -0.35547,0.36426 -0.63867,0.81836 -0.8457,1.36231 -0.20899,0.54394 -0.3125,1.17187 -0.3125,1.88379 0,0.71191 0.10351,1.33789 0.3125,1.87793 0.20703,0.54004 0.49023,0.99218 0.8457,1.35644 0.35547,0.36328 0.76953,0.6377 1.24219,0.82129 0.47265,0.18457 0.97265,0.27637 1.5,0.27637 0.52734,0 1.02734,-0.0918 1.5,-0.27637 0.47265,-0.18359 0.88672,-0.45801 1.24218,-0.82129 0.35547,-0.36426 0.63672,-0.8164 0.84571,-1.35644 0.20703,-0.54004 0.3125,-1.16602 0.3125,-1.87793 m -0.86524,0 c 0,0.55957 -0.0703,1.06152 -0.21484,1.50586 -0.14453,0.44433 -0.34766,0.82226 -0.61328,1.13379 -0.26367,0.3125 -0.58203,0.5498 -0.95313,0.71386 -0.37109,0.16407 -0.79101,0.2461 -1.2539,0.2461 -0.46485,0 -0.88282,-0.082 -1.25391,-0.2461 -0.37305,-0.16406 -0.68945,-0.40136 -0.95508,-0.71386 -0.26367,-0.31153 -0.46679,-0.68946 -0.61133,-1.13379 -0.14453,-0.44434 -0.21484,-0.94629 -0.21484,-1.50586 0,-0.56055 0.0703,-1.0625 0.21484,-1.50586 0.14454,-0.44434 0.34766,-0.82227 0.61133,-1.13379 0.26563,-0.3125 0.58203,-0.55274 0.95508,-0.7207 0.37109,-0.16797 0.78906,-0.25196 1.25391,-0.25196 0.46289,0 0.88281,0.084 1.2539,0.25196 0.3711,0.16796 0.68946,0.4082 0.95313,0.7207 0.26562,0.31152 0.46875,0.68945 0.61328,1.13379 0.14453,0.44336 0.21484,0.94531 0.21484,1.50586 z"
             id="path3061"
             style="fill:#918f90;fill-opacity:1;fill-rule:nonzero;stroke:none" /><path
             d="m 357.69727,-166.72363 c -0.55274,0 -1.02344,0.084 -1.41016,0.25195 -0.38867,0.16797 -0.70313,0.39941 -0.94336,0.69531 -0.23828,0.2959 -0.41211,0.64258 -0.52148,1.03809 -0.10743,0.39648 -0.16211,0.82226 -0.16211,1.27832 l 0,5.23242 0.8164,0 0,-5.12402 c 0,-0.45606 0.0547,-0.85059 0.16211,-1.18262 0.10742,-0.33203 0.25781,-0.60547 0.44922,-0.82129 0.19336,-0.2168 0.42383,-0.37695 0.69727,-0.48047 0.27148,-0.10449 0.57617,-0.15625 0.91211,-0.15625 0.33593,0 0.63867,0.0518 0.91211,0.15625 0.27148,0.10352 0.5039,0.26367 0.69531,0.48047 0.1914,0.21582 0.34179,0.48926 0.44922,0.82129 0.10937,0.33203 0.16211,0.72656 0.16211,1.18262 l 0,5.12402 0.8164,0 0,-5.23242 c 0,-0.45606 -0.0547,-0.88184 -0.16211,-1.27832 -0.10742,-0.39551 -0.28125,-0.74219 -0.52148,-1.03809 -0.24024,-0.2959 -0.55469,-0.52734 -0.94141,-0.69531 -0.38867,-0.16797 -0.85937,-0.25195 -1.41015,-0.25195 z"
             id="path3063"
             style="fill:#918f90;fill-opacity:1;fill-rule:nonzero;stroke:none" /><path
             d="m 371.52148,-166.54395 c -0.15429,0.27832 -0.34765,0.60645 -0.58203,0.98438 -0.23242,0.37793 -0.49218,0.7793 -0.77734,1.2041 -0.2832,0.42481 -0.58203,0.86426 -0.89063,1.31738 -0.31054,0.45313 -0.61914,0.89454 -0.92578,1.32325 -0.30664,0.42871 -0.60742,0.83007 -0.90234,1.20507 -0.29297,0.37403 -0.55469,0.69825 -0.7832,0.97071 l 0,-7.00489 -0.80274,0 0,8.31641 0.64649,0 c 0.41015,-0.45605 0.84765,-0.98242 1.3125,-1.5791 0.46679,-0.59766 0.92382,-1.20606 1.37304,-1.82617 0.44922,-0.61914 0.86719,-1.22461 1.25586,-1.81641 0.38867,-0.5918 0.70703,-1.10742 0.95508,-1.54687 l 0,6.76855 0.80469,0 0,-8.31641 -0.6836,0 z"
             id="path3065"
             style="fill:#918f90;fill-opacity:1;fill-rule:nonzero;stroke:none" /><path
             d="m 383.96484,-162.37988 c 0,-0.71192 -0.11132,-1.33203 -0.33593,-1.86035 -0.22461,-0.52735 -0.53907,-0.96778 -0.94141,-1.31934 -0.4043,-0.35254 -0.88672,-0.61621 -1.44727,-0.79199 -0.56054,-0.17676 -1.17578,-0.26465 -1.84765,-0.26465 -0.33594,0 -0.6875,0.0186 -1.05664,0.0547 -0.36719,0.0352 -0.69141,0.0898 -0.97071,0.16113 l 0,8.0166 c 0.2793,0.0801 0.60352,0.1377 0.97071,0.17383 0.36914,0.0361 0.7207,0.0537 1.05664,0.0537 0.67187,0 1.28711,-0.0879 1.84765,-0.26367 0.56055,-0.17578 1.04297,-0.44043 1.44727,-0.79199 0.40234,-0.35254 0.7168,-0.792 0.94141,-1.32032 0.22461,-0.52734 0.33593,-1.14355 0.33593,-1.84765 m -5.7832,-3.44434 c 0.0469,-0.008 0.16797,-0.0234 0.36524,-0.0479 0.19531,-0.0234 0.50976,-0.0361 0.9414,-0.0361 0.59961,0 1.125,0.082 1.57227,0.24609 0.44726,0.16406 0.82422,0.39844 1.1289,0.70215 0.30274,0.30371 0.53125,0.67383 0.6836,1.11035 0.15234,0.43555 0.22851,0.92578 0.22851,1.46973 0,0.54394 -0.0762,1.03222 -0.22851,1.46386 -0.15235,0.43164 -0.38086,0.79981 -0.6836,1.1045 -0.30468,0.30371 -0.68164,0.53711 -1.1289,0.70117 -0.44727,0.16406 -0.97266,0.24609 -1.57227,0.24609 -0.43164,0 -0.74609,-0.0117 -0.9414,-0.0361 -0.19727,-0.0234 -0.31836,-0.04 -0.36524,-0.0479 l 0,-6.87598 z"
             id="path3067"
             style="fill:#918f90;fill-opacity:1;fill-rule:nonzero;stroke:none" /><path
             d="m 220.39209,-162.40527 -188.5,0"
             id="path3069"
             style="fill:none;stroke:#918f90;stroke-width:0.5;stroke-linecap:butt;stroke-linejoin:miter;stroke-miterlimit:10;stroke-opacity:1;stroke-dasharray:none" /><path
             d="m 582.10742,-162.40527 -188.5,0"
             id="path3071"
             style="fill:none;stroke:#918f90;stroke-width:0.5;stroke-linecap:butt;stroke-linejoin:miter;stroke-miterlimit:10;stroke-opacity:1;stroke-dasharray:none" /></g></g></g><g
       transform="matrix(0.95672889,0,0,1,14.537971,-107.86321)"
       id="g3073"><g
         id="g3075" /><g
         id="g3081"><text
           xml:space="preserve"
           style="font-style:normal;font-weight:normal;font-size:19.62938881px;line-height:125%;font-family:sans-serif;letter-spacing:0px;word-spacing:0px;fill:#808080;fill-opacity:1;stroke:none;stroke-width:1px;stroke-linecap:butt;stroke-linejoin:miter;stroke-opacity:1"
           x="123.54236"
           y="0.98992032"
           id="text4453"
           sodipodi:linespacing="125%"
           transform="scale(1.022364,-0.9781252)"><tspan
             sodipodi:role="line"
             x="123.54236"
             y="0.98992032"
             id="tspan4457">Font: GalanoGrotesque-HeavyItalic</tspan></text>
<text
           xml:space="preserve"
           style="font-style:normal;font-weight:normal;font-size:19.62938881px;line-height:125%;font-family:sans-serif;letter-spacing:0px;word-spacing:0px;fill:#0292b0;fill-opacity:1;stroke:none;stroke-width:1px;stroke-linecap:butt;stroke-linejoin:miter;stroke-opacity:1"
           x="161.93985"
           y="27.41021"
           id="text4459"
           sodipodi:linespacing="125%"
           transform="scale(1.022364,-0.9781252)"><tspan
             sodipodi:role="line"
             id="tspan4461"
             x="161.93985"
             y="27.41021"
             style="fill:#0292b0;fill-opacity:1">RGBA Colorcode: 0292b0ff</tspan></text>
</g></g><g
       id="g3111"><g
         id="g3113" /><g
         id="g3119"><g
           clip-path="url(#clipPath3115)"
           id="g3121"><path
             d="m 282.26465,378.65625 c -0.0806,0.19922 -0.19531,0.46387 -0.34375,0.79199 -0.14844,0.32813 -0.31543,0.68555 -0.5,1.07422 -0.18506,0.3877 -0.37402,0.78711 -0.5669,1.19922 -0.19287,0.41211 -0.37744,0.79883 -0.5542,1.1582 -0.17675,0.36035 -0.33349,0.67578 -0.47021,0.94825 -0.13672,0.27148 -0.23682,0.46386 -0.30127,0.57617 -0.104,-1 -0.18603,-2.08594 -0.24609,-3.25782 -0.0596,-1.17285 -0.11377,-2.40234 -0.16162,-3.69043 l -0.8042,0 c 0.0723,1.51172 0.1538,2.95997 0.24609,4.34375 0.0918,1.38379 0.20557,2.70801 0.3418,3.97266 l 0.72021,0 c 0.24024,-0.40039 0.49658,-0.8623 0.76953,-1.38672 0.27246,-0.52344 0.54297,-1.06738 0.81153,-1.63183 0.26855,-0.56348 0.52881,-1.12012 0.78173,-1.66797 0.25196,-0.54785 0.47461,-1.04199 0.667,-1.48145 0.19238,0.43946 0.41504,0.9336 0.66748,1.48145 0.25244,0.54785 0.51318,1.10449 0.78125,1.66797 0.26855,0.56445 0.53906,1.10839 0.81201,1.63183 0.27246,0.52442 0.52881,0.98633 0.76953,1.38672 l 0.68408,0 c 0.13574,-1.26465 0.24951,-2.58887 0.3418,-3.97266 0.0918,-1.38378 0.17383,-2.83203 0.24609,-4.34375 l -0.82812,0 c -0.0478,1.28809 -0.10205,2.51758 -0.16211,3.69043 -0.0601,1.17188 -0.14209,2.25782 -0.2461,3.25782 -0.064,-0.11231 -0.16406,-0.30469 -0.2998,-0.57617 -0.13623,-0.27247 -0.29199,-0.5879 -0.46777,-0.94825 -0.17627,-0.35937 -0.36035,-0.74609 -0.55225,-1.1582 -0.19189,-0.41211 -0.37988,-0.81152 -0.56396,-1.19922 -0.18409,-0.38867 -0.3501,-0.74609 -0.49805,-1.07422 -0.14795,-0.32812 -0.26221,-0.59277 -0.3418,-0.79199 l -0.73193,0 z"
             id="path3123"
             style="fill:#918f90;fill-opacity:1;fill-rule:nonzero;stroke:none" /><path
             d="m 297.50391,377.45605 c -0.1587,0.40821 -0.30469,0.80079 -0.43799,1.17872 -0.1333,0.37695 -0.26026,0.74414 -0.38184,1.10156 l -4.0625,0 c -0.13867,-0.35938 -0.2749,-0.72754 -0.40771,-1.10547 -0.13282,-0.37695 -0.27344,-0.76856 -0.42139,-1.17481 l -0.85205,0 c 0.31543,0.86524 0.61377,1.67188 0.89502,2.41993 0.28076,0.74804 0.55615,1.45507 0.82617,2.12207 0.27002,0.66699 0.53858,1.30859 0.80469,1.92383 0.26611,0.61425 0.5459,1.23144 0.83984,1.85058 l 0.71924,0 c 0.29346,-0.61621 0.57178,-1.23242 0.83496,-1.84863 0.26319,-0.61621 0.53028,-1.25781 0.80127,-1.92481 0.271,-0.66601 0.5459,-1.37402 0.82373,-2.12304 0.27832,-0.74903 0.58496,-1.55469 0.91895,-2.41993 l -0.90039,0 m -2.86182,7.37989 c -0.30078,-0.69043 -0.59375,-1.3916 -0.87939,-2.10254 -0.28516,-0.71094 -0.58008,-1.47852 -0.88526,-2.30176 l 3.54932,0 c -0.30713,0.82422 -0.60596,1.59277 -0.89697,2.30469 -0.29102,0.71191 -0.58692,1.41211 -0.8877,2.09961 z"
             id="path3125"
             style="fill:#918f90;fill-opacity:1;fill-rule:nonzero;stroke:none" /><path
             d="m 304.57227,377.98438 c 0.64843,0 1.15234,0.11816 1.51171,0.35449 0.36036,0.23633 0.54004,0.61914 0.54004,1.14843 0,0.30469 -0.0576,0.55958 -0.17382,0.76368 -0.11622,0.2041 -0.27051,0.37695 -0.46192,0.51757 -0.19238,0.13965 -0.41211,0.25977 -0.66015,0.35938 -0.24805,0.0996 -0.50782,0.20508 -0.7793,0.31641 -0.34473,0.13476 -0.65235,0.27343 -0.92481,0.41699 -0.27246,0.14355 -0.5039,0.30469 -0.69629,0.48437 -0.1914,0.18067 -0.33789,0.38575 -0.4375,0.61817 -0.0996,0.23242 -0.15039,0.5039 -0.15039,0.8164 0,0.71192 0.23633,1.25196 0.70899,1.62012 0.4707,0.36719 1.12695,0.55176 1.9668,0.55176 0.2246,0 0.44433,-0.0166 0.66015,-0.0479 0.2168,-0.0322 0.41797,-0.0742 0.60645,-0.12598 0.18847,-0.0527 0.36035,-0.11035 0.5166,-0.17383 0.15527,-0.0645 0.28515,-0.13281 0.38867,-0.2041 l -0.28711,-0.68457 c -0.23242,0.16016 -0.51465,0.28809 -0.8457,0.38379 -0.33203,0.0967 -0.69043,0.14453 -1.07422,0.14453 -0.26367,0 -0.50586,-0.0264 -0.72656,-0.0781 -0.21973,-0.0518 -0.41016,-0.13575 -0.57032,-0.25196 -0.16015,-0.11621 -0.28515,-0.26172 -0.37695,-0.43847 -0.0928,-0.17579 -0.13867,-0.3877 -0.13867,-0.63575 0,-0.25586 0.0488,-0.47168 0.14453,-0.64746 0.0957,-0.17675 0.22949,-0.32812 0.40137,-0.45605 0.17285,-0.12793 0.37402,-0.24414 0.60644,-0.34863 0.23242,-0.10352 0.48438,-0.21192 0.75586,-0.32325 0.32813,-0.13672 0.6377,-0.27246 0.92969,-0.4082 0.29199,-0.13672 0.54687,-0.2959 0.76172,-0.48047 0.2168,-0.18359 0.38867,-0.4082 0.5166,-0.67187 0.12793,-0.26368 0.19238,-0.58789 0.19238,-0.97168 0,-0.75196 -0.26269,-1.31641 -0.78711,-1.69239 -0.52343,-0.37597 -1.2334,-0.56347 -2.1289,-0.56347 -0.32032,0 -0.61231,0.0195 -0.87696,0.0596 -0.26367,0.04 -0.5,0.0898 -0.70703,0.15039 -0.20898,0.0596 -0.38476,0.12207 -0.52832,0.18555 -0.14355,0.0645 -0.25683,0.12011 -0.33594,0.16796 l 0.26368,0.70801 c 0.0801,-0.0478 0.18847,-0.10351 0.32422,-0.16797 0.13574,-0.0635 0.29589,-0.12597 0.47949,-0.18554 0.18457,-0.0606 0.39258,-0.11036 0.625,-0.15039 0.23144,-0.04 0.4873,-0.0596 0.76758,-0.0596 z"
             id="path3127"
             style="fill:#918f90;fill-opacity:1;fill-rule:nonzero;stroke:none" /><path
             d="m 317.26758,385.77246 0,-0.70801 -2.66406,0 0,-7.6084 -0.81543,0 0,7.6084 -2.66407,0 0,0.70801 6.14356,0 z"
             id="path3129"
             style="fill:#918f90;fill-opacity:1;fill-rule:nonzero;stroke:none" /><path
             d="m 321.56445,377.45605 0,8.31641 4.79883,0 0,-0.70801 -3.9834,0 0,-2.89257 3.55176,0 0,-0.69629 -3.55176,0 0,-3.31153 4.2959,0 0,-0.70801 -5.11133,0 z"
             id="path3131"
             style="fill:#918f90;fill-opacity:1;fill-rule:nonzero;stroke:none" /><path
             d="m 336.76758,383.27637 c 0,-0.62403 -0.16406,-1.11621 -0.49219,-1.47657 -0.32812,-0.35937 -0.75976,-0.62011 -1.2959,-0.77929 0.12793,-0.16016 0.29395,-0.37696 0.49805,-0.64844 0.2041,-0.27246 0.41406,-0.57031 0.62988,-0.89355 0.2168,-0.32422 0.42774,-0.66211 0.63672,-1.01465 0.20703,-0.35157 0.38281,-0.6875 0.52734,-1.00782 l -0.87597,0 c -0.16797,0.32032 -0.35059,0.63965 -0.5459,0.95997 -0.19629,0.32031 -0.39648,0.62988 -0.59961,0.92968 -0.20508,0.30078 -0.40234,0.57813 -0.59375,0.83399 -0.19336,0.25586 -0.36133,0.48047 -0.50488,0.67285 -0.25586,-0.0244 -0.51172,-0.0361 -0.76758,-0.0361 l -1.34473,0 0,-3.36036 -0.81543,0 0,8.16016 c 0.28809,0.0801 0.62598,0.1377 1.01465,0.17383 0.38672,0.0361 0.74512,0.0537 1.07324,0.0537 1.14356,0 2.00586,-0.21582 2.58594,-0.64746 0.58008,-0.43262 0.87012,-1.07227 0.87012,-1.91992 m -3.35938,1.85937 c -0.30468,0 -0.57031,-0.01 -0.79882,-0.0293 -0.22852,-0.0205 -0.41797,-0.0381 -0.57032,-0.0547 l 0,-3.54004 1.12891,0 c 0.375,0 0.73144,0.0185 1.06738,0.0547 0.33692,0.0361 0.62793,0.11523 0.87598,0.23925 0.24805,0.12403 0.44433,0.30274 0.58789,0.53418 0.14453,0.23243 0.2168,0.54786 0.2168,0.94825 0,0.36816 -0.0723,0.67187 -0.2168,0.91211 -0.14356,0.24023 -0.33203,0.42968 -0.56348,0.57031 -0.23242,0.13965 -0.49804,0.23535 -0.79785,0.28711 -0.30078,0.0527 -0.61035,0.0781 -0.92969,0.0781 z"
             id="path3133"
             style="fill:#918f90;fill-opacity:1;fill-rule:nonzero;stroke:none" /><path
             d="m 260.39209,381.59473 -228.5,0"
             id="path3135"
             style="fill:none;stroke:#918f90;stroke-width:0.5;stroke-linecap:butt;stroke-linejoin:miter;stroke-miterlimit:10;stroke-opacity:1;stroke-dasharray:none" /><path
             d="m 582.10742,381.59473 -228.5,0"
             id="path3137"
             style="fill:none;stroke:#918f90;stroke-width:0.5;stroke-linecap:butt;stroke-linejoin:miter;stroke-miterlimit:10;stroke-opacity:1;stroke-dasharray:none" /></g></g></g><path
       d="m 224.07275,-692.4248 -163.5039,0 0,163.5039 163.5039,0 0,-163.5039 z"
       id="path3139"
       style="fill:#231f20;fill-opacity:1;fill-rule:nonzero;stroke:none" /><path
       d="m 549.43164,-692.4248 -163.50391,0 0,163.5039 163.50391,0 0,-163.5039 z"
       id="path3141"
       style="fill:#ababab;fill-opacity:1;fill-rule:nonzero;stroke:none" /><path
       d="m 384.71875,-531.17871 0,-158.98828 -159.23437,0 0,158.98828 159.23437,0 m 2.13477,2.25781 -163.5044,0 0,-163.5039 163.5044,0 0,163.5039 0,0 z"
       id="path3153"
       style="fill:url(#linearGradient3143);fill-opacity:1;fill-rule:nonzero;stroke:none" /><path
       d="m 597.42612,-442.09473 -590.0000041,0 0,250.44532 590.0000041,0 0,-250.44532 z"
       id="path3185"
       style="fill:#1a1a1a;fill-opacity:1;fill-rule:nonzero;stroke:none" /><g
       id="g3225"><g
         id="g3227" /><g
         mask="url(#mask3253)"
         id="g3273"><g
           id="g3275" /><g
           id="g3287"><g
             clip-path="url(#clipPath3277)"
             id="g3289"><path
               d="m 535.46582,-73.13623 c 0.62109,0.81934 2.19531,1.0791 4.01758,1.37988 0.99219,0.16455 2.01758,0.33447 2.7959,0.59864 3.34765,1.12988 5.77734,2.4165 8.27636,5.64794 1.96289,3.12403 9.43164,11.63477 21.57813,16.07618 -0.29492,0.002 -0.59766,0.0034 -0.90527,0.0034 -3.75586,0 -7.86329,-0.18115 -10.7168,-0.47314 -15.3291,-1.55908 -22.2959,-5.729 -35.44922,-17.47119 -1.81445,-1.61768 -3.18457,-2.33887 -4.44434,-2.33887 -1.99902,0 -3.47461,1.81592 -5.50097,5.16699 -3.375,5.56641 -7.17969,11.0503 -13.25586,11.62598 -0.20117,0.01953 -0.40723,0.02881 -0.61328,0.02881 -4.06348,4.9e-4 -8.23438,-3.70899 -10.625,-7.38916 2.05078,-0.146 3.89453,-1.05762 5.75879,-2.83887 2.10058,-2.01221 3.458,-6.98437 4.02929,-10.96631 0.43067,-3.00927 0.84864,-5.92822 1.31836,-8.74414 12.20117,1.42041 23.50879,3.9126 33.44629,7.25879 -0.29199,0.78272 -0.33984,1.604 0.29004,2.43506 z"
               id="path3291"
               style="fill:url(#linearGradient3281);fill-opacity:1;fill-rule:nonzero;stroke:none" /></g></g></g></g><g
       id="g3311"><g
         id="g3313" /><g
         mask="url(#mask3339)"
         id="g3359"><g
           id="g3361" /><g
           id="g3373"><g
             clip-path="url(#clipPath3363)"
             id="g3375"><path
               d="m 391.10254,-73.13623 c 0.62207,0.81934 2.19629,1.0791 4.01855,1.37988 0.99219,0.16455 2.01758,0.33447 2.7959,0.59864 3.34766,1.12988 5.77637,2.4165 8.27637,5.64794 1.96289,3.12403 9.43164,11.63477 21.57812,16.07618 -0.29589,0.002 -0.59765,0.0034 -0.90527,0.0034 -3.75586,0 -7.86328,-0.18115 -10.71777,-0.47314 -15.32813,-1.55908 -22.2959,-5.729 -35.44922,-17.47119 -1.81348,-1.61768 -3.18457,-2.33887 -4.44531,-2.33887 -1.99707,0 -3.47364,1.81592 -5.5,5.16699 -3.375,5.56641 -7.17871,11.0503 -13.25489,11.62598 -0.20117,0.01953 -0.40722,0.02881 -0.61328,0.02881 -4.06347,4.9e-4 -8.23437,-3.70899 -10.625,-7.38916 2.05078,-0.146 3.89453,-1.05762 5.75879,-2.83887 2.10059,-2.01221 3.45801,-6.98437 4.02832,-10.96631 0.43067,-3.00927 0.84961,-5.92822 1.31836,-8.74414 12.20117,1.42041 23.50977,3.9126 33.44727,7.25879 -0.292,0.78272 -0.34082,1.604 0.28906,2.43506 z"
               id="path3377"
               style="fill:url(#linearGradient3367);fill-opacity:1;fill-rule:nonzero;stroke:none" /></g></g></g></g><g
       id="g3397"><g
         id="g3399" /><g
         mask="url(#mask3425)"
         id="g3445"><g
           id="g3447" /><g
           id="g3459"><g
             clip-path="url(#clipPath3449)"
             id="g3461"><path
               d="m 246.73975,-73.13623 c 0.62207,0.81934 2.19629,1.0791 4.01806,1.37988 0.99268,0.16455 2.01758,0.33447 2.79737,0.59864 3.34716,1.12988 5.77587,2.4165 8.27539,5.64794 1.96338,3.12403 9.43164,11.63477 21.57812,16.07618 -0.29541,0.002 -0.59765,0.0034 -0.90576,0.0034 -3.75635,0 -7.86328,-0.18115 -10.7168,-0.47314 -15.3291,-1.55908 -22.2959,-5.729 -35.44922,-17.47119 -1.81396,-1.61768 -3.18505,-2.33887 -4.44482,-2.33887 -1.99854,0 -3.47363,1.81592 -5.50049,5.16699 -3.375,5.56641 -7.1792,11.0503 -13.25537,11.62598 -0.20117,0.01953 -0.40723,0.02881 -0.61328,0.02881 -4.06397,4.9e-4 -8.23389,-3.70899 -10.625,-7.38916 2.05078,-0.146 3.89355,-1.05762 5.7583,-2.83887 2.10156,-2.01221 3.45947,-6.98437 4.02881,-10.96631 0.43115,-3.00927 0.84912,-5.92822 1.31933,-8.74414 12.2002,1.42041 23.50831,3.9126 33.44581,7.25879 -0.29102,0.78272 -0.33985,1.604 0.28955,2.43506 z"
               id="path3463"
               style="fill:url(#linearGradient3453);fill-opacity:1;fill-rule:nonzero;stroke:none" /></g></g></g></g><g
       id="g3483"><g
         id="g3485" /><g
         mask="url(#mask3511)"
         id="g3531"><g
           id="g3533" /><g
           id="g3545"><g
             clip-path="url(#clipPath3535)"
             id="g3547"><path
               d="m 102.37744,-73.13623 c 0.62158,0.81934 2.19531,1.0791 4.01758,1.37988 0.99268,0.16455 2.01758,0.33447 2.79687,0.59864 3.34766,1.12988 5.77686,2.4165 8.27637,5.64794 1.9624,3.12403 9.43067,11.63477 21.57764,16.07618 -0.29541,0.002 -0.59766,0.0034 -0.90527,0.0034 -3.75635,0 -7.86377,-0.18115 -10.7168,-0.47314 -15.32959,-1.55908 -22.2959,-5.729 -35.44971,-17.47119 -1.81396,-1.61768 -3.18457,-2.33887 -4.44482,-2.33887 -1.99805,0 -3.47364,1.81592 -5.50049,5.16699 -3.37451,5.56641 -7.1792,11.0503 -13.25537,11.62598 -0.20117,0.01953 -0.40723,0.02881 -0.61328,0.02881 -4.06348,4.9e-4 -8.23438,-3.70899 -10.62452,-7.38916 2.0503,-0.146 3.89356,-1.05762 5.75782,-2.83887 2.10156,-2.01221 3.45898,-6.98437 4.02929,-10.96631 0.43116,-3.00927 0.84913,-5.92822 1.31836,-8.74414 12.20118,1.42041 23.50879,3.9126 33.44629,7.25879 -0.29101,0.78272 -0.33984,1.604 0.29004,2.43506 z"
               id="path3549"
               style="fill:url(#linearGradient3539);fill-opacity:1;fill-rule:nonzero;stroke:none" /></g></g></g></g><g
       id="g3589"
       transform="translate(47.510594,-1.8273305)"><g
         id="g3591" /><g
         mask="url(#mask3617)"
         id="g3637"><g
           id="g3639" /><g
           id="g3651"><g
             clip-path="url(#clipPath3641)"
             id="g3653"><path
               d="m 329.16602,164.71191 c -16.98438,12.27051 -31.35694,25.11426 -11.82032,43.35987 1.47266,3.20019 -1.08398,6.06543 1.08789,9.31933 1.90039,1.25342 3.92774,0.92285 5.92383,0.9458 -6.90039,6.35987 1.98047,10.44141 6.99414,16.26319 2.10352,6.75635 -8.34961,12.64355 -3.82422,18.61767 2.38086,3.13037 12.86329,3.15918 18.96875,5.22998 9.88477,3.33741 17.0918,7.17725 24.48633,16.75489 4.60547,7.36132 28.24024,36.02441 68.73047,48.18701 -14.38672,-35.15088 -69.42383,-188.95899 -77.0918,-211.28369 -5.58203,18.99609 -15.5625,39.69189 -33.45507,52.60595 z"
               id="path3655"
               style="fill:url(#linearGradient3645);fill-opacity:1;fill-rule:evenodd;stroke:none"
               inkscape:connector-curvature="0" /></g></g></g></g><text
       x="144.65765"
       y="-245.15781"
       transform="scale(1,-1)"
       id="text3189-5"
       style="font-size:15.23163605px;fill:#0292b0;fill-opacity:1"
       inkscape:export-xdpi="58.034439"
       inkscape:export-ydpi="58.034439"
       inkscape:export-filename="E:\payqwik-gemspace\VIVA\logo120pxhigh.png"><tspan
         x="144.65765"
         y="-245.15781"
         id="tspan3191-0"
         style="font-style:italic;font-variant:normal;font-weight:normal;font-stretch:normal;font-size:72.63967133px;font-family:GalanoGrotesque-HeavyItalic;-inkscape-font-specification:'GalanoGrotesque-HeavyItalic Italic';writing-mode:lr-tb;fill:#0292b0;fill-opacity:1;fill-rule:nonzero;stroke:none">VIVA</tspan></text>
<path
       d="m 348.30438,210.2324 c 12.98378,4.82877 24.39821,10.45131 15.12455,25.11081 -0.37875,2.24646 1.75199,3.60846 0.93612,6.00341 -0.99268,1.09989 -2.34545,1.23212 -3.61354,1.58032 5.51482,2.82021 0.56206,6.85259 -1.61908,11.32632 -0.16109,4.57209 7.53872,6.50394 5.69532,10.99135 -0.97122,2.3528 -7.65454,4.12137 -11.18674,6.43465 -5.72459,3.736 -9.65012,7.3368 -12.69283,14.5547 -1.6514,5.36739 -11.71839,27.21802 -35.42672,41.57839 7.7344,-1.68872 19.0347,-4.98231 26.16483,-7.63685 28.10504,-10.44591 38.6115,-21.55479 56.71039,-48.76875 6.10399,-9.16831 10.0329,-7.28617 18.31946,0.4536 9.09504,8.47466 19.06221,16.71366 30.94949,14.75576 8.49071,-1.38831 15.40888,-11.15574 18.06814,-20.69278 -3.5045,1.01483 -7.46255,0.99795 -12.87098,-1.89011 -4.82581,-2.58204 -9.72498,-11.04281 -12.52028,-17.35228 -10.66273,-24.04997 -19.58736,-44.1743 -37.84804,-56.57376 -16.13298,-10.95096 -39.64269,-13.07629 -59.28251,-10.09337 -5.29915,0.80436 -10.42986,1.80567 -15.45324,2.94749 6.88305,10.93338 16.87106,22.19276 30.54557,27.27109 z"
       id="path3205-6"
       style="opacity:1;fill:#0292b0;fill-opacity:1;fill-rule:evenodd;stroke:none"
       inkscape:export-xdpi="15.338291"
       inkscape:export-ydpi="15.338291"
       inkscape:connector-curvature="0"
       inkscape:export-filename="E:\payqwik-gemspace\VIVA\favicon.png" /><path
       inkscape:connector-curvature="0"
       d="m 443.27393,-642.32115 c 10.38702,3.86301 19.51857,8.36105 12.09964,20.08865 -0.303,1.79716 1.40159,2.88676 0.74889,4.80272 -0.79414,0.87992 -1.87636,0.9857 -2.89083,1.26426 4.41186,2.25617 0.44965,5.48207 -1.29525,9.06106 -0.12888,3.65767 6.03096,5.20315 4.55624,8.79308 -0.77697,1.88224 -6.12362,3.29709 -8.94939,5.14772 -4.57967,2.9888 -7.72009,5.86944 -10.15425,11.64376 -1.32113,4.29391 -9.37472,21.77441 -28.34138,33.26271 6.18752,-1.35098 15.22775,-3.98585 20.93186,-6.10948 22.48403,-8.35673 30.8892,-17.24383 45.36832,-39.015 4.88318,-7.33465 8.02631,-5.82894 14.65556,0.36288 7.27603,6.77973 15.24978,13.37093 24.7596,11.80461 6.79256,-1.11065 12.32711,-8.9246 14.4545,-16.55423 -2.80358,0.81187 -5.97004,0.79836 -10.29677,-1.51209 -3.86066,-2.06563 -7.78,-8.83424 -10.01623,-13.88182 -8.53019,-19.23998 -15.66989,-35.33944 -30.27844,-45.25901 -12.90638,-8.76077 -31.71414,-10.46103 -47.426,-8.07469 -4.23933,0.64348 -8.34389,1.44453 -12.3626,2.35799 5.50644,8.7467 13.49685,17.75421 24.43646,21.81687 z"
       id="path3205-6-6-7"
       style="fill:#808080;fill-opacity:1;fill-rule:evenodd;stroke:none" /><path
       inkscape:connector-curvature="0"
       d="m 282.18992,-641.45974 c 10.38702,3.86301 19.51857,8.36105 12.09964,20.08865 -0.303,1.79716 1.40159,2.88676 0.74889,4.80272 -0.79414,0.87992 -1.87636,0.9857 -2.89083,1.26426 4.41186,2.25617 0.44965,5.48207 -1.29525,9.06106 -0.12888,3.65767 6.03096,5.20315 4.55624,8.79308 -0.77697,1.88224 -6.12362,3.29709 -8.94939,5.14772 -4.57967,2.9888 -7.72009,5.86944 -10.15425,11.64376 -1.32113,4.29391 -9.37472,21.77441 -28.34138,33.26271 6.18752,-1.35098 15.22775,-3.98585 20.93186,-6.10948 22.48403,-8.35673 30.8892,-17.24383 45.36832,-39.015 4.88318,-7.33465 8.02631,-5.82894 14.65555,0.36288 7.27603,6.77973 15.24979,13.37093 24.75961,11.80461 6.79256,-1.11065 12.32711,-8.9246 14.4545,-16.55423 -2.80358,0.81187 -5.97004,0.79836 -10.29677,-1.51209 -3.86066,-2.06563 -7.78,-8.83424 -10.01623,-13.88182 -8.53019,-19.23998 -15.66989,-35.33944 -30.27844,-45.25901 -12.90638,-8.76077 -31.71414,-10.46103 -47.426,-8.07469 -4.23933,0.64348 -8.34389,1.44453 -12.3626,2.35799 5.50644,8.7467 13.49685,17.75421 24.43646,21.81687 z"
       id="path3205-6-6-7-2"
       style="fill:#000000;fill-opacity:1;fill-rule:evenodd;stroke:none" /><path
       inkscape:connector-curvature="0"
       d="m 117.66025,-638.01409 c 10.38702,3.86301 19.51857,8.36105 12.09964,20.08865 -0.303,1.79716 1.40159,2.88676 0.74889,4.80272 -0.79414,0.87992 -1.87636,0.9857 -2.89083,1.26426 4.41186,2.25617 0.44965,5.48207 -1.29525,9.06106 -0.12888,3.65767 6.03096,5.20315 4.55624,8.79308 -0.77697,1.88224 -6.12362,3.29709 -8.94939,5.14772 -4.57967,2.9888 -7.72009,5.86944 -10.15425,11.64376 -1.32113,4.29391 -9.37472,21.77441 -28.341383,33.26271 6.18752,-1.35098 15.22775,-3.98585 20.931863,-6.10948 22.48403,-8.35673 30.8892,-17.24383 45.36832,-39.015 4.88318,-7.33465 8.02631,-5.82894 14.65556,0.36288 7.27603,6.77973 15.24978,13.37093 24.7596,11.80461 6.79256,-1.11065 12.32711,-8.9246 14.4545,-16.55423 -2.80358,0.81187 -5.97004,0.79836 -10.29677,-1.51209 -3.86066,-2.06563 -7.78,-8.83424 -10.01623,-13.88182 -8.53019,-19.23998 -15.66989,-35.33944 -30.27844,-45.25901 -12.90638,-8.76077 -31.71414,-10.46103 -47.426,-8.07469 -4.23933,0.64348 -8.343893,1.44453 -12.362603,2.35799 5.50644,8.7467 13.496853,17.75421 24.436463,21.81687 z"
       id="path3205-6-6-7-28"
       style="fill:#ffffff;fill-opacity:1;fill-rule:evenodd;stroke:none" /><text
       x="138.61417"
       y="320.54501"
       id="text3189-5-6"
       style="font-size:15.23163605px;fill:#0292b0;fill-opacity:1"
       inkscape:export-xdpi="300"
       inkscape:export-ydpi="300"
       transform="scale(1,-1)"><tspan
         x="138.61417"
         y="320.54501"
         id="tspan3191-0-6"
         style="font-style:italic;font-variant:normal;font-weight:normal;font-stretch:normal;font-size:72.63967133px;font-family:GalanoGrotesque-HeavyItalic;-inkscape-font-specification:'GalanoGrotesque-HeavyItalic Italic';writing-mode:lr-tb;fill:#0292b0;fill-opacity:1;fill-rule:nonzero;stroke:none">VIVA</tspan></text>
<path
       d="m 342.26089,-355.47041 c 12.98378,4.82877 24.39821,10.45131 15.12454,25.11081 -0.37874,2.24646 1.752,3.60846 0.93612,6.00341 -0.99268,1.09989 -2.34544,1.23212 -3.61353,1.58032 5.51481,2.82021 0.56205,6.85259 -1.61908,11.32632 -0.16109,4.57209 7.53872,6.50394 5.69532,10.99135 -0.97123,2.3528 -7.65455,4.12137 -11.18675,6.43465 -5.72458,3.736 -9.65012,7.3368 -12.69282,14.5547 -1.6514,5.36739 -11.71839,27.21802 -35.42672,41.57839 7.7344,-1.68872 19.0347,-4.98231 26.16482,-7.63685 28.10504,-10.44591 38.61151,-21.55479 56.7104,-48.76875 6.10399,-9.16831 10.0329,-7.28617 18.31946,0.4536 9.09504,8.47466 19.06221,16.71366 30.94949,14.75576 8.49071,-1.38831 15.40888,-11.15574 18.06813,-20.69278 -3.50449,1.01483 -7.46254,0.99795 -12.87097,-1.89011 -4.82581,-2.58204 -9.72499,-11.04281 -12.52028,-17.35228 -10.66273,-24.04997 -19.58736,-44.1743 -37.84804,-56.57376 -16.13299,-10.95096 -39.64269,-13.07629 -59.28251,-10.09337 -5.29916,0.80436 -10.42986,1.80567 -15.45324,2.94749 6.88304,10.93338 16.87106,22.19276 30.54556,27.27109 z"
       id="path3205-6-9"
       style="opacity:1;fill:#0292b0;fill-opacity:1;fill-rule:evenodd;stroke:none"
       inkscape:export-xdpi="300"
       inkscape:export-ydpi="300"
       inkscape:connector-curvature="0" /><text
       x="-39.563122"
       y="252.87308"
       id="text3189-5-1"
       style="font-size:14.25548458px;fill:#0292b0;fill-opacity:1"
       inkscape:export-xdpi="55.53109"
       inkscape:export-ydpi="55.53109"
       inkscape:export-filename="E:\payqwik-gemspace\VIVA\logo120pxhigh-alt.png"
       transform="matrix(0,1,1,0,0,0)"><tspan
         x="-39.563122"
         y="252.87308"
         id="tspan3191-0-7"
         style="font-style:italic;font-variant:normal;font-weight:normal;font-stretch:normal;font-size:67.98440552px;font-family:GalanoGrotesque-HeavyItalic;-inkscape-font-specification:'GalanoGrotesque-HeavyItalic Italic';writing-mode:lr-tb;fill:#0292b0;fill-opacity:1;fill-rule:nonzero;stroke:none">VIVA</tspan></text>
<path
       d="m 299.56606,4.257574 c 12.98378,4.82877 24.39821,10.45131 15.12455,25.11081 -0.37875,2.24646 1.75199,3.60846 0.93612,6.00341 -0.99268,1.09989 -2.34545,1.23212 -3.61354,1.58032 5.51482,2.82021 0.56206,6.85259 -1.61908,11.32632 -0.16109,4.57209 7.53872,6.50394 5.69532,10.991354 -0.97122,2.3528 -7.65454,4.12137 -11.18674,6.43465 -5.72459,3.736 -9.65012,7.3368 -12.69283,14.5547 -1.6514,5.36739 -11.71839,27.218022 -35.42672,41.578392 7.7344,-1.68872 19.0347,-4.98231 26.16483,-7.63685 28.10504,-10.44591 38.6115,-21.554793 56.71039,-48.768752 6.10399,-9.168314 10.0329,-7.28617 18.31946,0.4536 9.09504,8.47466 19.06221,16.71366 30.94949,14.75576 8.49071,-1.38831 15.40888,-11.15574 18.06814,-20.69278 -3.5045,1.01483 -7.46255,0.99795 -12.87098,-1.89011 -4.82581,-2.582044 -9.72498,-11.042814 -12.52028,-17.352284 -10.66273,-24.04997 -19.58736,-44.1742999 -37.84804,-56.57376 -16.13298,-10.95096 -39.64269,-13.07629 -59.28251,-10.09337 -5.29915,0.80436 -10.42986,1.80567 -15.45324,2.94749 6.88305,10.93338 16.87106,22.19275997 30.54557,27.27109 z"
       id="path3205-6-97"
       style="opacity:1;fill:#0292b0;fill-opacity:1;fill-rule:evenodd;stroke:none"
       inkscape:export-xdpi="55.53109"
       inkscape:export-ydpi="55.53109"
       inkscape:connector-curvature="0"
       inkscape:export-filename="E:\payqwik-gemspace\VIVA\logo120pxhigh-alt.png" /></g></svg>